<svg xmlns="http://www.w3.org/2000/svg" viewBox="0 0 900 2"><defs><style>.cls-1{fill:#382b18;}</style></defs><g id="content"><path class="cls-1" d="M896.45,1.93c-8,0-8-.17-15.94-.17s-8,0-15.94,0-8-.1-15.94-.1H832.69c-8,0-8,0-15.94,0s-8,0-15.93,0-8,.18-15.94.18-8,.07-15.94.07-8-.18-15.94-.18-8,.18-15.94.18-8,0-15.94,0-8,0-15.94,0-8,.06-15.94.06-8-.31-15.94-.31-8,.23-15.93.23-8,0-15.94,0-8,0-15.94,0-8-.09-15.94-.09-8-.07-15.94-.07-8,.3-15.94.3-8-.11-15.94-.11-8-.12-15.94-.12-8,0-15.94,0-8-.1-15.93-.1H498c-8,0-8,.22-15.94.22s-8-.13-15.94-.13-8-.07-15.93-.07-8,0-15.94,0-8,.08-15.94.08-8,.17-15.94.17-8-.13-15.94-.13-8,.09-15.94.09-8-.18-15.94-.18-8,.08-15.94.08-8,0-15.94,0-8-.09-15.94-.09-8,.31-15.93.31H274.84c-8,0-8-.29-15.94-.29s-8,.29-15.95.29-8,0-15.94,0-8,0-15.94,0-8-.12-15.94-.12-8-.07-15.94-.07-8-.07-15.94-.07-8,.15-15.94.15-8,.1-15.94.1-8,0-15.94,0-8,0-15.94,0-8-.09-15.94-.09-8-.05-16-.05-8-.09-15.94-.09-8,.05-15.94.05-8,.14-15.95.14-8-.05-15.95-.05A9.94,9.94,0,0,1,0,1C0,.59,1.65.09,3.82.09c8,0,8,.31,15.94.31H51.64c8,0,8-.31,15.94-.31s8,.27,15.94.27,8,0,15.93,0,8,0,15.94,0,8-.35,15.94-.35,8,.07,15.94.07h15.94c8,0,8,.23,15.94.23h15.94c8,0,8,0,15.94,0S219,.27,227,.27s8,.16,15.94.16,8-.14,15.94-.14,8-.13,15.94-.13,8,.15,15.94.15,8-.24,15.94-.24,8,.26,15.94.26,8,0,15.94,0,8-.21,15.94-.21,8,.07,15.94.07,8,0,15.93,0,8,0,15.94,0,8,0,15.94,0,8,0,15.94,0,8,.07,15.93.07,8,0,15.94,0,8,.13,15.94.13h15.94c8,0,8-.08,15.94-.08s8-.06,15.94-.06,8-.2,15.93-.2,8,.06,15.95.06h15.94c8,0,8,.05,15.93.05s8,.18,15.94.18,8-.14,15.94-.14,8,0,15.94,0,8,.12,16,.12,8,0,15.94,0,8,0,15.94,0,8,0,15.94,0,8,.08,15.94.08,8,0,15.94,0S745,.18,753,.18s8,0,15.94,0,8,0,15.94,0,8-.05,15.94-.05,8,.12,15.94.12,8,0,15.95,0,8-.11,15.94-.11,8,.11,15.94.11,8-.1,16-.1,8,.22,16,.22A9.4,9.4,0,0,1,900,1C900,1.41,898.62,1.93,896.45,1.93Z"/></g></svg>