<svg xmlns="http://www.w3.org/2000/svg" viewBox="0 0 510 130"><defs><style>.cls-1{fill:#382b18;}.cls-2{fill:#ffcc45;}</style></defs><g id="content"><polygon class="cls-1" points="30.92 124.5 478.29 124.5 504.61 64.5 478.29 4.5 30.92 4.5 4.61 64.5 30.92 124.5"/><path class="cls-1" d="M126.17,4.34c0-.18,2.65-.39,7-.58s10.46-.36,17.34-.48,14.82,0,23.62,0c7.36,0,15.28-.26,23.55-.26s16.15.43,23.51.48c8.8,0,17-.41,23.75-.3s12.47.31,16.35.53,6,.46,6,.64-2.16.42-6,.64-9.48.43-16.36.54-14.81.19-23.61.25C214,5.82,206,5.52,197.7,5.52l-23.55-.06c-8.81-.06-16.93.13-23.67,0s-13-.31-17.31-.52S126.17,4.52,126.17,4.34Z"/><path class="cls-1" d="M27.67,11.77c-.17-.08-.1-.72.26-2,.18-.64.43-1.43.76-2.38s.86-2.34,1.52-4l4.29-.14,4.35-.11C44.75,3,52,3,59.69,3s15,.38,21.23.49c11.36.21,15.76.39,15.76.91s-4.11,1-15.42,1.26c-6.22.13-13.67-.21-21.57-.21S45,5.57,39.1,5.44l-4.49-.1L31.4,5.22c-.89,1.8-1.91,3.86-2.53,5S27.84,11.84,27.67,11.77Z"/><path class="cls-1" d="M31.19,124.39c-.58.25-4.21-5.91-7.24-12.81s-4.67-12.78-4.1-13,3.41,5.11,6.44,12S31.76,124.13,31.19,124.39Z"/><path class="cls-1" d="M470,2.77,456.09,3,447,3.22c-6.54.13-13.9-.11-19.72.47-7.26.72-4.19,1.7,3.28,2,9.65.41,20.74,0,30.63.1l8.55.07,7.56.1,4.95,11.85q2.6,6.38,5.18,12.69l.27.71q3.58,8.52,7.19,17.12,3.46,8.06,6.93,16.15-3.27,7.5-6.54,15-3.46,8-6.81,16l-6,14.1-5.58,12.8-17.16-.13-18.48-.3c-1.37,0-13.53-.39-21.86-.4-27,0-27-.42-54-.46s-27.05.63-54.06.58l-54-.07c-27,0-27-.71-54-.75s-27.06.77-54.07.72-27-.9-54-.94-27,.24-54,.2a15.92,15.92,0,0,0-8.51,2.21c-2.3,1.12-2.49,2.14-.06,3.27a16.64,16.64,0,0,0,8.56,2l54-.27,54.05-.1c27,0,27-.3,54-.35l54,0c27,0,27.05.49,54.07.44,26.24,0,73.09-1.78,84.06-1.75,19.85,0,39.7.27,59.52.43l11.54.13,5.87,0,7.45,0q1.78-4.09,3.55-8.13c.95-2.21,1.87-4.41,2.76-6.58,4-9.75,7.54-19,11.77-28.86q2-4.58,4-9.14l4.32-9.72q-4.95-11.59-9.89-23.18c-3.22-7.52-6.46-15-9.81-22.53l-7.14-16Z"/><path class="cls-1" d="M288.31,4.48c0-.4,3.94-1,10.85-1.29,3.74-.17,7.54.21,11.22,0,4.46-.2,8.86-.45,13.39-.51,5.17-.07,10.35.06,15.52.1,9,.07,18-.12,27-.1,9.67,0,19.16.52,28.67.93,3.46.15,7.82.1,10.89.64.26,0,.54.11.54.2s.22.53,0,.58c-3,.66-7.67.33-11.29.49-3.36.14-7.36.36-11.91.47-3.67.09-7.73,0-12,.1l-12,.08c-3.88,0-7.89.25-12,.25s-8.13-.19-12-.21l-12-.13c-4.29-.06-8.28-.22-11.95-.31-4.55-.11-8.73.07-12.08-.08C292.26,5.44,288.31,4.87,288.31,4.48Z"/><path class="cls-1" d="M10.67,77.47c-.36.16-2.41-3.22-4.58-7.64-.36-.72-.72-1.5-1.1-2.34l-1.33-3,2.6-5.87c1.67-3.79,3.28-8,4.67-10.82,2.17-4.42,4.9-9,5.26-8.87s-2.34,6.32-4.12,10.92c-1.14,2.93-2.2,5.83-3.87,9.63L6.91,62.38c-.2.43-.39.84-.57,1.25s-.28.59-.42.87l1.47,3.74C9.17,72.83,11,77.32,10.67,77.47Z"/><path class="cls-2" d="M146.86,86.24l-1.8-.44c-.65-.17-1.24-.33-1.76-.5a.81.81,0,0,1-.3-.19c-.15-.12-.23-.2-.23-.25a12.47,12.47,0,0,0-1.39-.59,5.65,5.65,0,0,1-1.13-.52,2,2,0,0,1-.75-.82,3.62,3.62,0,0,1-.26-1.57v-.15a1.73,1.73,0,0,1,.18-.41,1.41,1.41,0,0,0,.19-.41,5.8,5.8,0,0,0,.14-1.42,10.83,10.83,0,0,1,.08-1.51,2,2,0,0,1,.11-.27,1,1,0,0,0,.11-.3,1.74,1.74,0,0,1,0-.18c0-.11,0-.22.05-.35l.06-.36a1.05,1.05,0,0,1,.07-.26s0-.14,0-.3,0-.32.05-.48l.06-.49c0-.15,0-.25,0-.29s0-.1,0-.22.05-.25.08-.38.06-.24.08-.36a1.88,1.88,0,0,0,0-.2,2.66,2.66,0,0,1,0-.28c0-.15,0-.31.07-.49l.06-.5a2,2,0,0,1,.06-.32,1.53,1.53,0,0,1,0-.3,2.22,2.22,0,0,1,.12-.39,2,2,0,0,1,.19-.35.32.32,0,0,1,.27-.15c.16,0,.31.15.43.47a6.15,6.15,0,0,1,.33,1.11c.09.42.17.85.24,1.26s.11.72.15.91,0,.35.08.69.06.68.09,1.06.07.72.1,1.05,0,.54,0,.67a1,1,0,0,1,.14.18.38.38,0,0,1,.08.19,6.68,6.68,0,0,1,.38,1,5,5,0,0,0,.4,1,3,3,0,0,0,.14.3c.08.13.15.27.24.41s.16.26.23.39l.18.28a1.1,1.1,0,0,1,.21.18c.11.11.16.18.16.22a.85.85,0,0,1,.11.21l.17.37c.06.14.13.26.19.38a.79.79,0,0,1,.09.2,2.87,2.87,0,0,0,.75.72,7.46,7.46,0,0,0,1,.55c.36.15.71.3,1.07.43l1,.39a2.56,2.56,0,0,0,.27.25c.13.13.22.19.27.19h1.15c.08,0,.29,0,.61.08s.53.08.61.08h.88a7,7,0,0,0,2-.28q.9-.29,1.89-.69l.61-.14a1.28,1.28,0,0,0,.61-.27,1.85,1.85,0,0,0,.28-.23l.47-.46c.17-.16.33-.33.49-.5l.32-.34c.09-.08.2-.21.35-.37s.29-.34.44-.5l.39-.46.2-.23a.59.59,0,0,0,.08-.2,3.82,3.82,0,0,1,.11-.38c0-.13.07-.26.11-.37a.66.66,0,0,1,.07-.21,5.76,5.76,0,0,1,.3-.64,4.23,4.23,0,0,0,.25-.47,2.54,2.54,0,0,0,.17-.51,3.67,3.67,0,0,0,.07-.75c0-.67,0-1.32-.05-1.94s-.07-1.27-.11-1.94a2.37,2.37,0,0,0-.5-1.06c-.25-.29-.49-.58-.72-.88,0,0-.1-.14-.23-.31s-.29-.35-.44-.56l-.44-.58a2,2,0,0,1-.23-.33,2.35,2.35,0,0,0-.39-.39,1.87,1.87,0,0,0-.35-.17l-.37-.12a2.53,2.53,0,0,1-.49-.25,4.08,4.08,0,0,1-.61-.63,1.62,1.62,0,0,0-.7-.53l-.23-.06-.38-.07-.37-.06-.21,0-.51-.19a3.07,3.07,0,0,1-.46-.18,1.74,1.74,0,0,0-.36-.25c-.19-.13-.4-.26-.62-.39l-.63-.38a2.37,2.37,0,0,0-.39-.2,7.45,7.45,0,0,0-1.82-.5A9,9,0,0,1,149,65a7.41,7.41,0,0,1-1.55-.69c-.49-.29-.95-.59-1.39-.91s-1-.6-1.45-.93a15,15,0,0,0-1.49-.94.19.19,0,0,0-.08-.14.23.23,0,0,0-.14-.08,25.75,25.75,0,0,1-2.37-4.48,13.08,13.08,0,0,1-.94-5v-.59a6.08,6.08,0,0,1,0-.61,2.19,2.19,0,0,1,.19-.64.85.85,0,0,0,.11-.21l.17-.37c.06-.14.13-.26.19-.38a.79.79,0,0,0,.09-.2,1.88,1.88,0,0,1,0-.2c0-.12,0-.24.07-.38s0-.26.06-.37a.59.59,0,0,1,.06-.21c0-.1.1-.23.16-.4a4.6,4.6,0,0,1,.22-.53,4.07,4.07,0,0,1,.28-.55,2,2,0,0,1,.34-.45,1.68,1.68,0,0,1,.24-.27l.43-.44.43-.42a1.3,1.3,0,0,0,.21-.25s.09,0,.14-.14a.46.46,0,0,0,.08-.26,3.33,3.33,0,0,1,1-1.36,16.78,16.78,0,0,1,1.5-1,.23.23,0,0,0,.16.06.05.05,0,0,0,.06-.06.29.29,0,0,0,.14-.08l.25-.18a4.2,4.2,0,0,1,.39-.27h.6l.4-.09.74-.21.75-.18a2.29,2.29,0,0,1,.45-.08h1.53a3.61,3.61,0,0,1,.44-.07l.73-.06.75-.06.46,0h.18a.38.38,0,0,1,.19.11.38.38,0,0,0,.19.11h1.22a3.08,3.08,0,0,1,1,.29q.58.27,1.17.6c.4.22.79.44,1.16.67s.69.41.94.53a.85.85,0,0,0,.29.14l.27.08a2,2,0,0,1,.53.42c.17.18.34.35.52.52a3.33,3.33,0,0,0,.56.43,1.19,1.19,0,0,0,.67.19.72.72,0,0,0,.64-.28,2,2,0,0,0,.31-.66,6.46,6.46,0,0,0,.18-.76,2.34,2.34,0,0,1,.18-.64.43.43,0,0,1,.13-.25c.08-.11.18-.22.28-.35l.3-.34a1.3,1.3,0,0,0,.17-.22.21.21,0,0,1,.16-.06h.06a.63.63,0,0,1,.61.44,2.25,2.25,0,0,1,.17.78v.34a2.4,2.4,0,0,1-.05.33c0,.16-.07.32-.11.5s-.08.34-.12.5a.81.81,0,0,1-.1.27,54.92,54.92,0,0,0-.46,7.18c0,.38,0,.75,0,1.11s0,.74,0,1.11c0,.13-.09.28-.14.46a3.74,3.74,0,0,1-.22.51,1.58,1.58,0,0,1-.33.42.56.56,0,0,1-.41.17.92.92,0,0,1-.57-.15,1.2,1.2,0,0,1-.32-.39,2.67,2.67,0,0,1-.17-.5,4.44,4.44,0,0,0-.15-.52q-.35-1-.69-2.22c-.23-.81-.46-1.53-.69-2.15a4.62,4.62,0,0,0-.52-.88c-.24-.33-.51-.67-.81-1s-.6-.67-.89-1-.53-.57-.72-.8a6.47,6.47,0,0,1-.59-.95,1.89,1.89,0,0,0-.72-.8l-.81-.39c-.31-.13-.64-.27-1-.39a8,8,0,0,0-1-.31,3.14,3.14,0,0,0-.85-.13,4.1,4.1,0,0,0-1.54.3,12.94,12.94,0,0,1-1.56.51l-.17,0-.33.06-.34.06-.25,0h-.78l-.16.13-.3.22a3.92,3.92,0,0,0-.32.25.89.89,0,0,0-.22.21,11.22,11.22,0,0,0-1.38,1.41,5.91,5.91,0,0,0-.83,1.36,6.08,6.08,0,0,0-.42,1.55,14.15,14.15,0,0,0-.12,2c0,.16,0,.39,0,.68s0,.6.09.93a7,7,0,0,0,.17.89,1.47,1.47,0,0,0,.3.59L147.64,56l.25.15a2.89,2.89,0,0,0,.35.19l.34.16.22.09.2.16c.12.08.24.17.38.25l.37.23.21.14a5.33,5.33,0,0,0,1.34.64,8.8,8.8,0,0,1,1.37.58l.36.14.55.24.55.23a3.27,3.27,0,0,1,.36.17,2,2,0,0,1,.25.13l.48.26.5.25a2.5,2.5,0,0,0,.33.14l.22,0,.4.05a3,3,0,0,1,.43.08l.26.07a1.08,1.08,0,0,1,.3.16l.26.19.43.2.61.3.59.29.37.21a11.16,11.16,0,0,1,3,2,14,14,0,0,1,2.34,2.9,15.77,15.77,0,0,1,1.55,3.43,12,12,0,0,1,.56,3.57V74c0,.21-.05.49-.08.86s-.07.73-.11,1.11-.08.71-.12,1a2.56,2.56,0,0,1-.1.5,5.8,5.8,0,0,1-.37,1.26,6.65,6.65,0,0,1-.61,1.11c-.24.36-.49.71-.75,1.06l-.8,1.1a.42.42,0,0,1-.06.14l-.12.23a2.07,2.07,0,0,1-.15.25.5.5,0,0,0-.07.16,1.41,1.41,0,0,1-.71.62,5.09,5.09,0,0,0-.82.47,1.14,1.14,0,0,1-.18.22l-.29.33-.3.31c-.09.1-.15.14-.17.14a6.7,6.7,0,0,1-1.1.6,9.3,9.3,0,0,1-1.09.37c-.37.11-.76.21-1.14.3s-.8.2-1.23.33-.79.25-1.11.37a3.21,3.21,0,0,1-1.18.19h-.62l-1.44-.14-2.17-.24-2.16-.23C147.61,86.34,147.13,86.28,146.86,86.24Z"/><path class="cls-2" d="M201.32,86.55h-1.68l-.49.08a6.61,6.61,0,0,0-.67.14l-.28.09-.28.1a.87.87,0,0,1-.19-.1l-.14-.06-.11,0h-.62c-.28,0-.52,0-.74,0a2,2,0,0,0-.73.17h-4.32a.4.4,0,0,1-.26-.14,1.59,1.59,0,0,1-.25-.33,2.33,2.33,0,0,1-.19-.39,1.1,1.1,0,0,1-.08-.33,1.34,1.34,0,0,1,.39-1,1.32,1.32,0,0,1,1-.41H196a3.11,3.11,0,0,0,1.16-.25,1.21,1.21,0,0,0,.78-.84c0-.12,0-.32,0-.58s0-.53.06-.83,0-.56.05-.82,0-.45,0-.55V79.36c0-.12,0-.41,0-.87s0-.95-.05-1.47,0-1-.06-1.47,0-.75,0-.87v-9a1.26,1.26,0,0,0,0-.21c0-.09,0-.19-.07-.31s0-.22-.06-.31a.44.44,0,0,0-.06-.17V61.36q-.12-4.12-.3-8.17T197.29,45l-.31-.72a.44.44,0,0,0-.19-.06l-.37-.07-.46-.06-.35,0c-.13,0-.34,0-.63-.05l-.95-.08-1-.06-.62,0a.51.51,0,0,1-.28.16l-.28.06-.27,0-.45-.08-.46-.08-.26,0-.38.09a4.72,4.72,0,0,1-.5.13,13,13,0,0,1-2.29.3,7.26,7.26,0,0,0-2.24.45,1.16,1.16,0,0,0-.22.19q-.15.15-.18.15c0,.07-.18.12-.41.16l-.37.06a1.88,1.88,0,0,0-.94.75c-.21.34-.43.68-.66,1a.54.54,0,0,1-.08.16l-.18.27a1.84,1.84,0,0,0-.19.25.42.42,0,0,0-.08.14,9.29,9.29,0,0,0-.55,1,10.27,10.27,0,0,1-.67,1.16,5.24,5.24,0,0,1-.8,1,1.31,1.31,0,0,1-.92.41.54.54,0,0,1-.43-.18,1,1,0,0,1-.24-.42,2.18,2.18,0,0,1-.09-.51c0-.18,0-.33,0-.46a3.36,3.36,0,0,1,.36-1.57,11.05,11.05,0,0,0,.64-1.58c0-.07.06-.23.11-.5s.11-.55.17-.85.13-.57.19-.84a3.54,3.54,0,0,0,.09-.5,2.43,2.43,0,0,1,.11-.28,1.27,1.27,0,0,0,.11-.28c0-.07,0-.23.05-.49s.07-.53.11-.81l.12-.81c.05-.26.08-.42.1-.49s.09-.47.14-.78a5.4,5.4,0,0,1,.23-.9,2,2,0,0,1,.46-.74,1,1,0,0,1,.79-.3h.1l.15.16c0,.06.12.17.22.33l.33.5.31.48a1,1,0,0,1,.14.25,5.16,5.16,0,0,0,.49.5l.51.5a1.77,1.77,0,0,0,.67.38,3.71,3.71,0,0,0,.82.15,8,8,0,0,0,.86,0q.44,0,.81,0l.48,0,.77.06.75.06a3.48,3.48,0,0,1,.47.07h19.15c.61.08,1.28.14,2,.18s1.45.07,2.14.07a9.1,9.1,0,0,0,.91,0l.81,0s.1,0,.19.11a.3.3,0,0,0,.18.11h.22a1.7,1.7,0,0,0,.39-.11,2.59,2.59,0,0,1,.39-.11h.38q.35,0,.66,0a4.57,4.57,0,0,0,1.28,0,2.24,2.24,0,0,0,.62-.2l.33-.19a2.62,2.62,0,0,0,.27-.19,4,4,0,0,0,.21-.61,6.52,6.52,0,0,1,.33-.83,3,3,0,0,1,.49-.7.7.7,0,0,1,.68-.23.64.64,0,0,0,.16.07l.27.11a1.74,1.74,0,0,0,.25.11c.07,0,.11.06.11.08a26.2,26.2,0,0,0,.4,3.45q.31,1.71.6,3.36a3.82,3.82,0,0,0,.23,1c.11.3.23.6.36.91s.23.61.33.93a4.09,4.09,0,0,1,.14,1.08s0,.12,0,.24,0,.23,0,.35a2.58,2.58,0,0,0-.05.36c0,.12,0,.21,0,.27,0,.4-.3.59-.78.59a.48.48,0,0,1-.3-.12,2.8,2.8,0,0,1-.28-.3,2.26,2.26,0,0,1-.23-.34c-.06-.12-.11-.19-.13-.24a.69.69,0,0,1-.09-.18l-.12-.33L222,50a.84.84,0,0,1-.06-.18.74.74,0,0,0-.08-.22c-.05-.1-.1-.15-.14-.15-.23-.38-.47-.76-.7-1.16s-.49-.79-.75-1.19a13.74,13.74,0,0,0-.83-1.1,6.53,6.53,0,0,0-1-.93,5.36,5.36,0,0,0-1.47-.65,10.66,10.66,0,0,0-1.59-.32,15,15,0,0,0-1.63-.09q-.81,0-1.56,0l-.33-.05-.5-.08-.48-.06-.28,0h-.5l-.75,0H208l-1,0a6.58,6.58,0,0,0-1,.13,2.86,2.86,0,0,0-.84.29,1.08,1.08,0,0,0-.49.55v1.16l-.21.42a1.27,1.27,0,0,0-.16.36l-.06.12a.13.13,0,0,0,0,.1v.15a.31.31,0,0,0,0,.13.33.33,0,0,0,.06.12c0,.09,0,.23,0,.42s0,.42,0,.66,0,.46.06.66,0,.34,0,.42V62.55a3.33,3.33,0,0,1,.18.84c0,.28,0,.54,0,.79v.62a5.86,5.86,0,0,1-.12,1.24,5.24,5.24,0,0,0-.13,1.14c0,.08,0,.17,0,.28s0,.16,0,.18a2.75,2.75,0,0,0,0,.29q0,.21.06.48t.06.48a1.36,1.36,0,0,0,.06.29v6.31a3.5,3.5,0,0,0,.11.44,2.22,2.22,0,0,1,.11.43,1,1,0,0,1-.11.32,1.27,1.27,0,0,0-.11.31v1.94a2.35,2.35,0,0,0-.14.5,2.93,2.93,0,0,0-.07.5v.21c0,.19,0,.45,0,.77s0,.64.06.94,0,.57.06.81a1.87,1.87,0,0,0,.06.42c0,.17,0,.34.05.52a1.71,1.71,0,0,0,.09.48,1,1,0,0,0,.27.38.84.84,0,0,0,.53.15h4.31a1.34,1.34,0,0,1,1,.39,1.27,1.27,0,0,1,.39.93,1,1,0,0,1-.42.92,2,2,0,0,1-1.05.26h-.91l-.46,0c-.25,0-.52-.08-.8-.13l-.78-.12-.46,0h-2l-.22,0-.43-.08-.43-.08-.27,0Z"/><path class="cls-2" d="M228.22,85.86a1,1,0,0,1,.19-.53,1.34,1.34,0,0,1,.38-.4l.46-.05a2,2,0,0,0,.54-.11,7.68,7.68,0,0,0,1.37-.55l1.31-.67c.46-.19.86-.33,1.19-.44a4.86,4.86,0,0,0,.89-.37,3.41,3.41,0,0,0,.75-.6,4.94,4.94,0,0,0,.74-1.06,2.63,2.63,0,0,0,.26-1c0-.42.07-.74.11-1a.58.58,0,0,1,.11-.17.58.58,0,0,0,.11-.17c0-.08.06-.2.11-.35a1.13,1.13,0,0,0,.08-.28s0-.09,0-.22,0-.25,0-.37l.06-.36a1.88,1.88,0,0,0,0-.2l.1-.16.06-.14.06-.14a7.34,7.34,0,0,0,.42-.81c.16-.34.31-.69.46-1.07s.28-.73.4-1.07a7.83,7.83,0,0,0,.28-.89,15,15,0,0,1,.58-1.88c.24-.62.46-1.25.64-1.87.09-.42.17-.87.25-1.35s.18-.92.28-1.34a1.92,1.92,0,0,0,.19-.49c.09-.26.15-.43.19-.51a2.33,2.33,0,0,1,.22-.3c.12-.15.19-.25.19-.3s0-.07,0-.17,0-.19,0-.31,0-.22.05-.31a1.6,1.6,0,0,0,0-.17,3.19,3.19,0,0,0,.14-.39c0-.18.1-.35.14-.52s.08-.32.11-.45,0-.22,0-.24a1.11,1.11,0,0,1,.09-.23,4.48,4.48,0,0,0,.19-.44c.06-.16.12-.3.17-.44s.09-.22.11-.26a1.42,1.42,0,0,0,.19-.41c.08-.23.17-.47.25-.73s.16-.51.23-.75a1.79,1.79,0,0,0,.11-.46,5.85,5.85,0,0,0,.27-.81c.09-.33.2-.67.33-1a6.61,6.61,0,0,1,.43-1,2,2,0,0,1,.57-.68,7.17,7.17,0,0,1,.4-1.48c.19-.47.39-.93.6-1.37a11.6,11.6,0,0,0,.54-1.38,4.55,4.55,0,0,0,.24-1.48,2.29,2.29,0,0,0-.2-1,2.74,2.74,0,0,0-.44-.6l-.44-.46a.8.8,0,0,1-.2-.59,1.06,1.06,0,0,1,0-.2,1.26,1.26,0,0,0,0-.21,6.24,6.24,0,0,1,1-.44q.56-.18,1.11-.42a3.87,3.87,0,0,0,1-.59,1.79,1.79,0,0,0,.6-.92s.06-.16.12-.35.13-.38.19-.59.12-.41.19-.59.1-.31.12-.35a1.44,1.44,0,0,1,.27-.56.6.6,0,0,1,.51-.28h.05l0,0h.06a1.69,1.69,0,0,1,.23.2c.1.1.2.2.32.3a2.69,2.69,0,0,1,.29.3.88.88,0,0,1,.16.2s.09.07.14.2a1.1,1.1,0,0,1,.08.33,3.26,3.26,0,0,0,.09.53c.06.27.13.56.19.86s.12.59.19.86a3.54,3.54,0,0,1,.09.5c0,.08.08.28.19.59s.21.65.33,1l.32,1a2.21,2.21,0,0,1,.16.58c.19.66.38,1.38.56,2.15s.39,1.49.6,2.16a.61.61,0,0,0,.08.2c0,.12.11.24.18.38l.22.37a1.08,1.08,0,0,0,.14.2,3.87,3.87,0,0,1,.3,1.27,4.17,4.17,0,0,0,.3,1.3c.41,1.31.84,2.58,1.28,3.81s.83,2.5,1.18,3.81a2.07,2.07,0,0,1,.1.38c0,.18.08.39.12.61s.09.42.13.61a2.38,2.38,0,0,1,.06.34l.13.27.2.42.19.4a1.06,1.06,0,0,1,.07.22,1.52,1.52,0,0,0,0,.27c0,.13,0,.28.06.44s0,.3.06.43a2.57,2.57,0,0,1,0,.27l.14.56c.08.29.16.6.25.92s.18.63.27.92.13.48.15.57c.23.83.5,1.65.8,2.47a21.26,21.26,0,0,1,.77,2.56c.16.79.33,1.56.48,2.3a13.87,13.87,0,0,0,.67,2.2c.13.31.24.65.35,1a2.86,2.86,0,0,0,.43.93,2.74,2.74,0,0,0,.9.86,5.37,5.37,0,0,0,1.15.51,7.52,7.52,0,0,0,1.25.27c.43.05.82.09,1.17.11a.79.79,0,0,1,.58.48,2.38,2.38,0,0,1,.11.73.22.22,0,0,1,0,.08.2.2,0,0,0,0,.11.55.55,0,0,0,0,.16l-.41.22h-2.37a1.26,1.26,0,0,1-.3-.11,1.54,1.54,0,0,0-.27-.11h-.15a4,4,0,0,0-.94.11,4.11,4.11,0,0,1-1,.11,7.76,7.76,0,0,1-1.26-.11,8.05,8.05,0,0,0-1.3-.11,2.08,2.08,0,0,0-.66.11,2,2,0,0,1-.65.11,13.13,13.13,0,0,1-1.67-.11,14,14,0,0,0-1.74-.11,15.85,15.85,0,0,0-2.64.22,17.54,17.54,0,0,1-2.73.22h-.94a2.19,2.19,0,0,1-.42-.5,1.16,1.16,0,0,1-.18-.63.68.68,0,0,1,.46-.62,4.53,4.53,0,0,1,1.14-.35c.46-.08,1-.15,1.55-.2s1.13-.12,1.67-.2a7.8,7.8,0,0,0,1.48-.38,2.22,2.22,0,0,0,1-.69V82.05a.67.67,0,0,1-.08-.23c0-.14-.07-.29-.11-.47a5.16,5.16,0,0,0-.13-.5q-.06-.24-.09-.39s-.06-.15-.12-.32-.13-.34-.21-.54-.13-.38-.18-.55a1.19,1.19,0,0,1-.08-.31c0-.06-.06-.2-.11-.41l-.17-.69-.19-.7a2.67,2.67,0,0,1-.1-.42,1.14,1.14,0,0,1-.1-.28l-.19-.55a5.3,5.3,0,0,1-.19-.56,2.31,2.31,0,0,0-.11-.33c-.06-.23-.12-.5-.19-.83s-.14-.65-.23-1a5.38,5.38,0,0,0-.33-.91,1.3,1.3,0,0,0-.47-.59h-2.72a1.43,1.43,0,0,0-.31.11,1.43,1.43,0,0,1-.31.11h-.16l-.2,0-.38-.08-.37-.08-.2,0-.19,0-.31.08-.44.11h-4l-.64,0-.64.06-.42.06-.09.07a.14.14,0,0,0-.08.06.05.05,0,0,1-.05,0c-.42,1.31-.82,2.65-1.2,4s-.76,2.7-1.11,4a6.32,6.32,0,0,1-.36,1.06,2.8,2.8,0,0,0-.24,1.1,1.75,1.75,0,0,0,.21.81,7.81,7.81,0,0,0,.39.72l.37,0,.6.08.59.08.38,0,.2.06.37.13.38.11.2,0a5.73,5.73,0,0,0,.86.13,5,5,0,0,1,.83.12,1.28,1.28,0,0,1,.62.33,1,1,0,0,1,.25.73c0,.61-.12,1-.39,1.1a2.6,2.6,0,0,1-1.07.19h-1.66l-.27,0-.42-.07-.42-.08-.27,0h-3.68l-.27,0-.44-.08-.43-.08-.27,0h-.53a3.73,3.73,0,0,0-.5,0,1.63,1.63,0,0,0-.53.19h-3.28l-.32.14a.83.83,0,0,1-.25.08h-.15a1.38,1.38,0,0,1-.42-.1,3.54,3.54,0,0,1-.53-.23,1.86,1.86,0,0,1-.47-.35A.55.55,0,0,1,228.22,85.86Zm15.22-17.12c.56.08,1.17.15,1.81.2s1.3.09,2,.11l1.94,0h2.39a1.81,1.81,0,0,0,.78-.14c.21-.09.31-.33.31-.7a2.68,2.68,0,0,0-.3-1.22,7.06,7.06,0,0,1-.48-1.19c-.23-.79-.44-1.59-.64-2.4a16.14,16.14,0,0,0-.74-2.32,1.59,1.59,0,0,0-.18-.39,3.48,3.48,0,0,1-.22-.39A2.53,2.53,0,0,1,250,60c0-.19-.07-.4-.11-.63s-.08-.43-.11-.62a3.19,3.19,0,0,0-.08-.38,1.52,1.52,0,0,0-.09-.26,4.68,4.68,0,0,0-.24-.53c-.09-.2-.18-.4-.26-.61s-.15-.38-.19-.5-.14-.3-.19-.39a2,2,0,0,0-.12-.25.52.52,0,0,1-.06-.14,1.89,1.89,0,0,1-.22-.63c0-.23-.09-.45-.14-.66a4.14,4.14,0,0,0-.21-.59,1.13,1.13,0,0,0-.37-.47h-.16c-.29,0-.53.24-.73.72a11.19,11.19,0,0,0-.52,1.63c-.14.6-.26,1.19-.36,1.76a9.28,9.28,0,0,1-.23,1.14c0,.13-.11.34-.19.63a2,2,0,0,1-.19.53c-.23.89-.47,1.79-.73,2.67s-.49,1.78-.67,2.67c0,0,0,.1,0,.24a3.56,3.56,0,0,1-.05.43c0,.16,0,.31-.06.44a2.57,2.57,0,0,0,0,.27,1.25,1.25,0,0,1-.2.37,2.78,2.78,0,0,0-.21.27,1.48,1.48,0,0,0-.15.31,1.44,1.44,0,0,0-.06.45v.22a1.25,1.25,0,0,0,.06.42A.4.4,0,0,0,243.44,68.74Z"/><path class="cls-2" d="M288.87,86.61a10.65,10.65,0,0,1-2.39.24,19,19,0,0,0-2.39.11s-.09.1-.26.17a1.62,1.62,0,0,1-.33.11h-2.34l-.32-.13a4.83,4.83,0,0,1-.45-.23l-.45-.27a1.34,1.34,0,0,1-.32-.22,1.76,1.76,0,0,0,0-.23,1.58,1.58,0,0,1,0-.23,1,1,0,0,1,.27-.79,1.37,1.37,0,0,1,.79-.31l.38,0,.78-.06.86-.06c.28,0,.49-.05.64-.07H284l.15.13a.29.29,0,0,0,.16.09.75.75,0,0,0,.5-.22,2.22,2.22,0,0,0,.45-.51c.14-.2.26-.4.38-.61a2.41,2.41,0,0,1,.3-.47V69.33a2.39,2.39,0,0,1-.07-.5l-.06-.78c0-.27,0-.52,0-.76s0-.42,0-.52V63a1.35,1.35,0,0,1-.06-.31,4.65,4.65,0,0,1-.05-.57c0-.2,0-.41-.05-.6s0-.35-.06-.46a17.59,17.59,0,0,1,.11-1.94,16.36,16.36,0,0,0,.11-1.84V56a5.41,5.41,0,0,1-.06-.64c0-.35,0-.72-.05-1.11s0-.77-.05-1.11a6.25,6.25,0,0,0-.06-.67V52a1,1,0,0,0,0-.25,1.63,1.63,0,0,0-.19-.38V47.74a.66.66,0,0,1-.14-.28,2.46,2.46,0,0,1,0-.28,2.55,2.55,0,0,1,.08-.64,3.1,3.1,0,0,0,.08-.74c0-.14,0-.37,0-.69s0-.63-.06-1a4.09,4.09,0,0,0-.17-.86.66.66,0,0,0-.31-.44h-2.38l-.25,0a3.39,3.39,0,0,1-.39-.08l-.4-.07a1.68,1.68,0,0,1-.3-.07,1.65,1.65,0,0,1-.33-.06,3,3,0,0,1-.47-.17,2,2,0,0,1-.4-.25.38.38,0,0,1-.18-.3,3.26,3.26,0,0,1,.22-1.31,2.7,2.7,0,0,1,.92-.19l1.11,0h6.19a5.66,5.66,0,0,1,1.14-.19l1.17,0h2.75a3.06,3.06,0,0,1,.54.11l.46.11a2.05,2.05,0,0,0,.38-.11,1.69,1.69,0,0,1,.44-.11l.36,0L296,40l.73-.05h.55a.29.29,0,0,0,.16,0h.09l.06,0,.16,0a.34.34,0,0,0,.15,0c1,.06,2,.1,3,.11a19.16,19.16,0,0,1,3,.26,2.43,2.43,0,0,1,.76.28,2.25,2.25,0,0,0,.8.28,1.62,1.62,0,0,0,.3.1l.48.12.48.13.3.09a.69.69,0,0,1,.35.13,1.51,1.51,0,0,1,.23.21l.23.29a2.25,2.25,0,0,0,.35.31l.4.22a1.29,1.29,0,0,0,.44.15,7.23,7.23,0,0,1,1,.91,12.57,12.57,0,0,1,1,1.23q.48.68.87,1.35a6.65,6.65,0,0,1,.58,1.23,4.38,4.38,0,0,1,.36,1.38c.05.5.08,1,.08,1.4a17.5,17.5,0,0,1-.14,2.11,21.66,21.66,0,0,1-.42,2.22,13.73,13.73,0,0,1-.74,2.13,8.11,8.11,0,0,1-1.08,1.79l-2.37,2.35s-.11.12-.31.25a2.29,2.29,0,0,0-.47.34,3.57,3.57,0,0,1-.88.39c-.39.14-.79.28-1.17.44a5.73,5.73,0,0,0-1,.53.82.82,0,0,0-.43.67,1.7,1.7,0,0,0,.28.85c.19.31.4.63.65,1s.51.66.77,1,.47.6.64.85c.35.56.68,1.13,1,1.7s.62,1.11,1,1.61l.12.16.22.28a3.74,3.74,0,0,0,.27.31l.23.25a6.74,6.74,0,0,1,.77,1.25,7.72,7.72,0,0,0,.76,1.28c.15.19.32.4.52.63s.39.46.59.71l.58.75c.19.25.34.48.47.69a1.84,1.84,0,0,0,.11.28,2.43,2.43,0,0,1,.11.28,3.84,3.84,0,0,0,.5,1l.64.91.65.9a3.85,3.85,0,0,1,.52,1l3,3a2.37,2.37,0,0,0,1,.57,12.36,12.36,0,0,0,1.33.31L322,85a5.21,5.21,0,0,1,1.19.28.72.72,0,0,1,.18.53.81.81,0,0,1-.43.81,1.94,1.94,0,0,1-.88.22c-1,0-1.94,0-2.87,0l-2.82-.09-2.83-.09c-.94,0-1.92,0-2.92,0a5.93,5.93,0,0,1-1.34-1.61c-.36-.61-.7-1.25-1-1.92-.59-1.19-1.22-2.39-1.91-3.59A40.39,40.39,0,0,0,304.12,76a2.57,2.57,0,0,0-.18-.28l-.35-.47c-.12-.17-.25-.33-.37-.49l-.28-.32a5.3,5.3,0,0,1-.58-1,3.82,3.82,0,0,0-.58-.94l-.34-.31a1.27,1.27,0,0,1-.28-.29s0-.11-.07-.29a2,2,0,0,0-.09-.33l-.11-.14-.19-.25a1.79,1.79,0,0,0-.22-.25l-.14-.14q-.46-.75-1.08-1.86a16.2,16.2,0,0,0-1.39-2.13,10.1,10.1,0,0,0-1.7-1.75,3.2,3.2,0,0,0-2.05-.73,2.05,2.05,0,0,0-.5.08,1.81,1.81,0,0,0-.51.23,1.85,1.85,0,0,0-.41.38.75.75,0,0,0-.17.47v9.65a.93.93,0,0,1,.13.33l.15.64a.65.65,0,0,0-.09.33c0,.18,0,.36-.06.56s-.05.39-.07.56a1.36,1.36,0,0,1-.06.33v0a6,6,0,0,0,.14,1.3,6,6,0,0,1,.14,1.3v1.25a.32.32,0,0,0-.11.2,3.82,3.82,0,0,0-.08.39c0,.15,0,.28-.06.41s0,.2,0,.22,0,.08,0,.2,0,.24.06.39.05.29.08.42a1.4,1.4,0,0,0,.11.33l.27.17.45.33a5.8,5.8,0,0,0,.52.34,1.68,1.68,0,0,0,.48.22l.3,0,.48.11.49.11.29,0h2.16a1.66,1.66,0,0,1,.91.41,1.06,1.06,0,0,1,.37.81.77.77,0,0,1-.17.53,1.17,1.17,0,0,1-.45.29,2.9,2.9,0,0,1-.6.11h-.59c-.81,0-1.61,0-2.39-.08s-1.56-.13-2.33-.23Zm3.66-24.53a.89.89,0,0,0,.27.47.67.67,0,0,0,.48.31h0l.19,0,.33-.06.31-.06.17,0,1.24-.24,1.14-.23c.37-.09.75-.19,1.12-.32s.77-.27,1.19-.43l.62-.11a1,1,0,0,0,.57-.3A5.19,5.19,0,0,0,301.31,60c.33-.42.68-.84,1-1.23a4.17,4.17,0,0,0,.32-.35c.12-.14.25-.29.39-.43l.34-.39.17-.21a12.68,12.68,0,0,0,1.35-2.89,10.53,10.53,0,0,0,.43-3.11,9.31,9.31,0,0,0-1.17-4.72A15.19,15.19,0,0,0,301,42.86a1.07,1.07,0,0,1-.19-.11,1,1,0,0,1-.19-.14,19.67,19.67,0,0,0-2.76-.47c-.91-.08-1.83-.18-2.77-.31h-.56l-.34.06-.53.07-.54.06a1.35,1.35,0,0,0-.31.06,1.25,1.25,0,0,0-.73,1A6.71,6.71,0,0,0,292,44.3v.47q0,3.43.23,6.8t.17,6.79l.16.38Z"/><path class="cls-2" d="M351.15,86.55h-1.69l-.48.08c-.31.05-.53.1-.68.14l-.28.09a1.33,1.33,0,0,1-.28.1,1.18,1.18,0,0,1-.19-.1l-.14-.06-.11,0h-.62c-.27,0-.52,0-.73,0a2,2,0,0,0-.74.17H340.9a.42.42,0,0,1-.27-.14,2.85,2.85,0,0,1-.25-.33,3.39,3.39,0,0,1-.18-.39.86.86,0,0,1-.08-.33,1.34,1.34,0,0,1,.39-1,1.31,1.31,0,0,1,1-.41h4.31a3.07,3.07,0,0,0,1.16-.25,1.17,1.17,0,0,0,.78-.84c0-.12,0-.32,0-.58s0-.53.07-.83,0-.56,0-.82,0-.45,0-.55V79.36c0-.12,0-.41,0-.87s0-.95,0-1.47,0-1-.07-1.47,0-.75,0-.87v-9a1.26,1.26,0,0,0,0-.21c0-.09,0-.19-.06-.31s0-.22-.06-.31a.6.6,0,0,0-.07-.17V61.36q-.12-4.12-.29-8.17c-.12-2.7-.15-5.44-.11-8.23l-.32-.72a.44.44,0,0,0-.18-.06l-.38-.07-.45-.06-.36,0c-.13,0-.33,0-.63-.05l-.95-.08-1-.06-.63,0A.48.48,0,0,1,342,44a1.39,1.39,0,0,1-.28.06l-.26,0-.46-.08-.45-.08-.27,0-.37.09c-.23.07-.4.11-.5.13a13.06,13.06,0,0,1-2.3.3,7.2,7.2,0,0,0-2.23.45.91.91,0,0,0-.22.19c-.11.1-.17.15-.19.15s-.18.12-.41.16l-.37.06a1.93,1.93,0,0,0-.94.75l-.65,1a.54.54,0,0,1-.08.16l-.19.27c-.07.09-.14.17-.19.25a.42.42,0,0,0-.08.14q-.24.38-.54,1a10.27,10.27,0,0,1-.67,1.16,5.67,5.67,0,0,1-.8,1,1.31,1.31,0,0,1-.92.41.54.54,0,0,1-.44-.18,1.06,1.06,0,0,1-.23-.42,1.78,1.78,0,0,1-.1-.51c0-.18,0-.33,0-.46a3.36,3.36,0,0,1,.36-1.57,12.36,12.36,0,0,0,.64-1.58c0-.07.05-.23.11-.5s.1-.55.17-.85.12-.57.18-.84a2.83,2.83,0,0,0,.1-.5,1.27,1.27,0,0,1,.11-.28,2.43,2.43,0,0,0,.11-.28c0-.07,0-.23,0-.49s.07-.53.11-.81.09-.55.13-.81.07-.42.09-.49.09-.47.14-.78a4.59,4.59,0,0,1,.24-.9,1.84,1.84,0,0,1,.45-.74,1.07,1.07,0,0,1,.8-.3h.09l.16.16.22.33.32.5c.12.18.22.34.32.48a1.52,1.52,0,0,1,.14.25,4.74,4.74,0,0,0,.48.5l.52.5a1.7,1.7,0,0,0,.67.38,3.62,3.62,0,0,0,.81.15,8.12,8.12,0,0,0,.86,0q.44,0,.81,0l.49,0,.76.06.75.06a3.22,3.22,0,0,1,.47.07h19.16q.9.12,2,.18c.74,0,1.46.07,2.14.07a8.84,8.84,0,0,0,.91,0l.81,0a.38.38,0,0,1,.19.11.32.32,0,0,0,.19.11h.22a1.7,1.7,0,0,0,.39-.11,2.59,2.59,0,0,1,.39-.11h.37q.35,0,.66,0a4.68,4.68,0,0,0,.66,0,4.44,4.44,0,0,0,.62,0,2.19,2.19,0,0,0,.63-.2l.32-.19a1.39,1.39,0,0,0,.27-.19,5.2,5.2,0,0,0,.22-.61,4.48,4.48,0,0,1,.33-.83,2.71,2.71,0,0,1,.48-.7.72.72,0,0,1,.69-.23.52.52,0,0,0,.15.07l.27.11a2.41,2.41,0,0,0,.25.11c.07,0,.11.06.11.08a26.21,26.21,0,0,0,.41,3.45c.2,1.14.4,2.26.59,3.36a4.25,4.25,0,0,0,.23,1l.36.91a7.32,7.32,0,0,1,.33.93,3.71,3.71,0,0,1,.14,1.08s0,.12,0,.24,0,.23-.05.35,0,.25-.05.36,0,.21,0,.27c0,.4-.31.59-.78.59a.44.44,0,0,1-.3-.12,2.06,2.06,0,0,1-.28-.3,2.36,2.36,0,0,1-.24-.34l-.12-.24a1,1,0,0,1-.1-.18l-.12-.33a1.81,1.81,0,0,0-.13-.31.84.84,0,0,1-.06-.18.53.53,0,0,0-.08-.22c-.05-.1-.1-.15-.14-.15l-.7-1.16c-.24-.39-.49-.79-.75-1.19a11.72,11.72,0,0,0-.83-1.1,5.69,5.69,0,0,0-1-.93,5.23,5.23,0,0,0-1.47-.65,10.66,10.66,0,0,0-1.59-.32,14.66,14.66,0,0,0-1.62-.09c-.55,0-1.07,0-1.57,0L361.7,44l-.5-.08-.49-.06-.28,0h-.5l-.75,0H357.8l-1,0a6.43,6.43,0,0,0-1,.13,2.83,2.83,0,0,0-.85.29,1,1,0,0,0-.48.55v1.16l-.22.42a1.72,1.72,0,0,0-.16.36l-.06.12a.13.13,0,0,0,0,.1v.15a.31.31,0,0,0,0,.13.33.33,0,0,0,.06.12c0,.09,0,.23,0,.42s0,.42,0,.66,0,.46.06.66,0,.34,0,.42V62.55a3.37,3.37,0,0,1,.19.84c0,.28,0,.54,0,.79v.62a5.25,5.25,0,0,1-.13,1.24,5.24,5.24,0,0,0-.12,1.14c0,.08,0,.17,0,.28s0,.16,0,.18a2.75,2.75,0,0,0,0,.29q0,.21.06.48c0,.18,0,.34.07.48a1.36,1.36,0,0,0,.06.29v6.31a2.23,2.23,0,0,0,.11.44,3.59,3.59,0,0,1,.11.43,1.28,1.28,0,0,1-.11.32.93.93,0,0,0-.11.31v1.94a2.35,2.35,0,0,0-.14.5,3.34,3.34,0,0,0-.08.5v.21c0,.19,0,.45,0,.77s0,.64.06.94,0,.57.07.81a1.87,1.87,0,0,0,.06.42c0,.17,0,.34.05.52a1.71,1.71,0,0,0,.09.48.89.89,0,0,0,.26.38.87.87,0,0,0,.54.15h4.31a1.33,1.33,0,0,1,1,.39,1.27,1.27,0,0,1,.39.93,1,1,0,0,1-.42.92,2,2,0,0,1-1.05.26h-.9l-.47,0c-.25,0-.52-.08-.8-.13l-.78-.12-.45,0h-2l-.22,0-.42-.08-.44-.08-.26,0Z"/></g></svg>