<svg xmlns="http://www.w3.org/2000/svg" viewBox="0 0 30 30"><defs><style>.cls-1{fill:#ffcc45;}.cls-2{fill:#fff78d;}.cls-3{fill:#382b18;}</style></defs><g id="content"><circle class="cls-1" cx="15" cy="15" r="15"/><path class="cls-2" d="M5,15.21l.17-.09L5.46,15l.31-.28.52-.44c.25-.2.17-.17.39-.34s.06-.05.06-.05,0,0,.16-.11a1.6,1.6,0,0,1,.31-.11l.36-.31.3.56.39.25.11.34v.32a2.64,2.64,0,0,0,.33.14c.12,0-.11.14.12.28a2.77,2.77,0,0,1,.41.33s-.17.25,0,.3l.17.06.16.19.23.45.19.27v.25l.47.72.28.34a.45.45,0,0,0,.47,0l.19.34.25.11v.25l.47.27s0,.45.22.22l.5-.44.28-.36.53-.58.61-.28v-.16l.55-.39s0-.47.2-.53a1.11,1.11,0,0,0,.36-.28l.3-.22s.39-.27.5-.36l.11-.08.19-.22.61-.36a.77.77,0,0,0,.25-.17l.06-.08.33-.31.75-.44.28-.25.27-.42a1.91,1.91,0,0,0,.25-.13,3.92,3.92,0,0,0,.45-.34l.11-.08.3-.22.17-.2a.32.32,0,0,1,.14-.26,1.48,1.48,0,0,0,.22-.15l.36-.39.61-.39.52-.47.16-.19.26-.22L23,10l.47-.33.42-.28a2.76,2.76,0,0,0,.89-.55l.19.72.25.14v1.22l-.25.52v.28l-.33.11-.09.28-.47.39-.27.24-.37.31.09.5c-.42.36-.39.08-.39.08l-.36.39a3.93,3.93,0,0,1-.64.5l-.33.39-.44.47s0,.14-.25.27-.06,0-.28.14l-.22.14-.2.08-.41.42-.42.39c-.55.36-.33.05-.55.36s-.17.16-.17.16l0,.14-.53.5-.36.25-.47.22-.08.25A4.66,4.66,0,0,1,17,19l-.14.08-.19.07-1,1-.08.28a4.36,4.36,0,0,0-.58.44l-.23.22-.27.22-.47.45-.23.36-.58.55-.3.25s-.2.11-.28.17l-.25.16c-.08.06-.14.34-.14.34s-.22.05-.28.16l-.05.11a2.3,2.3,0,0,1-.19.17l-.09.05-.33-.38a2.2,2.2,0,0,0-.44-.59s-.39,0-.42-.08l0-.08-.19-.14-.47-.25L9.29,22l-.11-.25-.36-.33a2,2,0,0,1-.36-.36c-.06-.11-.17-.14-.28-.28l-.11-.14s.29,0,.12-.33a.26.26,0,0,0-.39-.12,1.52,1.52,0,0,0-.22-.36,1.66,1.66,0,0,0-.36-.25c-.3-.25-.16-.12-.3-.25l-.14-.14h0L6.39,19a3.91,3.91,0,0,0-.29-.71L6,18.19,5.77,18l-.2-.44-.36-.25A1.34,1.34,0,0,1,5,17c-.08-.14-.53-.21-.53-.21l-.14-.27L4,16.2l.19-.13L4.35,16l.09-.14c.33-.2.14,0,.33-.2A.86.86,0,0,0,5,15.21Z"/><path class="cls-3" d="M5,13.82l.17-.08.27-.17.31-.27.52-.45c.25-.19.17-.16.39-.33s.06-.06.06-.06,0,0,.16-.11a1.6,1.6,0,0,1,.31-.11l.36-.3.3.55.39.25.11.35v.32a1.83,1.83,0,0,0,.33.13c.12,0-.11.14.12.28a2.77,2.77,0,0,1,.41.33s-.17.25,0,.31l.17,0,.16.2.23.44.19.28v.25l.47.72.28.33a.46.46,0,0,0,.47,0l.19.33.25.11v.25l.47.28s0,.44.22.22l.5-.44.28-.36.53-.59.61-.27v-.17l.55-.39s0-.47.2-.52a1.25,1.25,0,0,0,.36-.29l.3-.21.5-.36.11-.09.19-.22.61-.36a.7.7,0,0,0,.25-.16l.06-.09.33-.3.75-.45.28-.25L19,12a1.86,1.86,0,0,0,.25-.14c.22-.14.34-.25.45-.33s-.2.14.11-.09l.3-.22.17-.19a.32.32,0,0,1,.14-.26,2,2,0,0,0,.22-.16l.36-.38.61-.39.52-.47.16-.2.26-.22.47-.3.47-.34L23.92,8a2.72,2.72,0,0,0,.89-.56l.19.72.25.14V9.54l-.25.53v.27l-.33.11-.09.28-.47.39-.27.25-.37.3.09.5c-.42.36-.39.09-.39.09l-.36.38a3.93,3.93,0,0,1-.64.5l-.33.39L21.4,14s0,.14-.25.28-.06,0-.28.14l-.22.14-.2.08-.41.41-.42.39c-.55.36-.33.06-.55.36s-.17.17-.17.17l0,.14-.53.5-.36.25-.47.22-.08.25a3.46,3.46,0,0,1-.39.3l-.14.09-.19.07-1,1-.08.28a4.36,4.36,0,0,0-.58.44l-.23.23L14.5,20l-.47.44-.23.36-.58.56-.3.24-.28.17-.25.17c-.08.05-.14.33-.14.33s-.22.06-.28.17l-.05.11a1.43,1.43,0,0,1-.19.16l-.09.06-.33-.39a2.27,2.27,0,0,0-.44-.58s-.39,0-.42-.08l0-.09-.19-.14-.47-.25-.47-.61-.11-.24L8.82,20a2,2,0,0,1-.36-.36c-.06-.11-.17-.14-.28-.27l-.11-.14s.29-.06.12-.34a.27.27,0,0,0-.39-.12,1.52,1.52,0,0,0-.22-.36,2.17,2.17,0,0,0-.36-.25,2.45,2.45,0,0,1-.3-.25l-.14-.14h0l-.39-.16a3.91,3.91,0,0,0-.29-.71L6,16.8l-.22-.22-.2-.44-.36-.25A1.34,1.34,0,0,1,5,15.64c-.08-.14-.53-.21-.53-.21l-.14-.28L4,14.82c.28-.19.19-.14.19-.14l.14-.11.09-.14c.33-.19.14,0,.33-.19A.92.92,0,0,0,5,13.82Z"/></g></svg>