<svg xmlns="http://www.w3.org/2000/svg" viewBox="0 0 400 100"><defs><style>.cls-1{fill:#382b18;}.cls-2{fill:#ffcc45;}</style></defs><g id="content"><polygon class="cls-1" points="390.5 95 39.97 95 20.24 50 39.97 5 390.5 5 390.5 95"/><path class="cls-1" d="M306.54,5.16c0,.18-2,.39-5.4.58s-8,.36-13.33.48-11.39,0-18.16,0c-5.65,0-11.74.26-18.1.26S239.14,6.08,233.48,6c-6.77,0-13.08.41-18.26.3C204.65,6.11,198,5.52,198,5.16s6.65-1,17.22-1.18c5.19-.11,11.39-.19,18.16-.25,5.65,0,11.8.25,18.17.25L269.66,4c6.76.06,13-.13,18.19,0s10,.31,13.31.52S306.54,5,306.54,5.16Z"/><path class="cls-1" d="M385.89,5.06c0,.53-3.71,1.09-12.22,1.29-4.53.11-10.07.11-16,.11S346.09,6.08,341.33,6c-8.74-.21-12.12-.39-12.12-.91s3.16-1,11.86-1.26c4.78-.13,10.51.21,16.58.21s11.28-.08,15.82,0C381.94,4.29,385.89,4.54,385.89,5.06Z"/><path class="cls-1" d="M390.79,95c-.63,0-1.49-5.46-1.49-11.25s.86-10.44,1.49-10.44,1.06,4.65,1.06,10.44S391.41,95,390.79,95Z"/><path class="cls-1" d="M42.35,6.73,52.9,6.5l7-.22c5-.13,10.68.11,15.16-.47,5.58-.72,3.22-1.7-2.52-2-7.42-.41-15.94,0-23.55-.1l-9.91-.1-3,6.63L33.36,16c-1.79,3.82-3.6,7.62-5.43,11.37l-.26.52c-1.63,3.49-3.25,7-4.89,10.52l-2.42,5.3L17.52,50l3.64,8.4c1.08,2.46,2.17,4.92,3.25,7.37q3.29,7.37,6.64,14.61l3.54,7.71,4,9H48.75l8.78.08q8.76.11,17.5.34c1,0,10.4.39,16.8.4,20.77,0,20.75.42,41.52.46s20.79-.63,41.56-.58l41.53.07c20.77,0,20.74.71,41.51.75s20.8-.77,41.57-.72,20.73.9,41.5.94,20.78-.24,41.55-.2a10.24,10.24,0,0,0,6.54-2.21c1.77-1.12,1.92-2.14.05-3.27a10.61,10.61,0,0,0-6.58-2L341,91.41l-41.55.1c-20.77,0-20.76.3-41.53.35l-41.54,0c-20.78,0-20.8-.49-41.57-.44-20.18,0-56.2,1.78-64.63,1.75C95,93.17,79.7,93,64.46,92.79l-12.2-.17-6.18-.05h-4l-.58,0c-.13-.26-.25-.51-.38-.76-.29-.63-.59-1.25-.88-1.87-3.48-7.32-7-14.1-10.36-21.61-1.42-3.16-2.8-6.32-4.17-9.49l-2-4.75L22,50l6.41-14.09c2.22-4.91,4.42-9.85,6.54-14.82L41.11,6.74Z"/><path class="cls-1" d="M181.89,5c0,.4-3,1-8.34,1.29-2.87.17-5.8-.21-8.63,0-3.42.2-6.81.45-10.29.51-4,.07-8-.06-11.93-.1-6.94-.07-13.87.12-20.8.1-7.43,0-14.73-.52-22-.93-2.67-.15-6-.1-8.38-.64-.2,0-.42-.11-.42-.2s-.16-.53,0-.58c2.3-.66,5.9-.33,8.69-.49,2.58-.14,5.65-.36,9.15-.47,2.82-.09,5.94,0,9.24-.1l9.23-.08c3,0,6.06-.25,9.23-.25s6.25.19,9.23.21l9.23.13c3.29.06,6.36.22,9.19.31,3.5.11,6.7-.07,9.28.08C178.85,4.06,181.89,4.63,181.89,5Z"/><path class="cls-1" d="M390.84,55.64c-.39,0-.92-3-1.13-6.8-.13-2.41,0-5.66,0-8.85s-.21-6.64-.07-9.06c.21-3.78.86-7.87,1.25-7.87s.4,5.18.61,9c.13,2.41.33,4.78.33,8s-.1,5.72-.24,8.13C391.33,51.91,391.24,55.64,390.84,55.64Z"/><path class="cls-2" d="M157.24,64.18a.58.58,0,0,1,.19-.47,1.46,1.46,0,0,1,.44-.26,2.36,2.36,0,0,1,.54-.12l.47,0,.45-.05.7,0,.71,0h.46a1.05,1.05,0,0,0,.31-.41,4.08,4.08,0,0,0,.2-.62,3.79,3.79,0,0,0,.11-.63,2.93,2.93,0,0,0,0-.44,17.78,17.78,0,0,0-.09-1.8c-.05-.59-.08-1.2-.08-1.83a4.45,4.45,0,0,1,.08-.81,3.59,3.59,0,0,0,.09-.81v-.06a.51.51,0,0,1-.1-.19,1.08,1.08,0,0,1,0-.2,42.57,42.57,0,0,0-.12-4.52c-.12-1.5-.19-3-.19-4.52,0-.08,0-.2,0-.34l0-.42a3.53,3.53,0,0,1,0-.36,1.54,1.54,0,0,1,0-.17,2.85,2.85,0,0,1,0-.33l0-.56a5.17,5.17,0,0,1,0-.57c0-.18,0-.29,0-.33s0-.06,0-.15a1.36,1.36,0,0,1,0-.29l0-.29a.66.66,0,0,1,0-.17c0-.07,0-.13-.05-.18a1,1,0,0,1,0-.16v-.13c0-.19,0-.36,0-.5a3,3,0,0,1,.15-.57V37.13a1.68,1.68,0,0,0,.12-.43,2.43,2.43,0,0,0,0-.41.38.38,0,0,0-.16-.33,1.17,1.17,0,0,0-.39-.18,2.43,2.43,0,0,0-.47-.08,3.13,3.13,0,0,0-.39,0H160l-.21,0-.11,0-.2,0-.2,0-.1,0a6.13,6.13,0,0,1-.64,0,1.56,1.56,0,0,1-.67-.21l-.25-.24v-.88l.14-.07a.76.76,0,0,1,.25-.08,1.68,1.68,0,0,1,.35-.09l.31-.05h2.91a.84.84,0,0,0,.32.14,1.29,1.29,0,0,0,.33,0,1.83,1.83,0,0,0,.33,0l.31,0h.1l.23,0,.4,0,.4.05.24,0a16.37,16.37,0,0,0,2.63-.21,16,16,0,0,1,2.58-.2h.45a.37.37,0,0,1,.23.12l1.58,0a11.64,11.64,0,0,1,1.47.13,7,7,0,0,1,1.36.37,6.15,6.15,0,0,1,1.31.73,2.31,2.31,0,0,1,.5.35,1.32,1.32,0,0,1,.4.45.35.35,0,0,1,.09.12,2.68,2.68,0,0,1,.12.24l.11.24.09.16a2,2,0,0,0,.15.23c.08.12.17.25.27.38l.3.39.19.23a.41.41,0,0,0,0,.15,1.82,1.82,0,0,1,.07.25c0,.09.06.21.11.36a11.26,11.26,0,0,1,.51,1.75,10.16,10.16,0,0,1,.15,1.8v1.08s-.06.07-.09.18a.71.71,0,0,0-.06.19,1.59,1.59,0,0,1-.06.29q-.06.23-.12.48c0,.17-.08.34-.11.49s-.06.26-.07.3a1.68,1.68,0,0,1-.12.23l-.15.28a10.34,10.34,0,0,1-1.51,1.81,16.62,16.62,0,0,1-1.81,1.45,1.23,1.23,0,0,1-.61.33,2.39,2.39,0,0,0-.62.21,7,7,0,0,1-1.72.45,13.78,13.78,0,0,1-1.71.1l-.38,0-.3,0-.42,0-.68-.07-.72-.09-.49-.06a1.27,1.27,0,0,1-.27,0c-.15,0-.23-.06-.25-.09h-.2a1.3,1.3,0,0,0-.29,0,.2.2,0,0,0-.18.21V61.6a1.17,1.17,0,0,0,0,.21c0,.12,0,.25,0,.38s0,.27.05.4a2.6,2.6,0,0,0,0,.28.51.51,0,0,0,.24.36,1.5,1.5,0,0,0,.42.15h1.78l.56.07a6.2,6.2,0,0,1,.72.16,2.27,2.27,0,0,1,.63.28.58.58,0,0,1,.27.5c0,.07-.06.12-.17.16a.68.68,0,0,0-.2.1H169l-.43,0a4.7,4.7,0,0,1-.53,0,4.33,4.33,0,0,1-.53,0,1.63,1.63,0,0,1-.46-.11h-4.24a.63.63,0,0,1-.29.07l-.31,0h-.12a1.7,1.7,0,0,1-.47-.05,2.19,2.19,0,0,0-.47,0h-.1l-.14,0-.23.08-.24.09-.15,0h-1.93l-.32,0a1.62,1.62,0,0,1-.38-.09.87.87,0,0,1-.31-.18A.45.45,0,0,1,157.24,64.18Zm8.68-23.44v4.92c0,.07,0,.22,0,.45s0,.49,0,.76,0,.54,0,.79,0,.44,0,.57a2.24,2.24,0,0,1,.09.4c0,.18,0,.29,0,.31a1.26,1.26,0,0,0,.23.28,1.17,1.17,0,0,0,.28.24l.05,0a.16.16,0,0,0,.1,0l.1,0h.2l.32,0,.33-.05c.11,0,.16,0,.18-.06l.16,0a.93.93,0,0,0,.23,0c.08,0,.12,0,.12,0l.17-.07.33-.15.33-.17.21-.12a.54.54,0,0,0,.17,0l.27-.08.27-.07.2-.06.35-.23.58-.38.6-.38.39-.24s0,0,.1,0l.19-.07.21-.07.12-.05a3.24,3.24,0,0,0,.52-.8,8.72,8.72,0,0,0,.49-1.17,10.43,10.43,0,0,0,.36-1.18,3.69,3.69,0,0,0,.15-.85V41.29a.85.85,0,0,1,.05-.21,1.28,1.28,0,0,0,0-.28v0l0-.15-.12-.29-.14-.29-.08-.17a10.71,10.71,0,0,0-.43-1,6.63,6.63,0,0,0-1.13-1.61,7.82,7.82,0,0,0-.82-.79.7.7,0,0,0-.41-.18,1.87,1.87,0,0,1-.37-.07l-.19-.1L170.5,36l-.32-.16a.62.62,0,0,0-.16-.07h-.66a1.1,1.1,0,0,0-.27-.06l-.44-.1-.44-.09a1.35,1.35,0,0,0-.26,0l-.29,0-.45,0-.47,0h-.33a.55.55,0,0,0-.31.18,1.09,1.09,0,0,0-.18.31Z"/><path class="cls-2" d="M192.55,64.59a7.54,7.54,0,0,1-1.57.16,11.79,11.79,0,0,0-1.57.07s0,.06-.17.11A.78.78,0,0,1,189,65h-1.53l-.21-.08-.3-.15-.29-.18a.83.83,0,0,1-.21-.14s0-.08,0-.16,0-.12,0-.15a.66.66,0,0,1,.18-.51.89.89,0,0,1,.52-.21l.24,0,.52,0,.56,0,.42,0h.45a.44.44,0,0,1,.1.08s.08.06.11.06a.53.53,0,0,0,.33-.14,2.46,2.46,0,0,0,.29-.34c.09-.13.17-.26.25-.4a2.21,2.21,0,0,1,.19-.31v-9s0-.16,0-.33,0-.33,0-.51,0-.34,0-.5,0-.27,0-.34V49.11a.94.94,0,0,1,0-.21c0-.11,0-.23,0-.37l0-.4c0-.13,0-.22,0-.29a10.46,10.46,0,0,1,.07-1.27,10,10,0,0,0,.07-1.21v-.89a3.13,3.13,0,0,1,0-.42c0-.22,0-.47,0-.72s0-.51,0-.73,0-.38,0-.44v-.31a1,1,0,0,0,0-.17,1.55,1.55,0,0,0-.13-.24V39.08a.5.5,0,0,1-.09-.18,1.15,1.15,0,0,1,0-.19,1.86,1.86,0,0,1,0-.42,1.68,1.68,0,0,0,.05-.48c0-.1,0-.25,0-.45s0-.42,0-.63a2.78,2.78,0,0,0-.11-.56c-.06-.17-.12-.26-.21-.29h-1.55l-.17,0-.25,0-.27-.05-.2,0-.21,0a2,2,0,0,1-.31-.12,1.2,1.2,0,0,1-.27-.16.27.27,0,0,1-.11-.2,2,2,0,0,1,.15-.86,1.59,1.59,0,0,1,.6-.12l.73,0H192a3.09,3.09,0,0,1,.75-.12c.25,0,.51,0,.77,0h1.8a1.55,1.55,0,0,1,.35.07l.31.07a1.06,1.06,0,0,0,.24-.07,1,1,0,0,1,.29-.07l.24,0,.44,0,.48,0h.36a.16.16,0,0,0,.1,0h.1l.11,0a.2.2,0,0,0,.1,0c.65,0,1.32.07,2,.08a12.06,12.06,0,0,1,2,.17,1.78,1.78,0,0,1,.5.18,1.49,1.49,0,0,0,.52.19l.2.06.31.08.32.08.2.07a.44.44,0,0,1,.22.08,1.07,1.07,0,0,1,.16.14l.15.19a1.65,1.65,0,0,0,.23.2l.26.14a.9.9,0,0,0,.29.11,6.43,6.43,0,0,1,.66.59,8.93,8.93,0,0,1,.66.81c.21.3.41.59.58.88a5.66,5.66,0,0,1,.38.81,3,3,0,0,1,.23.91,7.39,7.39,0,0,1,.05.92,11.14,11.14,0,0,1-.09,1.38,10.73,10.73,0,0,1-.28,1.46,8.15,8.15,0,0,1-.48,1.39,5.07,5.07,0,0,1-.71,1.18l-1.55,1.54s-.07.08-.21.16a1.91,1.91,0,0,0-.31.23,2.61,2.61,0,0,1-.57.26l-.77.28a4.66,4.66,0,0,0-.67.35.54.54,0,0,0-.28.44,1.14,1.14,0,0,0,.18.56c.12.2.27.41.43.63l.5.64a5.06,5.06,0,0,1,.42.55c.24.37.45.74.65,1.12a11.86,11.86,0,0,0,.63,1.06l.08.1.14.18c.06.07.11.14.18.21l.15.16a4.49,4.49,0,0,1,.5.82,5.82,5.82,0,0,0,.5.84l.34.41q.2.22.39.48c.13.16.26.32.38.49a3.33,3.33,0,0,1,.31.45,1,1,0,0,0,.07.18.75.75,0,0,1,.07.19,2.76,2.76,0,0,0,.33.64l.42.6.43.59a2.42,2.42,0,0,1,.34.63l2,1.95a1.61,1.61,0,0,0,.66.37,7,7,0,0,0,.87.2c.3.06.61.1.91.14a4.46,4.46,0,0,1,.78.19.48.48,0,0,1,.12.35.52.52,0,0,1-.29.53,1.2,1.2,0,0,1-.57.14c-.64,0-1.27,0-1.89,0l-1.84-.06-1.86-.06c-.62,0-1.26,0-1.92,0a4.11,4.11,0,0,1-.88-1.06c-.23-.4-.46-.82-.67-1.26-.39-.78-.8-1.56-1.25-2.36s-.93-1.54-1.44-2.25c0,0-.06-.09-.12-.19l-.23-.3a3.92,3.92,0,0,0-.25-.32l-.18-.22a3.25,3.25,0,0,1-.38-.65,2.58,2.58,0,0,0-.38-.62l-.22-.2a1.54,1.54,0,0,1-.19-.19,1.21,1.21,0,0,0,0-.19c0-.12,0-.19-.06-.22a.45.45,0,0,1-.07-.09l-.13-.16a1.15,1.15,0,0,0-.14-.17l-.09-.09c-.21-.33-.44-.73-.71-1.22a11.56,11.56,0,0,0-.91-1.4,6.73,6.73,0,0,0-1.12-1.14,2.11,2.11,0,0,0-1.34-.49,1.05,1.05,0,0,0-.33.06,1,1,0,0,0-.34.15,1.27,1.27,0,0,0-.27.25.48.48,0,0,0-.11.3v6.34a.43.43,0,0,1,.08.22c0,.11.06.25.11.42s0,.1-.07.21,0,.24,0,.37,0,.25,0,.37a1,1,0,0,1,0,.22v0a3.89,3.89,0,0,0,.09.85,3.3,3.3,0,0,1,.1.85v.82s-.06.06-.08.13,0,.16-.05.26a2,2,0,0,1,0,.26c0,.09,0,.13,0,.15s0,.06,0,.13a1.78,1.78,0,0,1,0,.26c0,.09,0,.19.05.27a.93.93,0,0,0,.08.22l.17.11.3.22.34.22a1.44,1.44,0,0,0,.31.15l.2,0,.32.07.31.07.2,0h1.41a1.07,1.07,0,0,1,.6.27.71.71,0,0,1,.24.53.48.48,0,0,1-.11.35.64.64,0,0,1-.3.18,1.23,1.23,0,0,1-.38.08h-.39c-.54,0-1.06,0-1.57,0s-1-.09-1.53-.16Zm2.4-16.1a.6.6,0,0,0,.18.31.45.45,0,0,0,.31.21h0l.13,0,.21-.05.21,0,.11,0,.81-.15.75-.15.74-.21.78-.29.41-.07a.66.66,0,0,0,.37-.19,3.5,3.5,0,0,0,.73-.71c.22-.28.45-.55.68-.81l.21-.23c.08-.09.16-.19.25-.28s.17-.18.23-.26l.11-.13a8.23,8.23,0,0,0,.88-1.9,6.93,6.93,0,0,0,.29-2,6.12,6.12,0,0,0-.77-3.1,10,10,0,0,0-2.08-2.48l-.12-.07a.92.92,0,0,1-.13-.09,11.82,11.82,0,0,0-1.81-.31c-.6-.06-1.2-.12-1.82-.21h-.37a1,1,0,0,1-.22,0l-.35,0-.35,0a.46.46,0,0,0-.2,0,.81.81,0,0,0-.49.62,5.93,5.93,0,0,0-.07.83v.31c0,1.51,0,3,.16,4.46s.14,3,.11,4.46l.1.25Z"/><path class="cls-2" d="M220.87,64.2V64a1.28,1.28,0,0,1,.65-.59,2.85,2.85,0,0,1,.85-.18c.3,0,.6,0,.92,0a2.48,2.48,0,0,0,.84-.11,1.16,1.16,0,0,0,.6-.47,1.81,1.81,0,0,0,.24-1.05v-7.3s0-.14,0-.28,0-.3,0-.48,0-.34-.05-.48a2,2,0,0,1,0-.28v-.37c0-.19,0-.36,0-.52s0-.31,0-.46a4.6,4.6,0,0,1,0-.49c0-.17,0-.37.07-.6a.29.29,0,0,1,.06-.15.35.35,0,0,0,.06-.14V50a2,2,0,0,0-.06-.31,1.65,1.65,0,0,1-.06-.33V44.84s0-.15,0-.34,0-.38,0-.6,0-.42-.05-.61a2.85,2.85,0,0,1,0-.33V41.64a1.94,1.94,0,0,1,0-.29c0-.15,0-.3,0-.47s0-.32,0-.47,0-.26,0-.33l.06-.22a1.48,1.48,0,0,0,.06-.25v-.24q0-.32-.09-.69c0-.25-.07-.51-.1-.77s-.07-.51-.1-.76-.08-.46-.12-.65a.74.74,0,0,0-.36-.53,2,2,0,0,0-.62-.21,4.17,4.17,0,0,0-.71-.07,2.42,2.42,0,0,1-.6-.08l-.25-.06-.53-.13-.63-.16-.5-.16c-.23-.07-.38-.14-.43-.23a1,1,0,0,1-.08-.51V34.1c0-.06.12-.12.29-.18a.87.87,0,0,1,.36-.07h.92c.78,0,1.59,0,2.42.08l2.41.17a1.2,1.2,0,0,1,.25,0,.8.8,0,0,1,.28.09h.1a.59.59,0,0,1,.26-.09,1.2,1.2,0,0,1,.25,0,.41.41,0,0,1,.15.08l.1.06H228l.13-.06.25-.08a1.27,1.27,0,0,1,.24-.07l.14,0a.49.49,0,0,1,.17,0l.24.06a.9.9,0,0,1,.23.08l.15.07h1.93c.77,0,1.52,0,2.26-.07s1.49-.07,2.25-.07h.31a3.3,3.3,0,0,1,.39,0l.57,0,.58,0,.39,0a.46.46,0,0,1,.2-.09.57.57,0,0,1,.19,0h.06a1.51,1.51,0,0,1,.5.07,2.06,2.06,0,0,0,.63.07,6.82,6.82,0,0,0,1-.07,7.05,7.05,0,0,1,1-.07h.51a6.53,6.53,0,0,1,.85,0,1.53,1.53,0,0,1,.71.21s0,0,.07.11a.26.26,0,0,1,0,.14v.7a11.1,11.1,0,0,1-.13,1.73,10.94,10.94,0,0,0-.13,1.71,5.33,5.33,0,0,0,.07.91,7,7,0,0,1,.07.94v.28a1.12,1.12,0,0,1-.06.38q-.06.18-.33.18a.7.7,0,0,1-.56-.29,3.36,3.36,0,0,1-.43-.67,7.28,7.28,0,0,1-.31-.77,6.2,6.2,0,0,0-.24-.63s-.06-.06-.11-.13a1.77,1.77,0,0,0-.17-.24c-.06-.08-.11-.16-.16-.24l-.09-.13-.51-.91a5.24,5.24,0,0,0-.61-.85,3,3,0,0,0-.77-.65,2.61,2.61,0,0,0-1-.32c-.18,0-.48,0-.9,0H235c-.42,0-.7,0-.85,0l-.29,0-.48-.05-.48,0-.29,0-.16,0-.27,0-.28.05a.8.8,0,0,1-.19,0h-.39a2,2,0,0,1-.34,0l-.34,0a1.6,1.6,0,0,0-.7.15,1.17,1.17,0,0,0-.51.67v2.07s0,0,0,.11,0,.12,0,.19,0,.15-.05.21a.34.34,0,0,0,0,.11v.29a1,1,0,0,0,0,.23.58.58,0,0,0,.09.24V47s0,.11,0,.22,0,.23,0,.37l0,.41a2.43,2.43,0,0,0,.06.31.82.82,0,0,0,.12.4.53.53,0,0,0,.4.11h.37l.57,0,.87,0,1,0,1,0,.9,0h.59a5.12,5.12,0,0,1,.54-.1,5.59,5.59,0,0,0,.56-.12,2.23,2.23,0,0,0,.51-.19,1.27,1.27,0,0,0,.42-.35,1.88,1.88,0,0,0,0-.23l0-.34a2.38,2.38,0,0,0,0-.36c0-.12,0-.2,0-.24V44a.89.89,0,0,1,.39-.75,1.36,1.36,0,0,1,.78-.27.64.64,0,0,1,.59.33,4.19,4.19,0,0,1,.31.69,6.56,6.56,0,0,0,0,.81v2.55a7.11,7.11,0,0,0,0,.85c0,.08,0,.23,0,.47s0,.48,0,.74,0,.5,0,.73a3.27,3.27,0,0,0,0,.48,4.91,4.91,0,0,0,.14,1,4.48,4.48,0,0,1,.12,1v.14c0,.12,0,.29-.05.49s0,.41-.05.61,0,.37,0,.53,0,.25,0,.28a1.23,1.23,0,0,1-.25.54.69.69,0,0,1-.53.2,1.55,1.55,0,0,1-.82-.19,1.22,1.22,0,0,1-.45-.7V52.43a1.16,1.16,0,0,0-.07-.28,1.23,1.23,0,0,1-.07-.25s0-.12,0-.23,0-.22,0-.35,0-.24-.06-.36,0-.19,0-.23a.32.32,0,0,0-.1-.11l-.18-.16-.2-.15a.5.5,0,0,0-.13-.09h-.15q-1.17.14-2.34.21c-.79,0-1.58.07-2.37.07h-.83a7.56,7.56,0,0,1-.83,0c-.29.07-.5.13-.64.18a.47.47,0,0,0-.28.19,1,1,0,0,0-.08.35c0,.15,0,.35,0,.59a.75.75,0,0,1-.07.19,1,1,0,0,0-.07.18v.15a.48.48,0,0,0,0,.13c0,.08,0,.16.05.25s0,.17,0,.24,0,.12,0,.14v.26a1.64,1.64,0,0,1-.07.3,1.64,1.64,0,0,0-.07.3v.14a2.09,2.09,0,0,0,0,.29c0,.15,0,.31.05.49s0,.34,0,.48,0,.24,0,.28v3.83s0,.12,0,.26,0,.3,0,.46,0,.32.05.46a1.86,1.86,0,0,1,0,.26v1.8a1.14,1.14,0,0,0,.52.72l.45.06.69.1.68.08.45,0h.37c.58,0,1.14,0,1.7-.06s1.13-.06,1.73-.06h.92l.2.07.21,0,.15,0,.29,0,.29,0,.17,0h2.4a.87.87,0,0,0,.22.11h.32a3.09,3.09,0,0,0,.44,0l.31-.07a.93.93,0,0,0,.57-.42,3.9,3.9,0,0,1,.36-.59l.09-.09a1.29,1.29,0,0,0,.15-.17l.17-.16.1-.09a3.15,3.15,0,0,0,.45-.69,4.36,4.36,0,0,1,.45-.73s.06-.09.18-.19a1.29,1.29,0,0,0,.19-.2,2.34,2.34,0,0,0,.27-.45l.36-.75c.13-.28.26-.57.41-.87a8.89,8.89,0,0,1,.44-.82,4,4,0,0,1,.45-.61.61.61,0,0,1,.45-.25.25.25,0,0,1,.27.21,2.71,2.71,0,0,1,0,.41v.49c0,.11,0,.21,0,.3a.88.88,0,0,1-.11.29l-.66,4.62V63a2.11,2.11,0,0,0,.06.36c0,.19.06.28.06.3a1.18,1.18,0,0,1-.12.53.74.74,0,0,1-.39.37h-3.59l-.44,0-.77.09-.76.1-.43,0h-.39a1.31,1.31,0,0,0-.27,0l-.24.06h-6.81a23.26,23.26,0,0,1-2.74-.2,23.44,23.44,0,0,0-2.78-.17,9.36,9.36,0,0,0-1.18.08l-1.16.18-1.17.17a7.89,7.89,0,0,1-1.2.08h-1a2.2,2.2,0,0,1-.37-.38A.83.83,0,0,1,220.87,64.2Z"/><path class="cls-2" d="M265.39,61.25c-.06-.15-.15-.42-.28-.82l-.42-1.27c-.15-.45-.29-.88-.43-1.27s-.23-.67-.29-.82a.82.82,0,0,0,0-.14l0-.19,0-.2a.3.3,0,0,0,0-.11,1.94,1.94,0,0,1-.15-.3l-.25-.49c-.09-.17-.17-.33-.25-.47a1.36,1.36,0,0,0-.15-.26.8.8,0,0,0,0-.21,3.18,3.18,0,0,1-.08-.33c0-.12-.05-.22-.08-.32a.58.58,0,0,0-.05-.18c-.22-.65-.45-1.29-.7-1.92s-.49-1.28-.69-1.94l0-.13a1.87,1.87,0,0,1,0-.25c0-.09,0-.17,0-.25a1.11,1.11,0,0,0,0-.13,14.27,14.27,0,0,0-.76-2.57c-.36-.88-.69-1.73-1-2.56,0,0,0-.06-.07-.2a2.39,2.39,0,0,1,0-.31,12.85,12.85,0,0,0-.46-1.47q-.25-.66-.57-1.56c-.13-.37-.26-.8-.38-1.27a8.88,8.88,0,0,0-.44-1.38,3.76,3.76,0,0,0-.69-1.13,1.91,1.91,0,0,0-1.17-.57l-.27,0-.44-.05-.44,0-.27,0a1.34,1.34,0,0,1-.59-.22.6.6,0,0,1-.31-.54.71.71,0,0,1,.36-.71,1.87,1.87,0,0,1,.85-.17h.2l.1,0,.15,0a.41.41,0,0,1,.16,0l.11,0h1.51a.74.74,0,0,1,.2.06l.19.06h.89l.31,0,.54,0,.53,0,.32,0H264a3.44,3.44,0,0,1,.72-.09h1.16a1.38,1.38,0,0,1,.45.08,1,1,0,0,1,.36.22.66.66,0,0,1,.14.44.58.58,0,0,1-.1.38.67.67,0,0,1-.28.21,1.41,1.41,0,0,1-.38.1l-.39.07c-.43.14-.86.25-1.26.34a8.42,8.42,0,0,1-1.32.18.82.82,0,0,0-.4.49,1.92,1.92,0,0,0-.11.67,1.35,1.35,0,0,0,.09.47c.06.15.13.31.21.47a5.24,5.24,0,0,1,.23.48,1.46,1.46,0,0,1,.12.51v.62l.21.19c.11.1.16.17.16.2s.06,0,.09.11a.53.53,0,0,1,.06.15l.08.26q.06.19.12.42c0,.15.08.29.11.43s.06.24.08.31.06.19.12.41.11.45.16.71.1.49.15.7a4.08,4.08,0,0,0,.08.41.59.59,0,0,0,.08.22l.17.33a2.59,2.59,0,0,1,.17.33l.09.17c.06.15.12.33.19.52s.15.41.22.62.13.42.18.63a3.26,3.26,0,0,1,.07.57.65.65,0,0,1,0,.11.32.32,0,0,0,0,.13,4.71,4.71,0,0,1,.34.67,5.37,5.37,0,0,1,.22.59c.06.2.12.41.16.61s.11.43.18.68c0,.07.08.23.17.49s.19.54.29.85.19.6.28.86a3.43,3.43,0,0,0,.16.48l.08.31c0,.17.08.34.13.52s.07.36.11.53a.88.88,0,0,0,.09.3,2.1,2.1,0,0,0,.37.65,1.08,1.08,0,0,1,.25.69,2.17,2.17,0,0,0,.19.67c.13.33.28.76.46,1.3.1.28.16.5.2.63a3.58,3.58,0,0,1-.13,1.72L269,61.76a2,2,0,0,1-.08.39c-.05.19-.1.39-.15.61s-.11.41-.15.59a2.77,2.77,0,0,1-.1.34l-.15.51a3.8,3.8,0,0,1-.23.59,2,2,0,0,1-.32.48.61.61,0,0,1-.47.2.44.44,0,0,1-.38-.19,2,2,0,0,1-.2-.44,3,3,0,0,1-.1-.5,3,3,0,0,0-.07-.38.29.29,0,0,0,0-.11.6.6,0,0,0-.08-.16,1,1,0,0,0-.1-.15l-.07-.1a1.29,1.29,0,0,0-.09-.3c-.07-.17-.13-.35-.2-.54l-.2-.53-.13-.31a2.35,2.35,0,0,1-.14-.23A1.24,1.24,0,0,1,265.39,61.25Zm10.25-22.7q0-.21,0-.51c0-.19-.06-.39-.1-.59a1.7,1.7,0,0,0-.23-.53.63.63,0,0,0-.4-.3,14.69,14.69,0,0,0-1.51-.28,14.46,14.46,0,0,1-1.44-.25l-.48-.11a1,1,0,0,1-.37-.13.67.67,0,0,1-.24-.26,1.14,1.14,0,0,1-.08-.47.67.67,0,0,1,.1-.39.6.6,0,0,1,.27-.2,1.06,1.06,0,0,1,.37-.07h.39a8.53,8.53,0,0,1,1,0c.33,0,.67,0,1,0,1,0,2,0,3,0s2,0,3.05,0h2l.43,0,.43,0a.94.94,0,0,1,.28,0,.8.8,0,0,1,.33.19.44.44,0,0,1,.18.32.46.46,0,0,1-.15.36l-.36.3a.94.94,0,0,1-.45.21,2.59,2.59,0,0,1-.56,0h-1.31a3.6,3.6,0,0,0-1.32.49,4.34,4.34,0,0,0-1.12.91,5.6,5.6,0,0,0-.58,1c-.19.39-.36.8-.53,1.21s-.31.83-.44,1.22-.25.75-.36,1.05a21,21,0,0,1-.81,2.17,21.12,21.12,0,0,0-.81,2.18c-.13.38-.26.77-.38,1.17a9.23,9.23,0,0,1-.4,1.12s-.06.12-.1.22l-.14.32c-.06.11-.11.21-.16.29a1,1,0,0,1-.11.18l-.08.1a1.07,1.07,0,0,1-.14.16l-.12.16-.05.09a.31.31,0,0,0,0,.12c0,.07,0,.14,0,.22a1.77,1.77,0,0,0,0,.2.39.39,0,0,0,0,.12,1,1,0,0,1-.06.15c-.05.09-.09.19-.14.29a2.93,2.93,0,0,0-.12.28.48.48,0,0,0-.05.18s0,.06,0,.13a1,1,0,0,0,0,.24l0,.24a1.42,1.42,0,0,1,0,.15,3.88,3.88,0,0,1-.38.91,4.3,4.3,0,0,0-.41.87c-.21.56-.4,1.08-.57,1.55a12,12,0,0,1-.71,1.55l-.08,0,0,0,0,0v-.1a7,7,0,0,1,.09-1.18,9.76,9.76,0,0,1,.23-1c.09-.33.19-.65.3-1a10.5,10.5,0,0,0,.28-1.08c.08-.5.18-1,.3-1.48s.24-1,.36-1.49a.43.43,0,0,1,0-.1l.06-.19.07-.19a.6.6,0,0,1,.08-.13s0-.11.12-.21a.83.83,0,0,1,.15-.18,2,2,0,0,1,.05-.24l.09-.28a1.12,1.12,0,0,1,0-.24c0-.13,0-.26.07-.41a3.73,3.73,0,0,1,.08-.41l.06-.25a2.67,2.67,0,0,1,.09-.26c.07-.15.11-.27.14-.35a.22.22,0,0,1,0-.1l.09-.15.09-.16.06-.11s0-.12,0-.24l0-.4c0-.15,0-.28.05-.4a.4.4,0,0,1,.06-.23.46.46,0,0,1,.07-.18c.05-.1.1-.2.15-.32l.16-.33c0-.1.08-.17.09-.21s.07-.19.14-.34.12-.27.15-.32a2.27,2.27,0,0,1,0-.35,2,2,0,0,1,0-.24.32.32,0,0,1,0-.13s.05-.2.12-.43.15-.47.24-.73.17-.49.24-.72.13-.36.16-.42a1.13,1.13,0,0,1,0-.14,2.6,2.6,0,0,1,0-.26,1.69,1.69,0,0,1,.05-.24c0-.08,0-.11,0-.11a.68.68,0,0,1,.21-.4A.5.5,0,0,0,275.64,38.55Z"/><path class="cls-2" d="M55.3,25.56l-.79-.16-.62.66s.08.09-.29.5l-.37.42a1.08,1.08,0,0,1-.21.45l-.21.34-.42.66c-.12.21.17.13-.29.42l-.45.29-.46.41v.71l-.83.58s.16-.08-.21.38l-.37.45a2.42,2.42,0,0,1-.38,1,3.4,3.4,0,0,1-.62.46A11.36,11.36,0,0,1,48,34.54a2.26,2.26,0,0,0-.46.58c-.08.21.34-.33-.33.38s-.87.62-1,1-.45.7-.49.83l0,.12s-.33-.2-.58.46a2.55,2.55,0,0,1-.54,1c-.29.41-.62,1-.62,1a8.64,8.64,0,0,0-.71,1l-.58,1-.5.79a3.51,3.51,0,0,0-.46.75,3.51,3.51,0,0,1-.7.87,5.36,5.36,0,0,1-.38,1l-.21.37-.78,1.33a7.87,7.87,0,0,1-.84.92v1a2.14,2.14,0,0,1,.79,1.29v.62l.63.79.12.75,1.25,1.2a2.9,2.9,0,0,1,.66,1.25l.5,1.08s.42.29.42.58-.53,0-.32.17l.44.46L44,58.28l.37.75.25.49.25.5.42.46.83,1.45.29.42a1.88,1.88,0,0,1,.75,1.21A5.81,5.81,0,0,0,48,64.72a.45.45,0,0,1,.25.33l.25.42c.37,0,.5.87.5.87l.16.58c.5.34,0,.21.5.34a2.44,2.44,0,0,1,1,.58,1.89,1.89,0,0,0,.37.66c.21.17-.16,0,.21.17a.63.63,0,0,1,.37.5,3.27,3.27,0,0,1,.25.46,7.1,7.1,0,0,0,.42.62c.62.29.71.54.71.54L53.43,72l.42.25a2,2,0,0,1,.42.42l.08.16.16.21.55.67v.79c.54,0,.66-.59.66-.59v-1s.12-.08,0-.42l-.12-.33-.25-.71-.29-1.24V69l-.42-.66-.21-.5-.16-1-.3-.41-.45-.88-1-1.66-.21-.54-.29-.62a18.07,18.07,0,0,0-.54-1.87,5.61,5.61,0,0,0-.5-.63s0,.13-.37-.41l-.33-.54-.17-1.67-.25-.37L49.53,57c-.46-.5-.17-.25-.46-.5s-.17,0-.29-.25.21.5,0,0-1-1.79-1-1.79l-.51-.66L47,53.21l-.58-.67-.29-.75-.38-.7-.16-.5V50l.54-.31h.37l1.29-.52.54,0,.91-.16.38-.21a6.31,6.31,0,0,0,.83-.25l.58-.38,1.33-.37a1.88,1.88,0,0,0,.67.13c.2,0,.08,0,.5-.09s-.09,0,.41-.08l.5,0L54,47.3l-.79-.25s-1.16-.66-1.53-.83-1.38-.45-1.38-.45l-.87-.3-.41-.2-1-.17-.64-.17-.44-.29s-.17-.2,0-.33a1.52,1.52,0,0,0,.25-.46l.24-.54.22-.5.62-1.08.92-1.7.42-.46s-.05.21.24-.46l.3-.66.62-.71.41-.83.38-.5.25-.41.75-1,.16-.71.13-.41.5-1.21.45-.75L54,31l.49-1.25.09-.42,0-.37A7.6,7.6,0,0,0,55,27.56c0-.33.09-1.54.09-1.54l.2-.46Z"/><path class="cls-2" d="M69.48,38.32l-.58.54-1,.59-.79.54H66.9l-.46.45-.62,1.09-.79.66s.25-.08-.41.42L64,43.1a1,1,0,0,1-.33.71c-.33.25,0,.42-.46.79a5,5,0,0,1-.46.38c-.79.62.13,0-.58.45l-.71.5h-.2l-1,.92-.37.41-.54.38v.54a1.82,1.82,0,0,0,.2.29l.34.25s.74,1.11.79,1.28a5.63,5.63,0,0,0,.91.88v.37l.25.42a3.35,3.35,0,0,0,.29.37l.12.13,1.21,1.24a2.38,2.38,0,0,1,.33.54l.13.29,1.2,1.58.09.42.37.42.33.37a3.67,3.67,0,0,1,.58.75,11.72,11.72,0,0,0,.79,1.12l.84.92,0-1L67.69,58s.08.08,0-.42l-.08-.5-.33-.75-.46-1.41-.25-.46-.29-.58L66,53.08l-.75-1.83L65,50.79l.87-.33.79-.12.67-.09.37,0,1.75-.29h3.66a12.53,12.53,0,0,1,1.45-.25h.67l.5,0L77,49.55l.83-.21.59-.27.49-.27L77,48.09a1.91,1.91,0,0,0-.41,0l-.83-.12-1-.29-.63-.25L72.85,47l-1.79-.5-.67-.25-.91,0L67.94,46l-1-.16.41-1.17a11.24,11.24,0,0,0,1.16-1.82s.17,0,.54-.88.34-.7.38-.91l0-.21a1.17,1.17,0,0,1,.29-.87c.38-.5.21-.09.38-.5l.16-.42s.09-.45.13-.75.08-.7.08-.7Z"/></g></svg>