<svg xmlns="http://www.w3.org/2000/svg" viewBox="0 0 400 100"><defs><style>.cls-1{fill:#382b18;}.cls-2{fill:#ffcc45;}</style></defs><g id="content"><polygon class="cls-1" points="9.5 95 360.03 95 379.76 50 360.03 5 9.5 5 9.5 95"/><path class="cls-1" d="M93.46,4.84c0-.18,2-.39,5.4-.58s8-.36,13.33-.48,11.39,0,18.16,0c5.65,0,11.74-.26,18.1-.26s12.41.43,18.07.48c6.77,0,13.08-.41,18.26-.3,10.57.22,17.22.81,17.22,1.17s-6.65,1-17.22,1.18c-5.19.11-11.39.19-18.16.25C161,6.32,154.82,6,148.45,6L130.34,6c-6.76-.06-13,.13-18.19,0s-10-.31-13.31-.52S93.46,5,93.46,4.84Z"/><path class="cls-1" d="M14.11,4.94c0-.53,3.71-1.09,12.22-1.29,4.53-.11,10.07-.11,16-.11s11.56.38,16.32.49c8.74.21,12.12.39,12.12.91S67.63,6,58.93,6.2C54.15,6.33,48.42,6,42.35,6s-11.28.08-15.82,0C18.06,5.71,14.11,5.46,14.11,4.94Z"/><path class="cls-1" d="M9.79,95C9.16,95,8.3,89.54,8.3,83.75s.86-10.44,1.49-10.44S10.85,78,10.85,83.75,10.41,95,9.79,95Z"/><path class="cls-1" d="M357.89,3.27,347.1,3.5l-7,.22c-5,.13-10.68-.11-15.16.47-5.58.72-3.22,1.7,2.52,2,7.42.41,15.94,0,23.55.1l4.5,0,3.56.06,4.51,10.88Q366,23.16,368.3,29l.2.55,4.43,10.72L377,50l-1.2,2.68-1.63,3.69q-1.62,3.69-3.22,7.38-3.19,7.4-6.25,14.79-1.65,3.9-3.28,7.82l-2.8,6.54h-7.41l-8.78-.08q-8.76-.11-17.5-.34c-1.05,0-10.4-.39-16.8-.4-20.77,0-20.75-.42-41.52-.46s-20.79.63-41.56.58l-41.53-.07c-20.77,0-20.74-.71-41.51-.75s-20.8.77-41.57.72-20.73-.9-41.5-.94-20.78.24-41.55.2a10.24,10.24,0,0,0-6.54,2.21C9.12,94.68,9,95.7,10.84,96.83a10.61,10.61,0,0,0,6.58,2L59,98.59l41.55-.1c20.77,0,20.76-.3,41.53-.35l41.54,0c20.78,0,20.8.49,41.57.44,20.18,0,56.2-1.78,64.63-1.75,15.26,0,30.52.27,45.76.43l12.2.17,6.18.05,7.67,0c.49-1.14,1-2.27,1.44-3.38.31-.74.61-1.48.9-2.2,3-7.52,5.64-14.69,8.88-22.26q2.06-4.77,4.16-9.49L381.5,50q-3.28-7.77-6.58-15.54c-2.11-5-4.25-9.92-6.47-14.85L361.16,3.26Z"/><path class="cls-1" d="M218.11,5c0-.4,3-1,8.34-1.29,2.87-.17,5.8.21,8.63,0,3.42-.2,6.81-.45,10.29-.51,4-.07,8,.06,11.93.1,6.94.07,13.87-.12,20.8-.1,7.43,0,14.73.52,22,.93,2.67.15,6,.1,8.38.64.2,0,.42.11.42.2s.16.53,0,.58c-2.3.66-5.9.33-8.69.49-2.58.14-5.65.36-9.15.47-2.82.09-5.94,0-9.24.1l-9.23.08c-3,0-6.06.25-9.23.25s-6.25-.19-9.23-.21l-9.23-.13c-3.29-.06-6.36-.22-9.19-.31-3.5-.11-6.7.07-9.28-.08C221.15,5.94,218.11,5.37,218.11,5Z"/><path class="cls-1" d="M9.84,55.64c-.39,0-.92-3-1.13-6.8-.13-2.41-.05-5.66-.05-8.85s-.21-6.64-.07-9.06c.21-3.78.86-7.87,1.25-7.87s.4,5.18.61,9c.13,2.41.33,4.78.33,8s-.1,5.72-.24,8.13C10.33,51.91,10.24,55.64,9.84,55.64Z"/><path class="cls-2" d="M119,64.69h-5.23a4.12,4.12,0,0,1-1.35.19,7.48,7.48,0,0,0-1.34.08l-.19.05a.66.66,0,0,1-.2,0h-.47a1.4,1.4,0,0,1-.68-.15c-.18-.1-.26-.3-.26-.61a.59.59,0,0,1,.4-.65,2.91,2.91,0,0,1,.85-.12h.69a10.85,10.85,0,0,0,1.46-.16,5.47,5.47,0,0,0,1.42-.44,3.41,3.41,0,0,0,1.12-.83,2.64,2.64,0,0,0,.62-1.36v-.91s0-.19,0-.42,0-.46,0-.72,0-.51,0-.74,0-.39,0-.45c0-.48.06-.94.09-1.39s.05-.9.05-1.38c0-.13,0-.24,0-.35a1.84,1.84,0,0,1,0-.33l.15-.1c0-.55.07-1.1.14-1.64s.13-1.09.2-1.63.11-1.09.15-1.63a13.12,13.12,0,0,0,0-1.66l.14-.27a1.47,1.47,0,0,0,0-.28c0-.1,0-.19,0-.27a9.83,9.83,0,0,1,.17-1.81c.11-.59.2-1.2.26-1.84v-.8a3,3,0,0,1,.11-.35c0-.09.05-.16.07-.24a.87.87,0,0,0,0-.13.19.19,0,0,0,0-.11.38.38,0,0,0,0-.1.56.56,0,0,0-.16-.46,2.42,2.42,0,0,1-.35-.36c-.25-.27-.52-.6-.81-1a7,7,0,0,0-.89-1,10.24,10.24,0,0,0-.85-.66c-.28-.2-.56-.42-.84-.65,0,0-.09-.09-.19-.19a1.22,1.22,0,0,1-.17-.2c-.22-.12-.45-.23-.69-.34a3.87,3.87,0,0,1-.67-.35,1.67,1.67,0,0,1-.51-.48,1.25,1.25,0,0,1-.21-.76.31.31,0,0,1,.12-.24.62.62,0,0,1,.29-.15l.4-.06.42,0h1.49a1.63,1.63,0,0,1,.52.12h4.06a.41.41,0,0,1,.15,0q.1,0,.12.06l.24.21.36.35.35.37a2.21,2.21,0,0,1,.24.26l.17.22.2.25a8.66,8.66,0,0,0,1,.9,9.54,9.54,0,0,1,1,.88l.19.28a1,1,0,0,1,.16.26l.16.18a2.56,2.56,0,0,1,.2.26l.19.23a.36.36,0,0,0,.1.11l.27.26L124,40c.16.16.3.31.44.44l.27.27a8.71,8.71,0,0,1,.64.83,5.94,5.94,0,0,0,.67.83,4.18,4.18,0,0,0,.36.38l.63.65.64.65.36.39a10.81,10.81,0,0,1,1,1.15,9.09,9.09,0,0,0,1,1.15l0,0a.1.1,0,0,0,.08,0l.12,0c.22.21.42.41.59.6s.33.39.48.59l.46.62c.16.2.33.41.52.63a1.4,1.4,0,0,0,.33.32l.31.2.27.16a1,1,0,0,1,.24.23s0,0,.07.09l.12.16.18.26a.14.14,0,0,1,.09.05.12.12,0,0,1,.06.09,3.87,3.87,0,0,1,.87.84,7.37,7.37,0,0,0,.79.93l.23.23.41.41.41.41a3.09,3.09,0,0,1,.24.26,3.7,3.7,0,0,1,.34.4,4,4,0,0,0,.38.46,2,2,0,0,0,.44.38,1,1,0,0,0,.54.15.16.16,0,0,0,.15-.11.85.85,0,0,0,.12-.27,1.67,1.67,0,0,0,.06-.29c0-.1,0-.17,0-.21s0-.19,0-.36,0-.35,0-.54v-2c0-.19,0-.35,0-.48s0-.21,0-.23,0-.08,0-.17,0-.19,0-.29,0-.19,0-.28l0-.16V47.12s0-.12,0-.24a3.63,3.63,0,0,1,0-.39c0-.14,0-.27-.05-.39a.8.8,0,0,0,0-.23v-.51a12.41,12.41,0,0,1,.09-1.49,10.58,10.58,0,0,0,.1-1.47v-.47a.83.83,0,0,0,0-.33s0-.05,0-.12a1.5,1.5,0,0,1,0-.24c0-.08,0-.16-.05-.23a.24.24,0,0,0,0-.13V40.5c0-.24,0-.47,0-.71s0-.48,0-.71a6.48,6.48,0,0,0-.06-.9,2.57,2.57,0,0,0-.24-.8,2.17,2.17,0,0,0-.55-.67,2.64,2.64,0,0,0-.95-.48l-.35,0-.29,0-.13-.15-.11-.1-.14,0-.19-.06-.27-.08h0s0,0,0,0l0,0-.09,0-.17.08a.7.7,0,0,1-.17.09s-.08,0-.08.06h-.15l-.19-.15a.69.69,0,0,0-.19-.11,1.37,1.37,0,0,0-.55-.17c-.24,0-.48-.06-.73-.1a2,2,0,0,1-.64-.21.56.56,0,0,1-.28-.53.66.66,0,0,1,0-.25.34.34,0,0,1,.26-.16h2.06a1.94,1.94,0,0,1,.58.12h4a.69.69,0,0,1,.22,0l.19.06h.11l.34,0a1.82,1.82,0,0,1,.31-.05l.24,0,.41,0a2.73,2.73,0,0,1,.41,0l.25,0h.11c.64-.11,1.27-.2,1.88-.27a16.84,16.84,0,0,1,1.89-.1h.7a.35.35,0,0,1,.23.19,1,1,0,0,1,0,.26.53.53,0,0,1-.13.41.73.73,0,0,1-.34.17,2,2,0,0,1-.42.07,1.29,1.29,0,0,0-.4.07l-.15,0-.24.07-.23.08-.14.06a6.62,6.62,0,0,1-.9.14,5.61,5.61,0,0,0-.86.13.39.39,0,0,0-.14,0l-.13.09a9.74,9.74,0,0,0-1.07,1,3,3,0,0,0-.63,1.37,2.31,2.31,0,0,1,0,.4l-.09.53c0,.17-.06.33-.09.47s0,.22,0,.24v.21c0,.12,0,.25,0,.38a2.53,2.53,0,0,1,0,.38,2.14,2.14,0,0,1-.17.84l0,6.25v.39c0,.22,0,.57,0,1s0,1,0,1.59,0,1.21,0,1.87,0,1.27,0,1.86,0,1.12,0,1.58,0,.81,0,1a5.32,5.32,0,0,0-.12.56,4.17,4.17,0,0,0,0,.56v.31c.07.58.13,1.15.18,1.73s.07,1.18.07,1.8v1.07a1.23,1.23,0,0,1-.17.45.43.43,0,0,1-.39.2l-.23,0A.45.45,0,0,1,139,64a5.71,5.71,0,0,1-.86-.84c-.25-.3-.48-.61-.72-.91l-.68-.92a10.31,10.31,0,0,0-.77-.88,1,1,0,0,1-.14-.1l-.2-.18-.21-.16a.32.32,0,0,0-.11-.07L135,59.7a1.7,1.7,0,0,1-.23-.26,1.2,1.2,0,0,1-.17-.2.53.53,0,0,0-.08-.15.45.45,0,0,0-.1-.14l-.18-.16a.24.24,0,0,0-.11-.06l-.09,0-.07,0-.26-.2a1,1,0,0,1-.15-.14l-.14-.17a2.5,2.5,0,0,0-.21-.25l-.26-.27-.43-.44-.43-.43-.25-.24a9.21,9.21,0,0,1-.84-1,8.51,8.51,0,0,0-.85-1l-.15-.11c-.08-.06-.15-.13-.24-.19l-.23-.2-.13-.11-.29-.29c-.7-.85-1.42-1.65-2.18-2.42s-1.47-1.58-2.17-2.44a.62.62,0,0,0-.26-.35,1.71,1.71,0,0,1-.38-.31c-.61-.6-1.22-1.22-1.81-1.87l-1.77-1.94a1,1,0,0,1-.13-.2.78.78,0,0,0-.12-.19,5,5,0,0,0-.84-1l-1-.86h-.1a.44.44,0,0,0-.16,0c-.06,0-.09,0-.11.12.07.53.14,1.11.19,1.73s.08,1.18.08,1.67v.09s0,.14,0,.3,0,.34,0,.53,0,.35,0,.52,0,.26,0,.29V48.8s0,.09,0,.19a2.53,2.53,0,0,0,0,.32c0,.13,0,.24,0,.34a1.35,1.35,0,0,0,0,.2V50c0,.27,0,.57,0,.88a4.73,4.73,0,0,0,.1.88l.14.35v.37s0,.09,0,.18,0,.18,0,.28,0,.2,0,.29,0,.15,0,.18,0,.25,0,.49,0,.48,0,.74,0,.5,0,.73,0,.4,0,.5a1,1,0,0,1,.14.41,3.83,3.83,0,0,1,0,.47V57a.85.85,0,0,1,0,.13,1.55,1.55,0,0,0,0,.22,1.62,1.62,0,0,1,0,.23,1,1,0,0,0,0,.14.55.55,0,0,0-.27.56v.2A4.24,4.24,0,0,1,118,59c0,.21,0,.44,0,.67s0,.45,0,.66,0,.36,0,.45a6.73,6.73,0,0,0,.56,1.14,3.49,3.49,0,0,0,.84.89l.22.07.21,0s.09.07.24.14a1,1,0,0,0,.27.11h.89l.38,0,.5,0,.43,0,.2,0,.15.08.24.12c.08.05.16.08.24.12l.13,0,.3.12a1.74,1.74,0,0,1,.34.16,1.55,1.55,0,0,1,.28.2.33.33,0,0,1,.13.26.46.46,0,0,1-.2.33A2,2,0,0,1,124,65a3.6,3.6,0,0,1-.49.23,1.26,1.26,0,0,1-.33.09h-.1a.83.83,0,0,1-.24-.14.61.61,0,0,0-.27-.15H122L120.48,65A5.19,5.19,0,0,1,119,64.69Z"/><path class="cls-2" d="M153.06,64.2V64a1.3,1.3,0,0,1,.64-.59,3,3,0,0,1,.85-.18c.3,0,.61,0,.93,0a2.48,2.48,0,0,0,.84-.11,1.24,1.24,0,0,0,.6-.47,1.81,1.81,0,0,0,.24-1.05v-7.3s0-.14,0-.28,0-.3,0-.48,0-.34-.05-.48,0-.24,0-.28v-.37c0-.19,0-.36,0-.52s0-.31,0-.46,0-.31.05-.49,0-.37.07-.6a.29.29,0,0,1,.06-.15.35.35,0,0,0,.06-.14V50a2,2,0,0,0-.06-.31,1.65,1.65,0,0,1-.06-.33V44.84s0-.15,0-.34,0-.38,0-.6,0-.42-.05-.61,0-.29,0-.33V41.64a2.52,2.52,0,0,1,0-.29c0-.15,0-.3,0-.47s0-.32,0-.47a1.83,1.83,0,0,1,0-.33l.06-.22a1.48,1.48,0,0,0,.06-.25v-.24q0-.32-.09-.69c0-.25-.07-.51-.1-.77s-.07-.51-.11-.76-.07-.46-.11-.65a.74.74,0,0,0-.36-.53,2,2,0,0,0-.62-.21,4.27,4.27,0,0,0-.71-.07,2.58,2.58,0,0,1-.61-.08l-.24-.06-.54-.13-.62-.16-.5-.16c-.24-.07-.38-.14-.43-.23a1,1,0,0,1-.09-.51V34.1q0-.09.3-.18a.87.87,0,0,1,.36-.07h.92c.78,0,1.59,0,2.41.08l2.41.17a1.13,1.13,0,0,1,.26,0,1,1,0,0,1,.28.09h.1a.53.53,0,0,1,.25-.09,1.23,1.23,0,0,1,.26,0,.42.42,0,0,1,.14.08l.11.06h.26l.14-.06a5.26,5.26,0,0,1,.49-.15l.13,0a.54.54,0,0,1,.18,0l.23.06a1.13,1.13,0,0,1,.24.08l.15.07h1.93c.76,0,1.52,0,2.26-.07s1.49-.07,2.25-.07h.31a3.3,3.3,0,0,1,.39,0l.57,0,.58,0,.39,0a.41.41,0,0,1,.19-.09.6.6,0,0,1,.2,0h.06a1.51,1.51,0,0,1,.5.07,2,2,0,0,0,.63.07,6.92,6.92,0,0,0,1-.07,7,7,0,0,1,1-.07h.51a6.53,6.53,0,0,1,.85,0,1.57,1.57,0,0,1,.71.21s0,0,.07.11a.39.39,0,0,1,0,.14v.7A11.1,11.1,0,0,1,176.1,37a11,11,0,0,0-.14,1.71,5.31,5.31,0,0,0,.08.91,7,7,0,0,1,.07.94v.28a.92.92,0,0,1-.07.38c0,.12-.15.18-.32.18a.73.73,0,0,1-.57-.29,3.85,3.85,0,0,1-.42-.67,5.63,5.63,0,0,1-.31-.77,6.2,6.2,0,0,0-.24-.63.3.3,0,0,1-.11-.13l-.17-.24c-.06-.08-.11-.16-.16-.24l-.09-.13-.52-.91a5.19,5.19,0,0,0-.6-.85,3.17,3.17,0,0,0-.77-.65,2.66,2.66,0,0,0-1-.32c-.17,0-.47,0-.89,0H167.2c-.42,0-.7,0-.85,0l-.29,0-.48-.05-.49,0-.28,0-.17,0-.26,0-.28.05a.83.83,0,0,1-.2,0h-.38a1.94,1.94,0,0,1-.34,0l-.34,0a1.6,1.6,0,0,0-.7.15,1.17,1.17,0,0,0-.51.67v2.07s0,0,0,.11,0,.12-.05.19,0,.15-.05.21a.62.62,0,0,0,0,.11v.29a1.49,1.49,0,0,0,.06.23.58.58,0,0,0,.09.24V47s0,.11,0,.22,0,.23,0,.37l0,.41a1,1,0,0,0,.06.31.84.84,0,0,0,.11.4.57.57,0,0,0,.41.11h.36l.58,0,.87,0,1,0,1,0,.89,0h.6a5.12,5.12,0,0,1,.54-.1,4.88,4.88,0,0,0,.55-.12,2.14,2.14,0,0,0,.52-.19,1.51,1.51,0,0,0,.42-.35,1.88,1.88,0,0,0,0-.23l0-.34q0-.19,0-.36c0-.12,0-.2,0-.24V44a.89.89,0,0,1,.39-.75A1.36,1.36,0,0,1,171,43a.63.63,0,0,1,.58.33,4.26,4.26,0,0,1,.32.69,5,5,0,0,0,0,.81v2.55a5.43,5.43,0,0,0,0,.85c0,.08,0,.23,0,.47s0,.48,0,.74,0,.5,0,.73a4.73,4.73,0,0,0,0,.48,4.91,4.91,0,0,0,.14,1,4.48,4.48,0,0,1,.12,1v.14c0,.12,0,.29-.05.49s0,.41-.05.61,0,.37,0,.53,0,.25,0,.28a1.24,1.24,0,0,1-.26.54.66.66,0,0,1-.52.2,1.53,1.53,0,0,1-.82-.19,1.22,1.22,0,0,1-.45-.7V52.43a2.08,2.08,0,0,0-.07-.28,1.8,1.8,0,0,1-.08-.25,1.22,1.22,0,0,0,0-.23c0-.11,0-.22,0-.35s0-.24-.05-.36,0-.19,0-.23a.32.32,0,0,0-.1-.11l-.19-.16-.19-.15-.13-.09H169c-.78.09-1.56.16-2.35.21s-1.57.07-2.37.07h-.83a7.69,7.69,0,0,1-.83,0,6.32,6.32,0,0,0-.63.18.47.47,0,0,0-.28.19.79.79,0,0,0-.08.35c0,.15,0,.35,0,.59a1.85,1.85,0,0,1-.07.19l-.08.18v.15a.87.87,0,0,0,0,.13c0,.08,0,.16.05.25s0,.17.05.24,0,.12,0,.14v.26s0,.13-.07.3a2.29,2.29,0,0,0-.08.3v.14s0,.14,0,.29,0,.31.05.49,0,.34.05.48,0,.24,0,.28v3.83a1.77,1.77,0,0,0,0,.26c0,.14,0,.3,0,.46s0,.32.05.46a1.86,1.86,0,0,1,0,.26v1.8a1.14,1.14,0,0,0,.52.72l.45.06.68.1.69.08.45,0h.37c.57,0,1.14,0,1.69-.06s1.13-.06,1.74-.06h.92l.2.07.21,0,.15,0,.29,0,.29,0a.66.66,0,0,1,.17,0H173a.87.87,0,0,0,.22.11h.31a2.94,2.94,0,0,0,.44,0l.32-.07a.93.93,0,0,0,.57-.42,2.75,2.75,0,0,1,.36-.59l.09-.09s.1-.1.15-.17l.17-.16.1-.09a4.1,4.1,0,0,0,.45-.69,4.36,4.36,0,0,1,.45-.73s.06-.09.17-.19l.2-.2a2.34,2.34,0,0,0,.27-.45c.11-.22.22-.47.35-.75l.41-.87c.15-.3.29-.57.44-.82a4.83,4.83,0,0,1,.46-.61.61.61,0,0,1,.45-.25.23.23,0,0,1,.26.21,1.84,1.84,0,0,1,.05.41v.49c0,.11,0,.21,0,.3a.74.74,0,0,1-.12.29l-.65,4.62V63a2.11,2.11,0,0,0,.06.36c0,.19.06.28.06.3a1.18,1.18,0,0,1-.12.53.82.82,0,0,1-.39.37h-3.59l-.44,0-.77.09-.76.1-.43,0h-.39a1.16,1.16,0,0,0-.27,0l-.24.06h-6.81a23.11,23.11,0,0,1-2.74-.2,23.44,23.44,0,0,0-2.78-.17,9.23,9.23,0,0,0-1.18.08l-1.17.18-1.17.17a7.89,7.89,0,0,1-1.2.08h-1a1.88,1.88,0,0,1-.37-.38A.76.76,0,0,1,153.06,64.2Z"/><path class="cls-2" d="M213.39,64.69h-.74a.39.39,0,0,1-.2.12h-.19a4.78,4.78,0,0,1-.84-.08l-.84-.19h-.15l-.12,0-.21.05a1.87,1.87,0,0,1-.28.07,1,1,0,0,1-.27-.07,1.07,1.07,0,0,0-.25-.07h-.86l-.31,0a1.48,1.48,0,0,0-.38.12s0,0-.13.07a.34.34,0,0,0-.12.06l-.18,0c-.11,0-.18-.06-.19-.08h-.8a4.8,4.8,0,0,0-.85.07,6.15,6.15,0,0,1-.87.06h-.56l-.45,0a2.05,2.05,0,0,1-.43-.09.86.86,0,0,1-.33-.17.38.38,0,0,1-.12-.3.5.5,0,0,1,.17-.4.87.87,0,0,1,.4-.18,1.84,1.84,0,0,1,.47-.06l.4-.05.09,0,.15-.09.17-.09.1-.06.53,0a4.62,4.62,0,0,0,.65-.07,1.46,1.46,0,0,0,.54-.22.56.56,0,0,0,.23-.5.45.45,0,0,0-.1-.32.8.8,0,0,1-.19-.28A6.8,6.8,0,0,1,206,61a7.89,7.89,0,0,0-.39-.84l-1.19-2c-.38-.62-.81-1.26-1.29-1.9a.64.64,0,0,0,0-.15c0-.06,0-.11-.07-.12a.94.94,0,0,0-.07-.19.83.83,0,0,1-.08-.2l-.11-.13-.2-.24-.22-.23a.68.68,0,0,1-.12-.16,1.33,1.33,0,0,0-.05-.19c0-.11-.07-.21-.12-.33s-.07-.23-.11-.33a1,1,0,0,1,0-.21s-.05,0-.11-.1l-.23-.21-.25-.24-.21-.17-.26-.24a.47.47,0,0,0-.25,0,.63.63,0,0,0-.46.13l-.34.4-.14.14-.23.23-.23.25-.12.14a5.05,5.05,0,0,0-.61.88c-.13.25-.28.57-.46.95a.72.72,0,0,1-.1.17,1.41,1.41,0,0,1-.14.2s-.05,0-.07,0l-.08.09a.66.66,0,0,1,0,.2.62.62,0,0,1-.07.17l-.19.18a1.56,1.56,0,0,0-.2.17c0,.07-.1.18-.17.33s-.16.31-.24.49-.16.35-.22.5a2.38,2.38,0,0,0-.13.36.6.6,0,0,1,0,.16c0,.09,0,.17,0,.26s0,.17,0,.25a.32.32,0,0,1,0,.13l-.12.11-.22.2-.2.19c-.07.06-.1.1-.1.12a.53.53,0,0,0-.07.21,1.94,1.94,0,0,0,0,.22l-.22.32a1.81,1.81,0,0,0-.17.29,2.42,2.42,0,0,0-.1.32,1.83,1.83,0,0,0,0,.44.76.76,0,0,0,.22.56,2,2,0,0,0,.56.4,3,3,0,0,0,.66.25,3,3,0,0,0,.59.1h1.56a2.1,2.1,0,0,1,.53.28.58.58,0,0,1,.27.48.49.49,0,0,1-.31.42,2.08,2.08,0,0,1-.49.22h-1.27c-.63,0-1.24,0-1.82-.06s-1.19-.07-1.84-.07-1.46,0-2.16.07-1.41.06-2.12.06h-1.33a2.85,2.85,0,0,1-.52-.06,3.56,3.56,0,0,1-.58-.18,1.33,1.33,0,0,1-.48-.31.63.63,0,0,1-.21-.48v-.14a1.42,1.42,0,0,1,.85-.6,4.94,4.94,0,0,1,1.1-.12h1.25a2.91,2.91,0,0,0,1.25-.43,7.93,7.93,0,0,0,1.05-.78l1-.85a4.21,4.21,0,0,1,1.09-.67,1,1,0,0,1,.09-.2l.15-.31.16-.31c0-.09.08-.16.11-.2a1.1,1.1,0,0,1,.17-.18l.29-.28.29-.28a.82.82,0,0,0,.15-.16s0-.1.09-.2.08-.21.12-.33.08-.22.11-.33a1.64,1.64,0,0,0,.07-.21s0,0,.1-.08l.2-.15.22-.16a1.25,1.25,0,0,0,.12-.12,1.2,1.2,0,0,0,.13-.23,2.31,2.31,0,0,0,.12-.27.3.3,0,0,1,0-.1,1,1,0,0,1,0-.16c0-.06,0-.11.05-.16a.51.51,0,0,0,0-.09l.12-.11.21-.2.2-.19.13-.11a.59.59,0,0,1,.12-.21.7.7,0,0,0,.12-.2,1.91,1.91,0,0,1,.2-.29.81.81,0,0,1,.21-.23s0,0,.07-.09l.17-.15.16-.16a.18.18,0,0,0,.07-.09.59.59,0,0,0,.09-.26,1.48,1.48,0,0,0,.06-.25,1.91,1.91,0,0,1,.32-.51c.14-.15.27-.31.39-.46a2.44,2.44,0,0,0,.32-.47,1.15,1.15,0,0,0,.14-.57v-.33l-.2-.26a1.85,1.85,0,0,1-.17-.23,4.23,4.23,0,0,1-.43-.94,2.43,2.43,0,0,0-.52-.89c-.15-.19-.3-.37-.47-.55a2.47,2.47,0,0,1-.41-.62.47.47,0,0,1-.06-.1.84.84,0,0,1-.08-.19c0-.08-.05-.15-.07-.21a.62.62,0,0,1,0-.11,2.51,2.51,0,0,0-.38-.61,2.93,2.93,0,0,1-.42-.56s0-.06-.07-.17,0-.19,0-.22a.73.73,0,0,0-.09-.18l-.15-.27-.16-.28a.82.82,0,0,0-.11-.17l-.09-.12-.17-.2-.16-.21-.09-.11c-.11-.19-.21-.39-.31-.6a2.16,2.16,0,0,0-.35-.55,1.59,1.59,0,0,0-.27-.27,1.17,1.17,0,0,1-.24-.24,2,2,0,0,1-.19-.34c-.09-.19-.16-.35-.2-.46a9.85,9.85,0,0,0-.78-1.44c-.29-.45-.57-.9-.86-1.37a3.21,3.21,0,0,1-.26-.5c-.09-.21-.18-.42-.29-.64a5,5,0,0,0-.31-.57,1,1,0,0,0-.33-.34l-.56-.33a1.38,1.38,0,0,0-.57-.2.88.88,0,0,0-.33.06.81.81,0,0,1-.33.06h-.26c-.26,0-.53-.06-.81-.11a3.38,3.38,0,0,1-.76-.23,1.43,1.43,0,0,1-.56-.44,1.13,1.13,0,0,1-.23-.76v-.08a.24.24,0,0,1,0-.08.19.19,0,0,1,0-.08s.06-.07.2-.14l.31-.15h.11l.23.14a.83.83,0,0,1,.18.15c1.14.12,2.29.19,3.43.22s2.29,0,3.44,0l2.09,0c.7,0,1.4-.06,2.11-.13l.3-.05a1.78,1.78,0,0,1,.36,0h1.27a.16.16,0,0,1,.12.1.59.59,0,0,1,0,.14,1.83,1.83,0,0,1,0,.21.19.19,0,0,1-.12.16.33.33,0,0,1-.13,0l-.21,0a1.29,1.29,0,0,0-.21.06.28.28,0,0,0-.11,0,6.5,6.5,0,0,0-1.17.35,8,8,0,0,1-1.15.36l-.13,0a1.55,1.55,0,0,1-.23.06l-.25,0-.14,0-.25,0-.27.06a1.77,1.77,0,0,1,0,.19c0,.09,0,.17,0,.22v.21a.59.59,0,0,0,0,.14,6.15,6.15,0,0,0,.78,1.53,10.68,10.68,0,0,1,.88,1.46c.18.33.37.66.57,1s.4.63.6.93a.3.3,0,0,1,0,.1.37.37,0,0,0,.11.15,2,2,0,0,0,.12.33l.14.34.14.14.23.23.24.24a.39.39,0,0,1,.11.15.65.65,0,0,1,.09.26.79.79,0,0,0,.1.26,2.37,2.37,0,0,0,.26.55,8.65,8.65,0,0,0,.51.78,7,7,0,0,0,.59.69c.2.19.35.29.46.29h.1a1.72,1.72,0,0,1,.27-.13.57.57,0,0,0,.2-.11.42.42,0,0,0,.07-.11l.07-.16.06-.15.05-.1.8-.8a1.48,1.48,0,0,0,.13-.24l.14-.27a.4.4,0,0,1,.1-.18l.14-.19a7.66,7.66,0,0,0,.5-.76c.15-.26.28-.52.41-.8a.63.63,0,0,1,0-.13l.08-.25c0-.08,0-.17.08-.25l.06-.17.2-.3a1.25,1.25,0,0,1,.16-.24l.15-.17a1.17,1.17,0,0,1,.14-.22l.23-.33.24-.32a.8.8,0,0,1,.15-.16.3.3,0,0,0,.08-.14.35.35,0,0,1,.07-.15,2.42,2.42,0,0,1,0-.24.51.51,0,0,1,.1-.27,2.6,2.6,0,0,1,.26-.45c.1-.15.19-.3.28-.46s.17-.32.24-.48a1.4,1.4,0,0,0,.1-.54,1.09,1.09,0,0,0-.28-.81,2.14,2.14,0,0,0-.72-.42,4.51,4.51,0,0,0-.93-.18l-.94-.1a3,3,0,0,1-.72-.2.46.46,0,0,1-.28-.46,1.12,1.12,0,0,1,.08-.43.36.36,0,0,1,.39-.23h.06a2.22,2.22,0,0,0,.44.06l.54.05.47,0h.21l.41.09a1,1,0,0,1,.39.17h2.93l1,0c.36,0,.73-.06,1.1-.11a6.73,6.73,0,0,0,1.08-.24,3.72,3.72,0,0,0,.95-.4h.69c.33,0,.65,0,1,.05a2.18,2.18,0,0,1,.88.32.3.3,0,0,1,0,.18v.13c0,.25-.06.41-.19.48a1,1,0,0,1-.44.15l-.52.07a.63.63,0,0,0-.43.26,8.23,8.23,0,0,0-.86.15,9.07,9.07,0,0,0-.93.26q-.47.16-.9.36a7.3,7.3,0,0,0-.75.4,1.58,1.58,0,0,0-.25.24l-.27.3a.77.77,0,0,0-.14.17l-.14.2a.69.69,0,0,1-.3.22,1.35,1.35,0,0,0-.32.19,3,3,0,0,0-.66.49l-.06.12-.08.12a.89.89,0,0,1-.17.13l-.2.14-.51.51a.52.52,0,0,0-.06.27,1.71,1.71,0,0,1,0,.25l-.17.15-.25.25-.25.24a.57.57,0,0,0-.13.16l-.11.14a2.35,2.35,0,0,0-.14.25c-.23.34-.46.66-.7,1l-.72,1L206,43l-.16.23-.15.23-.08.14-.08.14-.12.23-.12.25-.05.14a3.27,3.27,0,0,1-.44.54l-.55.59c-.19.19-.36.38-.51.56a1.67,1.67,0,0,0-.32.51,4.43,4.43,0,0,0-.19.56,2.29,2.29,0,0,0-.1.65,1.45,1.45,0,0,0,.16.72,2.92,2.92,0,0,0,.37.57,5.79,5.79,0,0,0,.48.51,2.37,2.37,0,0,1,.41.57,1.17,1.17,0,0,1,.1.2l.13.33a2.19,2.19,0,0,1,.12.33.69.69,0,0,1,.06.21,1.25,1.25,0,0,0,.19.17l.2.18a.27.27,0,0,0,0,.1l.08.17.08.15.06.09a4.21,4.21,0,0,0,.56.79,9,9,0,0,1,.59.79,8.61,8.61,0,0,1,.46.79c.15.28.29.56.42.83a3.57,3.57,0,0,0,.45.67,5.23,5.23,0,0,1,.5.64c.16.32.31.64.45,1s.28.65.43,1a.75.75,0,0,0,.18.28,1.51,1.51,0,0,1,.21.23,5.69,5.69,0,0,1,.23.55c.08.2.16.4.25.6a5.43,5.43,0,0,0,.3.59,3,3,0,0,0,.35.48l.17.14.3.28c.11.1.2.2.29.29l.18.17.1.25a3.89,3.89,0,0,0,.69.64,2,2,0,0,0,.66.31,4.4,4.4,0,0,0,.74.12c.26,0,.56,0,.91.1l.16.05.18,0a.59.59,0,0,0,.26,0h.77a.57.57,0,0,0,.25,0,.3.3,0,0,1,.21.14.62.62,0,0,1,.05.25v.2a.55.55,0,0,1-.38.61,3.09,3.09,0,0,1-.83.11,4.52,4.52,0,0,1-1.12-.13A4.53,4.53,0,0,0,213.39,64.69Z"/><path class="cls-2" d="M237.66,64.55h-1.11l-.31,0-.44.09-.19.07-.18.06-.13-.06-.09-.05-.07,0h-.41l-.48,0a1.28,1.28,0,0,0-.48.11h-2.83a.24.24,0,0,1-.18-.1.83.83,0,0,1-.16-.21,2.1,2.1,0,0,1-.13-.26.69.69,0,0,1-.05-.21.9.9,0,0,1,.26-.64.85.85,0,0,1,.65-.26h2.83a2,2,0,0,0,.75-.17.79.79,0,0,0,.52-.55,3.07,3.07,0,0,1,0-.38c0-.17,0-.35,0-.54s0-.38,0-.55,0-.29,0-.36v-.76c0-.08,0-.27,0-.57s0-.62,0-1,0-.67,0-1,0-.49,0-.57V50.87a1.05,1.05,0,0,0,0-.13,1.12,1.12,0,0,1,0-.21c0-.07,0-.14-.05-.2s0-.1,0-.11V48c-.05-1.8-.12-3.59-.19-5.36s-.1-3.57-.07-5.41l-.21-.47-.12,0-.25,0-.3,0-.23,0-.41,0-.63,0-.62,0a3.69,3.69,0,0,0-.41,0,.36.36,0,0,1-.19.1l-.18,0-.18,0-.29,0-.3,0-.17,0-.25.06-.33.08a8.66,8.66,0,0,1-1.51.19,4.93,4.93,0,0,0-1.46.3l-.15.12a.43.43,0,0,1-.12.11.51.51,0,0,1-.27.1l-.24,0a1.23,1.23,0,0,0-.62.49c-.13.22-.28.45-.43.68l-.05.1A1.4,1.4,0,0,1,225,39a1.33,1.33,0,0,0-.12.16.3.3,0,0,0-.06.09,5.12,5.12,0,0,0-.35.64,8.42,8.42,0,0,1-.45.76,3.3,3.3,0,0,1-.52.63.85.85,0,0,1-.6.27.38.38,0,0,1-.29-.11.69.69,0,0,1-.15-.28,1.28,1.28,0,0,1-.07-.34c0-.11,0-.21,0-.3a2.2,2.2,0,0,1,.24-1,6.26,6.26,0,0,0,.42-1s0-.15.07-.32.07-.37.11-.56.09-.37.13-.55a2.35,2.35,0,0,0,.06-.33.75.75,0,0,1,.07-.18.92.92,0,0,0,.07-.19s0-.15,0-.32.05-.35.07-.53.06-.36.09-.53a1.35,1.35,0,0,1,.06-.32q0-.21.09-.51a3.76,3.76,0,0,1,.15-.6,1.31,1.31,0,0,1,.3-.48.72.72,0,0,1,.52-.2h.07l.1.11.14.21.22.33.2.32.1.16a3.61,3.61,0,0,0,.31.33l.34.33a1.11,1.11,0,0,0,.44.24,2.38,2.38,0,0,0,.53.11l.57,0a4.44,4.44,0,0,1,.53,0l.32,0,.5,0,.5,0a2.17,2.17,0,0,1,.3,0h12.57a12.38,12.38,0,0,0,1.33.12c.48,0,1,.05,1.4.05l.6,0,.53,0s.07,0,.12.08.1.07.13.07h.14l.26-.07.25-.08h.25a3,3,0,0,1,.43,0l.43,0a1.9,1.9,0,0,0,.41,0,1.3,1.3,0,0,0,.41-.13l.21-.12.18-.12a2.88,2.88,0,0,0,.14-.4,3.71,3.71,0,0,1,.22-.55,1.72,1.72,0,0,1,.32-.46.47.47,0,0,1,.45-.15l.1.05.17.07.17.07c.05,0,.07,0,.07,0a17.15,17.15,0,0,0,.27,2.27c.13.74.26,1.48.39,2.2a2.27,2.27,0,0,0,.15.67q.1.3.24.6a5.46,5.46,0,0,1,.21.61,2.6,2.6,0,0,1,.09.71,1.06,1.06,0,0,1,0,.15,1,1,0,0,1,0,.24l0,.23a1.36,1.36,0,0,0,0,.18q0,.39-.51.39a.34.34,0,0,1-.2-.08,1.8,1.8,0,0,1-.18-.2,1.43,1.43,0,0,1-.15-.22l-.09-.16-.06-.12c0-.07,0-.14-.08-.22s-.05-.14-.08-.2a.31.31,0,0,1,0-.12.42.42,0,0,0-.06-.14c0-.07-.06-.1-.09-.1l-.46-.76c-.16-.26-.32-.52-.49-.78a8.11,8.11,0,0,0-.54-.73,5.17,5.17,0,0,0-.64-.6,3.45,3.45,0,0,0-1-.43,6.3,6.3,0,0,0-1.05-.21,9.46,9.46,0,0,0-1.07-.06l-1,0-.22,0-.32,0-.32,0-.19,0H242c-.22,0-.45,0-.69,0a4.55,4.55,0,0,0-.67.08,1.76,1.76,0,0,0-.56.19.74.74,0,0,0-.32.36v.76a2.34,2.34,0,0,1-.14.28.88.88,0,0,0-.1.23l0,.09s0,0,0,.06v.1a.12.12,0,0,0,0,.08.19.19,0,0,0,0,.08c0,.06,0,.15,0,.28s0,.27,0,.43,0,.3,0,.43,0,.22,0,.28V48.8a2,2,0,0,1,.12.55,4.61,4.61,0,0,1,0,.52v.41a3.37,3.37,0,0,1-.08.81,3.67,3.67,0,0,0-.08.75,1.21,1.21,0,0,0,0,.18.83.83,0,0,1,0,.12s0,.09,0,.19a2.53,2.53,0,0,1,0,.32c0,.11,0,.22,0,.31s0,.16,0,.19v4.14a2.38,2.38,0,0,0,.08.29c0,.16.07.26.07.29a1.64,1.64,0,0,1-.07.2.84.84,0,0,0-.08.21v1.27a3,3,0,0,0-.09.33,2.57,2.57,0,0,0,0,.32v.15c0,.12,0,.29,0,.5s0,.42,0,.61,0,.38,0,.54a2,2,0,0,0,0,.27c0,.11,0,.23,0,.34a.83.83,0,0,0,.06.32.53.53,0,0,0,.17.25.52.52,0,0,0,.35.1h2.83a.91.91,0,0,1,.65.26.82.82,0,0,1,.25.6.67.67,0,0,1-.27.61,1.36,1.36,0,0,1-.69.17h-.6l-.3,0-.53-.08-.51-.09-.3,0h-1.29l-.14,0-.28,0-.29-.05-.17,0Z"/><path class="cls-2" d="M343.54,25.56l.79-.16.62.66s-.08.09.29.5l.38.42a1.08,1.08,0,0,0,.21.45l.2.34.42.66c.12.21-.17.13.29.42l.46.29.45.41v.71l.84.58s-.17-.08.2.38l.38.45a2.35,2.35,0,0,0,.37,1,3.32,3.32,0,0,0,.63.46,12.55,12.55,0,0,0,.74,1.45,2.06,2.06,0,0,1,.46.58c.08.21-.33-.33.33.38s.88.62,1,1,.46.7.5.83l0,.12s.33-.2.58.46a2.55,2.55,0,0,0,.54,1c.29.41.63,1,.63,1a9.06,9.06,0,0,1,.7,1l.58,1,.5.79a3.13,3.13,0,0,1,.46.75,3.48,3.48,0,0,0,.71.87,5.07,5.07,0,0,0,.37,1l.21.37.79,1.33A7.32,7.32,0,0,0,360,48v1a2.14,2.14,0,0,0-.79,1.29v.62l-.62.79-.13.75-1.25,1.2a3,3,0,0,0-.66,1.25l-.5,1.08s-.41.29-.41.58.52,0,.32.17l-.45.46-.66,1.08-.38.75-.25.49L354,60l-.41.46-.83,1.45-.3.42a1.84,1.84,0,0,0-.74,1.21,5.91,5.91,0,0,1-.88,1.16.48.48,0,0,0-.25.33l-.25.42c-.37,0-.49.87-.49.87l-.17.58c-.5.34,0,.21-.5.34a2.44,2.44,0,0,0-1,.58,1.74,1.74,0,0,1-.37.66c-.21.17.17,0-.21.17a.63.63,0,0,0-.37.5,3.27,3.27,0,0,0-.25.46,5.39,5.39,0,0,1-.42.62c-.62.29-.7.54-.7.54L345.41,72l-.42.25a1.78,1.78,0,0,0-.41.42l-.08.16-.17.21-.54.67v.79c-.54,0-.67-.59-.67-.59v-1s-.12-.08,0-.42l.13-.33.25-.71.29-1.24V69l.41-.66.21-.5.17-1,.29-.41.46-.88.95-1.66.21-.54.29-.62s.42-1.67.54-1.87a7.12,7.12,0,0,1,.5-.63s0,.13.37-.41l.34-.54.16-1.67.25-.37.38-.33c.45-.5.16-.25.45-.5s.17,0,.3-.25-.21.5,0,0,.95-1.79.95-1.79l.51-.66.36-.54.59-.67.29-.75.37-.7.17-.5V50l-.54-.31h-.38l-1.29-.52-.54,0-.91-.16-.37-.21a6.37,6.37,0,0,1-.84-.25l-.58-.38-1.33-.37a1.87,1.87,0,0,1-.66.13c-.21,0-.09,0-.5-.09s.08,0-.42-.08l-.5,0,.42-.38.79-.25s1.16-.66,1.54-.83,1.37-.45,1.37-.45l.87-.3.42-.2,1-.17.63-.17.45-.29s.16-.2,0-.33a1.52,1.52,0,0,1-.25-.46l-.24-.54-.22-.5-.62-1.08-.92-1.7-.41-.46s0,.21-.25-.46l-.29-.66-.63-.71-.41-.83-.37-.5-.25-.41-.75-1-.17-.71-.12-.41-.5-1.21-.46-.75-.33-1-.5-1.25-.08-.42-.05-.37a7.6,7.6,0,0,1-.37-1.37c0-.33-.08-1.54-.08-1.54l-.21-.46Z"/><path class="cls-2" d="M329.36,38.32l.59.54,1,.59.79.54h.21l.46.45.62,1.09.79.66s-.25-.08.42.42l.66.49a1,1,0,0,0,.34.71c.33.25,0,.42.45.79a5,5,0,0,0,.46.38,4.44,4.44,0,0,0,.58.45l.71.5h.21l1,.92.38.41.54.38v.54a1.82,1.82,0,0,1-.21.29l-.33.25a13.57,13.57,0,0,0-.79,1.28,5.65,5.65,0,0,1-.92.88v.37l-.25.42a2.41,2.41,0,0,1-.29.37l-.12.13-1.21,1.24a2.86,2.86,0,0,0-.33.54l-.12.29-1.21,1.58-.08.42-.38.42L333,57a4.09,4.09,0,0,0-.58.75,11.72,11.72,0,0,1-.79,1.12l-.83.92,0-1,.33-.83s-.08.08,0-.42l.09-.5.33-.75.45-1.41.25-.46.3-.58.24-.79.75-1.83.25-.46-.87-.33-.79-.12-.67-.09-.37,0-1.75-.29h-3.65a12.79,12.79,0,0,0-1.46-.25h-.66l-.5,0-1.25-.08-.83-.21-.58-.27-.5-.27,1.91-.71a2,2,0,0,1,.42,0l.83-.12,1-.29.62-.25L326,47l1.79-.5.66-.25.91,0L330.9,46l1-.16-.42-1.17a11.24,11.24,0,0,1-1.16-1.82s-.17,0-.54-.88a6.11,6.11,0,0,1-.38-.91l0-.21A1.12,1.12,0,0,0,329,40c-.37-.5-.21-.09-.37-.5l-.17-.42s-.08-.45-.12-.75-.09-.7-.09-.7Z"/></g></svg>