<svg xmlns="http://www.w3.org/2000/svg" viewBox="0 0 470 80"><defs><style>.cls-1{fill:#ffcc45;}.cls-2{fill:#f1cb52;}</style></defs><g id="content"><path class="cls-1" d="M31.86,16.69l.5-.33h9L43,16l1.5.33h1.66a4,4,0,0,0,1.5,0l.66-.17s3.16.67,3.66.17S54.14,16,54.14,16l1.83.32,2-.16L59.13,16l1.66,0a6.69,6.69,0,0,0,1.66,0c.5-.14-.83-.31.5-.14s.17,0,1.33.17.34.16,1.17.16a10.07,10.07,0,0,1,2.32.5h1.5l2.33,1.83.66.61.67.72.66.5.67.55,1.16.5s.11,1.22.45,1.11l.33-.11.55.5.39.5.72,1,.28.6.77,1.11.39.61s0,.83.28.89a.48.48,0,0,1,.33.39,3.32,3.32,0,0,0,.39,1c.17.11.17.22.28.38a.59.59,0,0,1,0,.45A9.14,9.14,0,0,1,81,31v.5s.27,1.16.27,1.33v.55a9.73,9.73,0,0,1,0,1.83c-.11.17.21.28.05.5s.25,1.11,0,1.28a.67.67,0,0,0-.21.61,1.58,1.58,0,0,1-.11.49V39.8a10.87,10.87,0,0,1,0,1.11l-.45.61s0,.18-.16.48-.23,1.07-.28,1.24a3.72,3.72,0,0,1-.61.66l-.33.78-.72,1.5-.5.88a.81.81,0,0,1-.22.61l-.28.34h0l-.56.44s-.49,1.13-.55,1.23a4.87,4.87,0,0,1-.5.47l-.44.46-.56.33a1.54,1.54,0,0,0-.55.34c-.22.22-.94,1.1-.94,1.1a3.2,3.2,0,0,1-.78,1.11l-.44.28-.67.44-.77.83a11.24,11.24,0,0,1-1.83.84H66.61s-.17-.23-.78,0,0,.22-.6.22h-1a1.69,1.69,0,0,0-.83,0h-5.6l-.55-.28-.67-.06-.72,0s0,.61-.44.39a1.61,1.61,0,0,0-.72-.22l-.66-.06-.61-.22a1.64,1.64,0,0,1-.39-.06c-.22,0-1.06-.11-1.06-.11l-.77,0-1.11.11h-.78l-1,.22-.72-.17h-.89l-.55-.27h-.56l-.83.11-.72,0-1,0-.66,0h-.67l-.5.06a2.22,2.22,0,0,1-.66.22,3.44,3.44,0,0,0-.5,0c-.5.06-.22.39-.5.06a.87.87,0,0,0-.61-.33l-1-.33H36.68l-.88-.06L35,55l-1,.28-.77,0L31.86,55l-.61-.5-.72-.22L30,53.71v-1.6s.33-.45.55-.72a6.42,6.42,0,0,0,.39-.56,6.07,6.07,0,0,1,1.77-.66,2.6,2.6,0,0,1,.72-.17l1.11.17H36l.66-.11h.94l1.5,0a1.1,1.1,0,0,1,.56-.11,4.16,4.16,0,0,0,.66,0,1.7,1.7,0,0,0,.72,0,4,4,0,0,1,.83,0H43.5l1.5.06a.58.58,0,0,0,.49,0A1.36,1.36,0,0,1,46.1,50c.72-.11.34-.11.72-.11a7.82,7.82,0,0,1,1.17.17L49.1,50a4.19,4.19,0,0,1,.5.06h.55a2,2,0,0,1,.67-.11h.66L52,50l.84.06.49-.11h1.17l1.16,0,.94,0,.61.22,1-.11.83.11,1-.06.72,0,1.71,0L63.51,50h1.33l.66-.11h0a4.2,4.2,0,0,0,1-.21,6.24,6.24,0,0,1,1-.46,3.83,3.83,0,0,0,.72-.27,3.73,3.73,0,0,0,.55-.28,2.25,2.25,0,0,0,.5-.44c.44-.5.06-.28.44-.5s1.17-.61,1.17-.61l.61-.67.16-.27.95-.83a4.42,4.42,0,0,1,.66-1.22,2.35,2.35,0,0,0,.45-.5l.44-.56.11-.66.39-.78.61-1,.33-.63A8,8,0,0,0,76,38.92V37.25L76,36V34.48c0-.55-.11-.88,0-1s0-1,0-1.16V32.1l-.5-.94-.39-.5a2.1,2.1,0,0,1-.33-.78,2.63,2.63,0,0,0-.17-.72l-.33-.5s-.11.06-.39-.44l-.28-.5-.27-.22s-1.39-1-1.33-1.22l.05-.22-.61-.72a2.38,2.38,0,0,1-.55-.39l-.39-.33s-.11.05-.44-.34l-.34-.38-.11-.28-.55-.22-1.16-.22-.67-.39-.78-.61-.77-.28-1.5-.28A8,8,0,0,0,63,22s.61.22-.61,0-.66-.23-1.22-.23,0-.11-.55,0l-.55.12h-.78l-1.61-.23-.83.11L55.69,22h-.94l-.83.05L52.81,22l-.72.05-.72-.16-.5,0L50,22,49.1,22l-1.28.22L47,21.85,46.1,22l-1.44-.11-1-.17-.78.06s.06.06-.72.11-.44.11-.77.06,0-.17-.33-.06l-.39.11-1.28.17-1.22-.39-.5-.11s.12-.06-.61,0l-.72.05-1.44-.33-.66-.16L33,21.13a5.12,5.12,0,0,1-.78-.34l-.55-.27-.89-.34-.83-.72-.5-.11V18.24L30,17.8l.39-.28.5-.5Z"/><path class="cls-1" d="M29.75,37.92V39.8c0,.78.34.22,0,.78l-.33.55h0V42l-.5.8-.55,1.44-.22.5-.22.61-.28,1.33-.28.72-.44.88-.33,1.4-.39.82v1.33l-.5.89v.5c.16.55.39,1.55.39,1.55l.11.5.33.55.83,1.11.44.94v.61l.34,1.22A8.48,8.48,0,0,1,29,60.92l.06.22s.05,1.5.05,1.66v.61l.28.83v3.39l-.55-.39-.72-.72L27.81,66c-.88-1.49,0-.77,0-.77s-.33.38-.88-.72-.45-.84-.45-.84l-.11-.27-.27-.61-.89-.83V61.2l-.61-.34a6.94,6.94,0,0,1-.83-.94l-.06-.16h0l-.66-.95-.28-.88-.61-.67-.55-.5-.5-.61-.89-.61L20,54.82l-.39-1-.33-.55v-.45l.44-.5.89-1.38a5.4,5.4,0,0,0,.94-.83l.17-.23.94-1.49.33-.56.28-.72.72-.72.33-1.11,1.11-1.16v-.61l.5-.66.39-.5.77-1a3,3,0,0,1,.67-.94l.33-.22.39-.56.5-1.16Z"/><path class="cls-2" d="M106.68,49.49a.5.5,0,0,1,.1-.31,1.18,1.18,0,0,1,.25-.25,3.37,3.37,0,0,1,.32-.19l.3-.14c.34,0,.7,0,1.08,0a3.56,3.56,0,0,0,.57,0,1.29,1.29,0,0,0,.5-.17,1,1,0,0,0,.35-.37,1.34,1.34,0,0,0,.12-.62V43.74a.74.74,0,0,1,0-.25,1.75,1.75,0,0,1,0-.25v-.17s0-.1,0-.2,0-.22,0-.35l0-.35c0-.11,0-.18,0-.21s0-.24,0-.48,0-.49,0-.76,0-.52,0-.77,0-.41,0-.5V39c0-.1,0-.27,0-.53s0-.54,0-.83,0-.55,0-.82,0-.43,0-.53a.54.54,0,0,0,0-.11c0-.06,0-.12,0-.19a1.62,1.62,0,0,1,0-.19c0-.06,0-.1,0-.12v-.18s0-.07,0-.14,0-.13,0-.21l0-.21a1,1,0,0,1,0-.15V30.26a3.1,3.1,0,0,1,.1-.76,2.75,2.75,0,0,0,.1-.79,1.86,1.86,0,0,0-.11-.71,1.3,1.3,0,0,0-.49-.55,1.35,1.35,0,0,1-.34,0h-1a1,1,0,0,1-.31,0,1.13,1.13,0,0,1-.35-.08,3.79,3.79,0,0,1-.42-.18,2.5,2.5,0,0,1-.39-.23.81.81,0,0,1-.23-.22.9.9,0,0,1,.44-.38,1.66,1.66,0,0,1,.51-.07h.6l.21-.05.19-.06.08,0,.13,0,.11,0,.07,0H111a.81.81,0,0,0,.25.09l.28,0h.54l.13,0,.14.05h1.54l.27,0,.27,0,.17,0,.22-.11h1.62a1.24,1.24,0,0,1,.27-.06l.23,0,.07,0,.06,0a9,9,0,0,1,2.69.4l.09.1a5.86,5.86,0,0,0,.84.48l.85.42,0,0a.23.23,0,0,0,.08.07.41.41,0,0,0,.07.15.77.77,0,0,1,.1.14.1.1,0,0,0,0,.05s0,.05.07.05c.24.3.46.6.65.89a6.77,6.77,0,0,1,.52.9,5.79,5.79,0,0,1,.34,1,5.49,5.49,0,0,1,.11,1.11v.11a1,1,0,0,1,0,.14q0,.1,0,.24a1.66,1.66,0,0,1,0,.24c0,.08,0,.13,0,.16v.61a1.19,1.19,0,0,1-.11.26,1,1,0,0,1-.1.21.85.85,0,0,0-.1.18l-.3.82a2.65,2.65,0,0,1-.43.76l-.17,0c-.1,0-.15,0-.15,0l-.14.15-.15.16-.13.07a1.36,1.36,0,0,0-.25.11l-.25.12-.15.09-.21.18-.29.28c-.11.1-.2.2-.29.29l-.18.21s0,.07.11.09l.2,0,.22,0,.16,0s.06.08.17.15l.22.16a.7.7,0,0,0,.14.15l.14.15.08.05.15.09.16.09.11,0a5,5,0,0,1,.84.87c.25.34.49.67.7,1a.4.4,0,0,1,.07.09l.12.16a1.83,1.83,0,0,0,.13.16l.07.09a2.51,2.51,0,0,1,.25.6,6.87,6.87,0,0,1,.22.81c.07.28.12.56.16.82a4.6,4.6,0,0,1,.06.63,1.58,1.58,0,0,1-.07.47c0,.17-.09.32-.13.46a1.91,1.91,0,0,0-.06.27c0,.12,0,.19,0,.21v.48a2.69,2.69,0,0,1-.17.46,3.49,3.49,0,0,1-.24.44l-.28.48a5.8,5.8,0,0,1-.34.52,5.9,5.9,0,0,1-.39.46,2.24,2.24,0,0,1-.42.36l-.19.11-.31.17-.32.15a.46.46,0,0,1-.18.07l-.23.14-.18.1-.2.09a1.58,1.58,0,0,1-.28.08l-.43.08-.5.09-.59.11H113.6l-.13,0-.21,0-.21,0-.15,0H110a2.37,2.37,0,0,1-.42.08h-1.41l-.15,0-.15,0h-.5a1.46,1.46,0,0,1-.3-.07.93.93,0,0,1-.26-.15A.28.28,0,0,1,106.68,49.49Zm6.92-2.2a2.48,2.48,0,0,0,.11.8,3.6,3.6,0,0,0,.36.7.31.31,0,0,0,.05.11.3.3,0,0,1,.06.09l.17,0h.17a1,1,0,0,0,.56-.14,1.37,1.37,0,0,1,.55-.17l.53,0,.47,0a3.85,3.85,0,0,0,.47-.08,2,2,0,0,0,.5-.19l.12-.07.18-.12.18-.11a.24.24,0,0,1,.11,0l.11-.06.18-.08.19-.06.1,0a.8.8,0,0,0,.21-.14l.18-.14a2.19,2.19,0,0,1,.16-.2l.28-.34c.11-.12.2-.25.3-.37a2.1,2.1,0,0,1,.22-.28l.13-.16a.26.26,0,0,0,.07-.12,3.2,3.2,0,0,0,.21-.64,3.4,3.4,0,0,1,.2-.64V43.35a.34.34,0,0,1-.11-.18,1,1,0,0,1,0-.21,1.37,1.37,0,0,1,0-.19,1,1,0,0,0,0-.15v0a1.1,1.1,0,0,0-.18-.46.93.93,0,0,1-.14-.49s0,0,0-.06a.17.17,0,0,0,0-.07l-.18-.23q-.14-.18-.3-.36l-.31-.34-.21-.22s0-.07-.13-.15-.12-.13-.12-.15a.37.37,0,0,1-.06-.15c0-.08,0-.13,0-.16a.36.36,0,0,1-.12-.09.28.28,0,0,0-.1-.08,4.37,4.37,0,0,0-.77-.49,6.85,6.85,0,0,0-.85-.34,9,9,0,0,0-.89-.25l-.89-.22-.12,0-.18-.06-.18-.06a.28.28,0,0,1-.1,0,.59.59,0,0,0-.31.06,1.42,1.42,0,0,0-.33.21,1.1,1.1,0,0,0-.26.27.48.48,0,0,0-.1.26v2.31a1.65,1.65,0,0,1,.07.21c0,.1,0,.16,0,.18v.11l0,.09a.42.42,0,0,1-.07.11c0,.18,0,.34,0,.49s0,.29,0,.44a3.4,3.4,0,0,1,0,.45,3.58,3.58,0,0,1-.11.48.22.22,0,0,0-.05.08.62.62,0,0,0,0,.11v0a.75.75,0,0,0,0,.26,1,1,0,0,1,0,.3v.16a.83.83,0,0,1,0,.14.63.63,0,0,0,0,.14.5.5,0,0,0,0,.16.54.54,0,0,1,0,.15v.33a7.81,7.81,0,0,1,0,.83A8.13,8.13,0,0,0,113.6,47.29Zm.19-13.09V35c0,.35,0,.7,0,1.05a8.43,8.43,0,0,0,.1,1,.35.35,0,0,0,.18.28.54.54,0,0,0,.33.11,1.78,1.78,0,0,0,.74-.14l.68-.25a11.69,11.69,0,0,0,1.25-.47,4,4,0,0,0,.86-.5,4.14,4.14,0,0,0,.72-.68c.22-.26.48-.59.77-1a4.31,4.31,0,0,0,.32-.4,1.08,1.08,0,0,0,.18-.44v-1a1.72,1.72,0,0,1,0-.2c0-.12.06-.18.06-.19v-.11c-.05-.21-.1-.44-.15-.68s-.1-.47-.16-.68a4.26,4.26,0,0,0-.19-.49l-.31-.59c-.12-.2-.23-.38-.35-.55a1,1,0,0,0-.3-.32.5.5,0,0,0-.17,0c-.09,0-.14,0-.14-.06l-.09-.19a.84.84,0,0,1-.08-.21l-.06,0-.05,0-.83-.38c-.28-.12-.56-.26-.86-.4L116,27.4l-.46-.06-.47-.07-.29,0h-.08a.75.75,0,0,0-.63.28,1,1,0,0,0-.18.71c0,1,0,2-.05,3S113.79,33.19,113.79,34.2Z"/><path class="cls-2" d="M129.19,49.34a.45.45,0,0,1,.1-.27.72.72,0,0,1,.18-.2l.24,0a.82.82,0,0,0,.26-.05,3.54,3.54,0,0,0,.69-.27l.66-.34c.22-.09.42-.17.59-.22a2,2,0,0,0,.45-.19,1.62,1.62,0,0,0,.37-.29,2.82,2.82,0,0,0,.37-.53,1.47,1.47,0,0,0,.13-.52,3.42,3.42,0,0,1,.06-.48.2.2,0,0,1,.05-.09s0-.07,0-.09,0-.09.06-.17a1.19,1.19,0,0,0,0-.14.75.75,0,0,1,0-.11,1.1,1.1,0,0,1,0-.18q0-.11,0-.18l0-.11,0-.07,0-.07a.43.43,0,0,1,0-.07c.06-.11.13-.24.21-.41s.15-.34.22-.53.14-.37.21-.54a4.39,4.39,0,0,0,.14-.45,6.64,6.64,0,0,1,.29-.93c.12-.32.22-.63.32-.94s.08-.43.12-.67.09-.47.14-.68a1.91,1.91,0,0,0,.1-.24c0-.13.07-.21.09-.26l.11-.14a.44.44,0,0,0,.09-.15.22.22,0,0,0,0-.09.77.77,0,0,1,0-.15,1,1,0,0,0,0-.16.44.44,0,0,0,0-.09,1.67,1.67,0,0,0,.07-.19c0-.09,0-.18.07-.26l.06-.23,0-.11a1,1,0,0,1,0-.12l.09-.22.09-.22a.7.7,0,0,1,.05-.13.78.78,0,0,0,.09-.2c.05-.12.09-.24.13-.37l.12-.38a1.65,1.65,0,0,0,.05-.22,3.37,3.37,0,0,0,.13-.41c.05-.17.11-.34.17-.51a2.62,2.62,0,0,1,.22-.48,1,1,0,0,1,.28-.34,3.5,3.5,0,0,1,.2-.74c.1-.23.19-.46.3-.69s.19-.45.27-.68a2.36,2.36,0,0,0,.12-.75,1.15,1.15,0,0,0-.1-.51,1.3,1.3,0,0,0-.22-.31l-.22-.22a.44.44,0,0,1-.1-.3.41.41,0,0,1,0-.1.84.84,0,0,0,0-.1,2.29,2.29,0,0,1,.5-.22c.19-.06.37-.14.55-.21a2.07,2.07,0,0,0,.5-.3.89.89,0,0,0,.29-.46l.07-.17.09-.3.09-.3a1.26,1.26,0,0,1,.07-.17.71.71,0,0,1,.13-.28.31.31,0,0,1,.26-.14h.07a.48.48,0,0,1,.12.1l.16.15.15.14a.38.38,0,0,1,.07.11s.05,0,.07.1a.37.37,0,0,1,0,.16,2,2,0,0,0,.05.27c0,.13.06.28.09.43s.07.29.1.43a1.7,1.7,0,0,1,0,.25,1.85,1.85,0,0,0,.09.29c.05.16.11.32.16.49s.11.34.17.49a1.46,1.46,0,0,1,.08.29c.09.33.18.69.28,1.08s.19.74.29,1.07a.82.82,0,0,0,0,.11s.06.12.1.18a1.18,1.18,0,0,0,.11.19.37.37,0,0,0,.07.1,1.93,1.93,0,0,1,.14.64,2.3,2.3,0,0,0,.15.64c.21.66.42,1.3.64,1.91s.42,1.25.6,1.91c0,0,0,.09,0,.18s0,.2.07.31l.06.3a1.23,1.23,0,0,1,0,.18l.06.13.1.21c0,.07.07.14.1.2l0,.11a.78.78,0,0,0,0,.13l0,.22a1.43,1.43,0,0,0,0,.22c0,.07,0,.11,0,.13s0,.14.07.29.08.3.13.46.09.31.13.46l.08.28a10.39,10.39,0,0,0,.4,1.23,12.68,12.68,0,0,1,.38,1.28c.08.4.16.78.24,1.15a6.34,6.34,0,0,0,.34,1.1c.06.16.12.33.17.51A1.23,1.23,0,0,0,147,48a1.29,1.29,0,0,0,.44.43,2.51,2.51,0,0,0,.58.26,3.2,3.2,0,0,0,.63.13l.58.06a.4.4,0,0,1,.29.24,1.06,1.06,0,0,1,.06.37s0,0,0,0a.07.07,0,0,0,0,0,.31.31,0,0,0,0,.08l-.2.11h-1.19L148,49.7l-.13-.05h-.08a2.24,2.24,0,0,0-.46.05,1.88,1.88,0,0,1-.49.06,3.36,3.36,0,0,1-.63-.06,4.74,4.74,0,0,0-.65-.05,1.14,1.14,0,0,0-.33.05.88.88,0,0,1-.33.06,5.69,5.69,0,0,1-.83-.06,8.14,8.14,0,0,0-.87-.05,8.4,8.4,0,0,0-1.32.11,8.74,8.74,0,0,1-1.37.11H140a1.64,1.64,0,0,1-.21-.25.68.68,0,0,1-.08-.31.35.35,0,0,1,.22-.32,2.28,2.28,0,0,1,.57-.17c.23,0,.49-.07.78-.1l.83-.1a4.11,4.11,0,0,0,.75-.19,1.11,1.11,0,0,0,.5-.34v-.66a.49.49,0,0,1,0-.12c0-.06,0-.14,0-.23l-.06-.25c0-.08,0-.14-.05-.2l-.06-.15c0-.09-.07-.18-.1-.28s-.07-.19-.1-.27a1.17,1.17,0,0,1,0-.16,1.34,1.34,0,0,1-.05-.2c0-.1-.06-.22-.09-.34s-.06-.24-.09-.35a1.33,1.33,0,0,1,0-.21.59.59,0,0,1-.05-.15l-.1-.27-.09-.28a1.07,1.07,0,0,1-.05-.16,3.26,3.26,0,0,1-.1-.42,5,5,0,0,0-.12-.49,2.36,2.36,0,0,0-.16-.45.67.67,0,0,0-.23-.3h-1.36l-.16.05a.54.54,0,0,1-.16.06h-.07l-.11,0-.18,0-.19,0-.1,0-.1,0-.15,0-.22.06h-2l-.32,0-.32,0-.21,0-.05,0a.08.08,0,0,0,0,0h0c-.21.66-.41,1.32-.6,2s-.38,1.35-.56,2a3.69,3.69,0,0,1-.18.53,1.58,1.58,0,0,0-.11.54.86.86,0,0,0,.1.41c.07.14.13.26.19.36l.19,0,.3,0,.3,0,.18,0,.1,0,.19.06.19.06.1,0a3,3,0,0,0,.43.06,2.33,2.33,0,0,1,.41.07.69.69,0,0,1,.32.16.5.5,0,0,1,.12.37c0,.3-.06.48-.19.54a1.16,1.16,0,0,1-.54.1H136l-.13,0-.21,0-.22,0h-2l-.13,0-.22,0-.22,0-.13,0h-.27a1,1,0,0,0-.25,0,1.05,1.05,0,0,0-.27.09h-1.64l-.15.07-.13,0H130a.76.76,0,0,1-.21,0l-.26-.12a.81.81,0,0,1-.24-.17A.32.32,0,0,1,129.19,49.34Zm7.61-8.57c.28,0,.58.08.91.11l1,0,1,0h1.2a.94.94,0,0,0,.39-.07c.1,0,.15-.16.15-.35a1.47,1.47,0,0,0-.14-.61,5,5,0,0,1-.25-.59c-.11-.4-.22-.8-.32-1.21a9.66,9.66,0,0,0-.36-1.15.65.65,0,0,0-.1-.2l-.11-.19s0-.1,0-.19,0-.2,0-.31,0-.22-.06-.32a1.06,1.06,0,0,0,0-.18,1.34,1.34,0,0,0-.05-.14l-.12-.26a2.88,2.88,0,0,1-.13-.31c0-.1-.07-.18-.09-.25a1.2,1.2,0,0,1-.1-.19l-.06-.13a.17.17,0,0,1,0-.07.76.76,0,0,1-.11-.31c0-.11-.05-.22-.07-.33a2.47,2.47,0,0,0-.1-.29.65.65,0,0,0-.19-.24h-.08c-.15,0-.27.12-.37.36a5.17,5.17,0,0,0-.25.81,7.8,7.8,0,0,0-.18.89q-.08.42-.12.57c0,.06,0,.16-.09.31a2,2,0,0,1-.1.26c-.11.45-.24.9-.37,1.34s-.24.89-.33,1.34a.66.66,0,0,1,0,.11c0,.07,0,.14,0,.22l0,.22c0,.07,0,.11,0,.13a.65.65,0,0,1-.1.19,1.13,1.13,0,0,0-.1.13.8.8,0,0,0-.08.16.71.71,0,0,0,0,.23v.11a.66.66,0,0,0,0,.21A.22.22,0,0,0,136.8,40.77Z"/><path class="cls-2" d="M161.64,49.37a6.48,6.48,0,0,0-.8-.38,3.75,3.75,0,0,1-.82-.42l-.11,0-.16-.12-.15-.13a.28.28,0,0,1-.08-.09,4.1,4.1,0,0,0-.41-.22,1.79,1.79,0,0,1-.38-.22l-1-1-.14-.11a.51.51,0,0,0-.14-.07c0-.08,0-.11-.11-.11a6.74,6.74,0,0,0-.47-.62,6.57,6.57,0,0,1-.48-.66.65.65,0,0,1-.09-.16,1.64,1.64,0,0,1-.08-.24,29.19,29.19,0,0,1-1.3-2.92l-.11-.18a1,1,0,0,1-.09-.21v-.59c0-.33-.07-.66-.12-1a6,6,0,0,1-.07-1v-.5c0-.11,0-.29,0-.56s0-.55.05-.85,0-.59.06-.85,0-.46,0-.57a2.4,2.4,0,0,1,.19-.81c.11-.25.21-.51.31-.77a.32.32,0,0,1,0-.08.54.54,0,0,0,0-.15c0-.05,0-.11,0-.15a.46.46,0,0,0,0-.1l.06-.15a1.17,1.17,0,0,1,.09-.24,1.52,1.52,0,0,0,.09-.25l.06-.15a.38.38,0,0,0,0-.08.75.75,0,0,0,0-.16l0-.15a.81.81,0,0,1,0-.11s0,0,.07-.07l.16-.15.16-.16a.39.39,0,0,1,.11-.08c.24-.3.47-.59.69-.89a8.94,8.94,0,0,1,.75-.88,16.38,16.38,0,0,1,1.54-1.48,5.63,5.63,0,0,1,1.86-1l.26-.12.3-.16.33-.14a1.92,1.92,0,0,1,.3-.08h.39l.17,0,.22-.07.23-.08.35-.11.36-.12a2.1,2.1,0,0,0,.25-.09h1.92l.77,0,.48,0,.28,0,.14,0,.41.11.7.18.7.19.43.1.26,0a.77.77,0,0,1,.24.07l.1.06.18.14a1.88,1.88,0,0,0,.18.12l.11.07.2.05.2.06a1.25,1.25,0,0,1,.23.23c.07.09.15.17.23.26a1.27,1.27,0,0,0,.25.21.63.63,0,0,0,.32.08c.12,0,.23-.09.32-.26a6.31,6.31,0,0,0,.25-.58c.09-.21.18-.4.27-.58a.39.39,0,0,1,.36-.26.3.3,0,0,1,.26.16,1.16,1.16,0,0,1,.15.38,2.24,2.24,0,0,1,.07.44,2.16,2.16,0,0,1,0,.31.75.75,0,0,1,0,.23.6.6,0,0,1-.09.21v4.52a1.39,1.39,0,0,1-.12.57.53.53,0,0,1-.46.3.16.16,0,0,1-.15,0,.5.5,0,0,1-.14-.15,1,1,0,0,1-.12-.17l-.09-.11s0-.07-.13-.15a.59.59,0,0,1-.15-.17l-.15-.2-.2-.29-.2-.29a1.6,1.6,0,0,1-.11-.19,1.78,1.78,0,0,1-.28-.66,2,2,0,0,0-.32-.68,4,4,0,0,0-.53-.59c-.17-.16-.35-.33-.55-.5l-.6-.54a3.94,3.94,0,0,0-.5-.43,3,3,0,0,0-.55-.34,4.13,4.13,0,0,0-.76-.27L166.8,28a6.54,6.54,0,0,0-1.22-.12,1.52,1.52,0,0,0-.6.11,3,3,0,0,0-.57.27,6.65,6.65,0,0,0-.56.36c-.18.13-.35.25-.52.35a1.24,1.24,0,0,1-.45.19.88.88,0,0,0-.44.22,5.91,5.91,0,0,0-.78.8,4.12,4.12,0,0,1-.8.76l-.09.1-.1.09a1.11,1.11,0,0,1-.09.23c-.06.14-.1.23-.11.27a2.08,2.08,0,0,1-.18.26l-.24.29a3.37,3.37,0,0,0-.21.31.85.85,0,0,0-.14.29,6.07,6.07,0,0,0-.12.79,3.26,3.26,0,0,1-.16.79c-.08.22-.16.44-.23.65a4.35,4.35,0,0,0-.17.71,3.55,3.55,0,0,0,0,.52,1.1,1.1,0,0,1-.14.53,2.15,2.15,0,0,0,0,.37q0,.27,0,.57l0,.56c0,.18,0,.3,0,.37a5.78,5.78,0,0,0,.09,1c.06.34.13.69.22,1.05s.18.7.29,1,.2.66.29.95a.9.9,0,0,0,0,.12c0,.08,0,.16,0,.25s.05.17.07.25l0,.16a.39.39,0,0,0,.09.17l.19.28a2.93,2.93,0,0,0,.19.26.48.48,0,0,0,.13.13.86.86,0,0,0,.07.14c0,.07.07.14.11.22a1.39,1.39,0,0,0,.11.21.59.59,0,0,1,.05.14l.42.47c.14.13.28.26.42.37l.43.35.51.39.3.29.66.34a1.58,1.58,0,0,1,.62.55,10.76,10.76,0,0,1,1.4.23,5.92,5.92,0,0,0,1.41.16h.74a1.3,1.3,0,0,0,.45-.13l.07,0,.12-.06.11-.07.06,0,.23-.06.37-.09.37-.09.22-.06.13-.07.15-.11a.31.31,0,0,1,.08-.07.69.69,0,0,1,.13-.11l.18-.14.16,0,.17,0,0-.05,0,0a1.86,1.86,0,0,0,.18-.23,3.76,3.76,0,0,1,.25-.31c.08-.11.16-.2.22-.29l.14-.17.09-.11c0-.07.1-.15.16-.22l.15-.22.1-.13a.22.22,0,0,1,.07-.07l.11-.11a1.36,1.36,0,0,0,.12-.12s.06-.07.06-.1,0,0,.07-.13a1.16,1.16,0,0,0,0-.16,1.11,1.11,0,0,0,.08-.16c0-.08.09-.17.13-.27s.08-.19.11-.28l.08-.15a1.27,1.27,0,0,0,0-.15l.06-.24c0-.09,0-.17.06-.24s0-.13,0-.15l.08-.17.1-.19a.73.73,0,0,1,.14-.16.32.32,0,0,1,.18-.06h.17a.16.16,0,0,1,.13.08l.08.14.09.19.08.16,0,.09s0,.07,0,.16,0,.17-.06.28l-.06.29a.75.75,0,0,1-.05.16c0,.18-.06.38-.11.62s-.08.48-.11.73-.07.49-.11.74-.05.46-.06.65v1a.47.47,0,0,1-.08.19l-.06.16a.67.67,0,0,1-.06.12,1.7,1.7,0,0,1-.06.18s0,0-.13,0A.25.25,0,0,1,173,48c-.06-.11-.12-.24-.18-.38a1.79,1.79,0,0,0-.2-.39.37.37,0,0,0-.32-.17c-.1,0-.15,0-.15,0s0,.05-.08.12a11.52,11.52,0,0,1-1.32.95,7.53,7.53,0,0,1-1.43.68,6.82,6.82,0,0,0-.66.34,2.07,2.07,0,0,1-.69.27l-.54.05a.66.66,0,0,0-.46.23l-2.25.2a7.5,7.5,0,0,0-1.5-.38Z"/><path class="cls-2" d="M195.76,49.68l-.13,0-.18-.09-.18-.09-.12-.05a1,1,0,0,1-.14-.21c-.07-.11-.14-.24-.22-.38s-.16-.27-.24-.39l-.18-.29c-.21-.34-.41-.68-.61-1l-.62-1c-.12-.18-.24-.34-.36-.5a2.41,2.41,0,0,1-.33-.5c-.08-.14-.16-.28-.24-.44a2.63,2.63,0,0,0-.26-.41,8.72,8.72,0,0,0-.76-.84,6.93,6.93,0,0,1-.71-.83.54.54,0,0,0,0-.15,1.24,1.24,0,0,0-.05-.15,5.89,5.89,0,0,0-.77-1.1c-.3-.34-.6-.69-.89-1.05a.85.85,0,0,1-.09-.14.5.5,0,0,0-.1-.14.52.52,0,0,1-.07-.15l0-.13a.73.73,0,0,0-.14-.11l-.15-.11a.64.64,0,0,1-.13-.15l-.1-.16a.43.43,0,0,0-.12-.11.24.24,0,0,0-.18-.05h-.15c0,.18-.07.34-.11.49s-.09.3-.13.45-.08.31-.11.48a3.16,3.16,0,0,0,0,.55.43.43,0,0,0,.09.26.49.49,0,0,1,.09.28v.11a8.73,8.73,0,0,0-.15,1.31c0,.46,0,.93,0,1.4v2.07a8.43,8.43,0,0,0,.07.9l0,.07.06.1s0,.09,0,.18l0,.31q0,.16,0,.3c0,.1,0,.16,0,.19a.7.7,0,0,1,.39.17.85.85,0,0,0,.4.22.61.61,0,0,0,.23.06l.27,0,.25,0,.38,0,.37,0h.24a.31.31,0,0,1,.2.16.85.85,0,0,1,0,.23c0,.22-.07.36-.22.42a1.29,1.29,0,0,1-.51.1h-.55a7.55,7.55,0,0,1-.83,0,6,6,0,0,0-.86-.06h-.07l-.16,0-.27,0-.28,0-.15,0-.4,0-.66,0-.65,0-.37,0h0a8.31,8.31,0,0,0-1,.06c-.33,0-.66,0-1,0h-.89l-.14-.14a.76.76,0,0,1-.14-.16v-.18a.35.35,0,0,1,.21-.36,1.53,1.53,0,0,1,.49-.08h.43l.33,0,.36,0a1.59,1.59,0,0,0,.39-.08,1.49,1.49,0,0,0,.36-.17.6.6,0,0,0,.24-.3c0-.06,0-.17,0-.32s0-.31,0-.49,0-.35,0-.51,0-.27,0-.33v0c0-.41,0-.81,0-1.2s0-.77,0-1.15,0-.76,0-1.14,0-.77,0-1.18a.19.19,0,0,1-.07-.12.76.76,0,0,1,0-.16,1,1,0,0,1,.09-.4,1.15,1.15,0,0,0,.08-.41v-.14a1.1,1.1,0,0,0-.05-.27,1.47,1.47,0,0,1,0-.23V38.15l-.08-.17.05-2.35V30.2a3,3,0,0,0,.06-.38c0-.18,0-.36.07-.56s.05-.39.06-.56,0-.31,0-.39v-.08s0-.13-.1-.26a1.14,1.14,0,0,0-.1-.23l0,0s0,0,0,0,0,0,0,0l-.34,0h-.93l-.29,0h-.39a1.7,1.7,0,0,1-.31-.06.82.82,0,0,1-.26-.14.31.31,0,0,1-.11-.25.29.29,0,0,1,.17-.28,1.6,1.6,0,0,1,.3-.11l.2,0,.27,0,.26,0h.3l.21,0,.2,0,.11,0h1.08l.19,0,.31,0,.31,0h2.24l.37,0,.38,0h.5l.25,0,.22,0H189l.26.08a.2.2,0,0,1,.14.22c0,.1-.1.19-.29.26a5.81,5.81,0,0,1-.64.17l-.69.11a2,2,0,0,0-.46.11.44.44,0,0,0-.14.16,1.55,1.55,0,0,0-.08.23,1.74,1.74,0,0,0,0,.22,1.28,1.28,0,0,0,0,.18v3.51s0,.07,0,.15a.52.52,0,0,1-.07.15v.11a3.14,3.14,0,0,0,.09.71,3.29,3.29,0,0,1,.09.76,2.24,2.24,0,0,1,0,.49v1.52a2.51,2.51,0,0,1,0,.5,1.24,1.24,0,0,1,.17.24.25.25,0,0,0,.22.15h.11l.06-.1a1.09,1.09,0,0,1,.08-.15c0-.05.06-.1.09-.14s0-.07.06-.08a.43.43,0,0,1,.1-.1l.17-.15.16-.16.07-.09a1.54,1.54,0,0,1,.13-.17c.06-.08.14-.17.21-.27L189,35a1.54,1.54,0,0,0,.13-.17l.2-.21.32-.32L190,34l.21-.19a.6.6,0,0,1,.16-.29l.23-.21a1.51,1.51,0,0,1,.16-.2l.22-.27.21-.26.13-.15a.27.27,0,0,1,0-.08l.06-.12.06-.12a.14.14,0,0,1,0-.07,1.54,1.54,0,0,1,.13-.17l.23-.28.24-.32.18-.23.38-.49a5.44,5.44,0,0,0,.39-.62,4.82,4.82,0,0,0,.3-.66,1.94,1.94,0,0,0,.12-.64.91.91,0,0,0-.14-.49,1.65,1.65,0,0,0-.33-.37,2.6,2.6,0,0,0-.45-.28,2.24,2.24,0,0,0-.46-.15h-.59a.54.54,0,0,1-.18-.14,2.3,2.3,0,0,1-.23-.25v0a.26.26,0,0,1,.12-.21,1.06,1.06,0,0,1,.28-.15l.33-.08.27,0a.65.65,0,0,1,.29.07.83.83,0,0,0,.32.07h.08l.39,0,.71,0,.71,0h2.17l.15,0,.25,0,.24,0,.13,0h.2a2.61,2.61,0,0,1,.34,0l.54,0,.54,0,.35,0a.19.19,0,0,1,.12,0,.76.76,0,0,1,.16.11.86.86,0,0,1,.14.13.28.28,0,0,1,.08.12V27a.54.54,0,0,1-.15.38.49.49,0,0,1-.35.15h-1.11a3.2,3.2,0,0,0-.87.12,4.91,4.91,0,0,0-.83.32,8.85,8.85,0,0,0-.78.46c-.26.16-.5.33-.73.5L195,29l-.2.19-.21.22-.15.17c-.27.3-.53.61-.78.92s-.5.62-.76.91l-.3.3-.28.33a1.17,1.17,0,0,0-.22.37,2.35,2.35,0,0,1-.35.55,2.2,2.2,0,0,1-.51.42l-.09.05-.07,0-.06,0-.09.23-.08.27,0,0-.06,0a2.85,2.85,0,0,0-.59.53,1.06,1.06,0,0,0-.3.73v0a3.2,3.2,0,0,0,.43.63,4.45,4.45,0,0,1,.46.65.38.38,0,0,1,.05.11s.06.12.09.18l.09.19.05.1a3,3,0,0,0,.46.48,2.07,2.07,0,0,1,.43.46c.17.3.33.63.5,1A4.3,4.3,0,0,0,193,40l.48.48a2.85,2.85,0,0,1,.23.37l.21.4a2.45,2.45,0,0,0,.24.38,1,1,0,0,0,.29.29L196,44.15a.9.9,0,0,1,.21.24l.28.43.28.45a2.72,2.72,0,0,0,.2.32,14.75,14.75,0,0,0,1,1.29A5.22,5.22,0,0,0,199.08,48c.25.14.5.3.75.47a3.32,3.32,0,0,0,.79.37,1.53,1.53,0,0,0,.41.05l.48,0a1.25,1.25,0,0,1,.41.15.4.4,0,0,1,.17.36.49.49,0,0,1-.09.3.67.67,0,0,1-.24.16,1.67,1.67,0,0,1-.32.08l-.32,0a3.33,3.33,0,0,1-.78-.08,4.78,4.78,0,0,0-.76-.09l-1.46-.09-1.47,0Z"/><path class="cls-2" d="M226.93,49.68h-.85l-.24,0-.33.07-.14.05-.14,0-.1,0-.07,0a.06.06,0,0,0-.05,0h-.68a1.12,1.12,0,0,0-.37.08H221.8a.19.19,0,0,1-.13-.07.48.48,0,0,1-.12-.16,1.24,1.24,0,0,1-.1-.2.62.62,0,0,1,0-.16.66.66,0,0,1,.2-.48.64.64,0,0,1,.49-.21h2.16a1.58,1.58,0,0,0,.57-.12.66.66,0,0,0,.4-.42c0-.07,0-.16,0-.29l0-.42,0-.41V45.65c0-.23,0-.47,0-.73s0-.51,0-.74,0-.37,0-.44V39.26a.58.58,0,0,0,0-.1l0-.16,0-.16a.22.22,0,0,0,0-.08V37.09c-.05-1.38-.09-2.74-.15-4.09s-.08-2.72-.06-4.12l-.15-.36-.1,0-.18,0-.23,0h-.18l-.31,0-.48,0-.48,0h-.31a.26.26,0,0,1-.14.07l-.14,0-.13,0-.23,0-.23,0h-.13l-.19,0-.25.07a6.34,6.34,0,0,1-1.14.14,3.61,3.61,0,0,0-1.12.23l-.11.09c-.05.06-.08.08-.1.08s-.08.06-.2.08l-.19,0a.92.92,0,0,0-.46.38l-.33.51,0,.08a1.13,1.13,0,0,1-.1.13l-.09.13a.13.13,0,0,0,0,.07,4.59,4.59,0,0,0-.27.48,4.88,4.88,0,0,1-.34.58,2.84,2.84,0,0,1-.4.49.66.66,0,0,1-.46.2.29.29,0,0,1-.22-.09.47.47,0,0,1-.11-.21,1.09,1.09,0,0,1-.05-.26c0-.08,0-.16,0-.22a1.7,1.7,0,0,1,.18-.79,5.2,5.2,0,0,0,.32-.79s0-.12.06-.25,0-.28.08-.42.07-.29.1-.42a1.55,1.55,0,0,0,0-.25.68.68,0,0,1,.06-.15,1.34,1.34,0,0,0,0-.14,2.36,2.36,0,0,1,0-.24c0-.13,0-.26.05-.4s0-.28.06-.41a1.71,1.71,0,0,1,0-.24c0-.11,0-.24.07-.39a3.45,3.45,0,0,1,.12-.46,1.09,1.09,0,0,1,.22-.36.55.55,0,0,1,.4-.15h.05l.08.08.11.16.16.25.16.24c0,.08.07.12.07.13l.24.25.26.25a.88.88,0,0,0,.33.18,1.42,1.42,0,0,0,.41.08l.43,0h.41l.24,0,.38,0,.38,0,.23,0h9.58a9.33,9.33,0,0,0,1,.1l1.07,0,.45,0h.41a.21.21,0,0,1,.09.05s.07.06.09.06h.11l.2-.06.19-.05h.52l.33,0a1.63,1.63,0,0,0,.31,0,.75.75,0,0,0,.31-.1l.17-.09.13-.09a2.52,2.52,0,0,0,.11-.31,2.9,2.9,0,0,1,.16-.41,1.35,1.35,0,0,1,.24-.35.38.38,0,0,1,.35-.12l.08,0,.13.05.12.06s.06,0,.06,0a14.15,14.15,0,0,0,.2,1.72q.16.86.3,1.68a1.91,1.91,0,0,0,.12.51,4.22,4.22,0,0,0,.18.45c.06.15.11.31.16.47a1.81,1.81,0,0,1,.07.54.68.68,0,0,1,0,.12,1.1,1.1,0,0,1,0,.18,1.1,1.1,0,0,0,0,.18.66.66,0,0,0,0,.13q0,.3-.39.3a.21.21,0,0,1-.15-.07,1.85,1.85,0,0,1-.14-.14.94.94,0,0,1-.12-.18l-.06-.11a.28.28,0,0,1-.05-.1l-.06-.16-.06-.16a.27.27,0,0,1,0-.08.51.51,0,0,0,0-.11c0-.05-.05-.08-.07-.08l-.36-.58-.37-.59a6.23,6.23,0,0,0-.41-.56,3.56,3.56,0,0,0-.49-.46,3.2,3.2,0,0,0-.73-.33,5.37,5.37,0,0,0-.8-.15,7.34,7.34,0,0,0-.81-.05h-.78l-.17,0-.25,0-.24,0h-1.45l-.53,0a4,4,0,0,0-.51.06,1.3,1.3,0,0,0-.42.15.54.54,0,0,0-.25.27v.58a2.34,2.34,0,0,1-.11.21.62.62,0,0,0-.07.18l0,.06a.07.07,0,0,0,0,.05h0V30a.13.13,0,0,0,0,.06l0,.06v.21l0,.33q0,.18,0,.33a2,2,0,0,1,0,.21v6.53a1.42,1.42,0,0,1,.1.42c0,.14,0,.27,0,.39v.32a2.8,2.8,0,0,1-.06.61,2.76,2.76,0,0,0-.06.57.66.66,0,0,0,0,.14v.1s0,.07,0,.14l0,.24q0,.14,0,.24a.5.5,0,0,0,0,.14v3.16a1.53,1.53,0,0,0,.06.22,2.11,2.11,0,0,1,0,.22.79.79,0,0,1,0,.15.67.67,0,0,0-.06.16v1a1.44,1.44,0,0,0-.07.25c0,.12,0,.21,0,.25v.11c0,.09,0,.22,0,.38l0,.47c0,.15,0,.29,0,.41a.93.93,0,0,0,0,.21l0,.25a1,1,0,0,0,0,.25.4.4,0,0,0,.14.18.35.35,0,0,0,.26.08h2.16a.66.66,0,0,1,.49.2.63.63,0,0,1,.2.46.5.5,0,0,1-.21.46,1,1,0,0,1-.53.13h-.45l-.24,0-.39-.06-.39-.07-.23,0h-1l-.11,0-.21,0-.21,0-.14,0Z"/><path class="cls-2" d="M243.52,38.68v-.16a1,1,0,0,1,0-.2c0-.1,0-.22,0-.34s0-.24,0-.35,0-.18,0-.21V36.09s0,0,0-.09,0-.1,0-.16a1.05,1.05,0,0,1,.05-.19l.05-.14a.36.36,0,0,1,0-.13l.06-.09A2.07,2.07,0,0,0,244,35l.12-.37c.05-.13.08-.24.11-.34a.71.71,0,0,0,.05-.19.66.66,0,0,1,0-.11,1.23,1.23,0,0,1,0-.19c0-.06,0-.12,0-.18a.37.37,0,0,1,0-.1,5,5,0,0,1,.42-.87,9.13,9.13,0,0,1,.54-.79c.19-.25.4-.49.62-.73s.44-.48.65-.73.53-.58.75-.79a9.21,9.21,0,0,1,.83-.68c.11-.1.21-.2.32-.32a1.38,1.38,0,0,1,.35-.26s.05,0,.14-.06l.16,0a3,3,0,0,0,.44-.29,1,1,0,0,1,.42-.21h.41l.08-.05.16-.1.15-.09.08-.06.21-.1.18-.1.15-.05.16-.06.18-.15c.1-.09.17-.13.21-.13a.24.24,0,0,1,.13,0l.25,0,.25,0,.17,0a1.2,1.2,0,0,0,.47-.16,1.07,1.07,0,0,1,.53-.12h0a.6.6,0,0,1,.18,0,.8.8,0,0,0,.21,0h2.07l.17,0,.18,0,.13,0a18,18,0,0,1,2.12.67,8,8,0,0,1,1.94,1.1l.64.36a2.47,2.47,0,0,1,.55.39l.24.24c.12.13.25.27.4.41l.41.4.23.24a.53.53,0,0,0,.16.13l.12.05a.27.27,0,0,1,.1.06.92.92,0,0,1,.12.16l.09.14a2.22,2.22,0,0,0,.15.23c.05.08.1.16.14.24a1.27,1.27,0,0,0,.11.17,10.15,10.15,0,0,0,.54.86,6.3,6.3,0,0,1,.5.87,3.43,3.43,0,0,1,.35.9c.08.31.16.63.25,1,0,.11.08.28.15.48a2.41,2.41,0,0,1,.14.52,5.34,5.34,0,0,1,.07.62l0,.53c0,.17,0,.35,0,.53v.6a8.89,8.89,0,0,1-.38,2.67,12.6,12.6,0,0,1-1.09,2.46,8.42,8.42,0,0,1-1.18,1.56c-.46.48-.92,1-1.36,1.45a.61.61,0,0,0-.1.15l-.09.15-.1.06-.19.1-.19.09-.13.06-.08,0-.14.11-.15.12-.1.11a.84.84,0,0,1-.1.1l-.18.18-.18.18q-.09.09-.12.09l-.11.08-.25.14-.28.15-.22.13-.11.05-.1,0-.36.17-.44.19-.38.16-.18.09-.39.14-.47.17-.41.13-.19.06h-3.14l-.2-.05-.16,0-.12,0-.13-.06-.15-.05-.19,0-.31-.06-.32,0-.18,0-.11-.07-.21-.09-.21-.09-.16-.08-1.07-.5c-.36-.17-.71-.36-1.06-.56a6.62,6.62,0,0,1-.83-.58c-.29-.22-.57-.46-.85-.71s-.53-.5-.78-.77-.48-.52-.68-.76a2.53,2.53,0,0,1-.28-.47c-.07-.17-.14-.33-.2-.49l-.18-.49a5.32,5.32,0,0,0-.21-.5l-.09-.09c-.06-.06-.08-.09-.08-.11a6.7,6.7,0,0,1-.42-1c-.14-.4-.27-.81-.38-1.24a11.74,11.74,0,0,1-.28-1.25A6.25,6.25,0,0,1,243.52,38.68Zm9.56,9.69a.6.6,0,0,1,.35.14,3.63,3.63,0,0,0,.32.25,1.63,1.63,0,0,0,.47.16l.49,0h.23a1.23,1.23,0,0,0,.39-.06,1.74,1.74,0,0,1,.39,0,.87.87,0,0,1,.28,0,.74.74,0,0,0,.27.06,2.91,2.91,0,0,0,1.4-.39,6.86,6.86,0,0,0,1.34-1,8.35,8.35,0,0,0,1.12-1.27,6.87,6.87,0,0,0,.73-1.27,3.24,3.24,0,0,0,.3-.77c.07-.27.14-.52.2-.76.15-.5.3-1,.46-1.51a5.39,5.39,0,0,0,.23-1.55c0-.28,0-.56,0-.82s0-.54,0-.82,0-.61,0-.9,0-.59,0-.89c0,0,0-.06-.07-.17a.79.79,0,0,1,0-.22v-.45a5.65,5.65,0,0,0-.29-1.11c-.13-.34-.26-.7-.38-1.06a.32.32,0,0,0,0-.08,1,1,0,0,0,0-.15c0-.05,0-.11,0-.15a.41.41,0,0,0,0-.09.46.46,0,0,0-.13-.2l-.17-.19,0-.08,0-.07,0-.07-.09-.26c-.06-.14-.11-.29-.18-.46s-.12-.32-.18-.46a1.59,1.59,0,0,0-.11-.26,2.36,2.36,0,0,0-.28-.42l-.36-.36a2.17,2.17,0,0,1-.32-.36,1.08,1.08,0,0,1-.21-.43l-1.19-1.16a.92.92,0,0,1-.37-.13,4,4,0,0,1-.44-.25l-.43-.28a2.07,2.07,0,0,0-.39-.2.3.3,0,0,0-.19-.08l-.2,0-.22-.09-.3-.11-.3-.12-.18-.07a1.27,1.27,0,0,1-.39.12l-.41,0-.43,0a1.42,1.42,0,0,0-.44.11,10.11,10.11,0,0,0-1.52.81,5,5,0,0,0-1.1.93,6.68,6.68,0,0,0-.82,1.16,14.41,14.41,0,0,0-.72,1.51c-.1.21-.21.41-.32.61a3.2,3.2,0,0,0-.29.62c0,.14-.08.3-.14.5l-.15.58c-.06.19-.1.35-.14.49l-.05.23v2.3s0,.15,0,.29,0,.3,0,.47l0,.49c0,.15,0,.26,0,.32a8.24,8.24,0,0,0,.18.89c.08.28.15.58.21.88a6.8,6.8,0,0,1,.16,1,3.54,3.54,0,0,0,.25,1,7.15,7.15,0,0,0,.51,1.05,12,12,0,0,1,.54,1.07.52.52,0,0,1,.07.15c0,.08,0,.12,0,.13a.17.17,0,0,0,0,.07l0,.07a.16.16,0,0,0,.05.08l.15.14a.7.7,0,0,0,.15.14.17.17,0,0,0,0,.07l.07.13.09.19.1.16a.73.73,0,0,0,.1.14,3.62,3.62,0,0,0,.55.56l.64.52.21.19.35.29.35.3Z"/><path class="cls-2" d="M293.08,49.68h-.85l-.24,0-.34.07-.14.05-.14,0-.09,0-.07,0a.1.1,0,0,0-.06,0h-.68a1.07,1.07,0,0,0-.36.08H288a.19.19,0,0,1-.13-.07.7.7,0,0,1-.13-.16,1.21,1.21,0,0,1-.09-.2.37.37,0,0,1,0-.16.7.7,0,0,1,.69-.69h2.15a1.63,1.63,0,0,0,.58-.12.62.62,0,0,0,.39-.42c0-.07,0-.16,0-.29s0-.27,0-.42,0-.28,0-.41,0-.22,0-.27v-.58c0-.07,0-.21,0-.44s0-.47,0-.73,0-.51,0-.74,0-.37,0-.44V39.26a.41.41,0,0,0,0-.1l0-.16a1.24,1.24,0,0,1,0-.16.22.22,0,0,0,0-.08V37.09c0-1.38-.09-2.74-.14-4.09s-.08-2.72-.06-4.12l-.16-.36-.09,0-.19,0-.22,0h-.18l-.32,0-.47,0-.48,0h-.31a.26.26,0,0,1-.14.07l-.14,0-.14,0-.22,0-.23,0h-.13l-.19,0-.25.07a6.56,6.56,0,0,1-1.15.14,3.55,3.55,0,0,0-1.11.23.35.35,0,0,0-.11.09c-.06.06-.09.08-.1.08a.34.34,0,0,1-.2.08l-.19,0a.94.94,0,0,0-.47.38c-.1.16-.21.34-.33.51a.27.27,0,0,1,0,.08,1.13,1.13,0,0,1-.1.13s-.07.09-.09.13a.13.13,0,0,0,0,.07,3.29,3.29,0,0,0-.27.48c-.1.2-.22.39-.34.58a3.39,3.39,0,0,1-.4.49.66.66,0,0,1-.46.2.28.28,0,0,1-.22-.09.61.61,0,0,1-.12-.21,1.09,1.09,0,0,1,0-.26,1.77,1.77,0,0,1,0-.22,1.7,1.7,0,0,1,.18-.79,5.2,5.2,0,0,0,.32-.79,2,2,0,0,0,.05-.25l.09-.42q0-.22.09-.42a1.09,1.09,0,0,0,.05-.25.68.68,0,0,1,.06-.15,1.34,1.34,0,0,0,.05-.14s0-.11,0-.24l.06-.4c0-.15,0-.28.06-.41a1.71,1.71,0,0,1,.05-.24c0-.11,0-.24.07-.39a1.83,1.83,0,0,1,.12-.46,1,1,0,0,1,.22-.36.54.54,0,0,1,.4-.15h.05l.08.08.1.16.17.25.16.24c0,.08.07.12.07.13l.24.25.26.25a.88.88,0,0,0,.33.18,1.42,1.42,0,0,0,.41.08l.43,0h.4l.25,0,.38,0,.37,0,.24,0h9.58a9.13,9.13,0,0,0,1,.1l1.07,0,.46,0h.4l.1.05s.07.06.09.06h.11l.2-.06.19-.05H301l.32,0a1.73,1.73,0,0,0,.32,0,.8.8,0,0,0,.31-.1l.16-.09.14-.09c0-.07.06-.17.11-.31a2.05,2.05,0,0,1,.16-.41,1.35,1.35,0,0,1,.24-.35.38.38,0,0,1,.35-.12l.07,0,.14.05.12.06s.06,0,.06,0a12.41,12.41,0,0,0,.2,1.72q.15.86.3,1.68a2.4,2.4,0,0,0,.11.51l.18.45a3.75,3.75,0,0,1,.17.47,2.21,2.21,0,0,1,.07.54s0,.06,0,.12,0,.12,0,.18l0,.18V32c0,.2-.16.3-.4.3a.17.17,0,0,1-.14-.07l-.14-.14a.94.94,0,0,1-.12-.18l-.06-.11s0,0-.05-.1l-.06-.16c0-.06-.05-.11-.07-.16a.27.27,0,0,1,0-.08.24.24,0,0,0,0-.11c0-.05-.05-.08-.07-.08l-.35-.58-.37-.59a4.81,4.81,0,0,0-.42-.56,3.48,3.48,0,0,0-.48-.46,3.28,3.28,0,0,0-.74-.33,5.24,5.24,0,0,0-.79-.15,7.52,7.52,0,0,0-.82-.05h-.78l-.16,0-.25,0-.24,0H296.4l-.52,0a4,4,0,0,0-.51.06,1.28,1.28,0,0,0-.43.15.48.48,0,0,0-.24.27v.58l-.11.21a.86.86,0,0,0-.08.18l0,.06a.07.07,0,0,0,0,.05h0V30a.13.13,0,0,0,0,.06l0,.06s0,.11,0,.21,0,.21,0,.33a3,3,0,0,0,0,.33,2,2,0,0,1,0,.21v6.53a2.53,2.53,0,0,1,.1.42c0,.14,0,.27,0,.39v.32a2.8,2.8,0,0,1-.06.61,2.76,2.76,0,0,0-.06.57v.14a.58.58,0,0,1,0,.1s0,.07,0,.14l0,.24q0,.14,0,.24a.5.5,0,0,0,0,.14v3.16a1.53,1.53,0,0,0,.06.22,2.11,2.11,0,0,1,.05.22.79.79,0,0,1-.05.15.67.67,0,0,0-.06.16v1a1.44,1.44,0,0,0-.07.25,1.18,1.18,0,0,0,0,.25v.11c0,.09,0,.22,0,.38l0,.47c0,.15,0,.29,0,.41a.93.93,0,0,0,0,.21,2.11,2.11,0,0,1,0,.25,1,1,0,0,0,0,.25.46.46,0,0,0,.13.18.38.38,0,0,0,.27.08h2.16a.68.68,0,0,1,.49.2.62.62,0,0,1,.19.46.5.5,0,0,1-.21.46.93.93,0,0,1-.52.13h-.45l-.24,0-.4-.06-.39-.07-.22,0h-1l-.11,0-.21,0-.22,0-.13,0Z"/><path class="cls-2" d="M312,35.52a1,1,0,0,1,0-.15c0-.07,0-.15,0-.24l0-.23a1.16,1.16,0,0,1,0-.16V30.93s0-.12,0-.26,0-.29,0-.46,0-.32,0-.46,0-.23,0-.26v-.12a2.84,2.84,0,0,0-.08-.58c-.05-.23-.09-.42-.11-.56a.34.34,0,0,0-.25-.17,2.47,2.47,0,0,0-.36,0h-.12a1,1,0,0,0-.34.06,1,1,0,0,1-.35.05,1.6,1.6,0,0,1-.42-.05,1.82,1.82,0,0,1-.43-.16,1,1,0,0,1-.33-.27.63.63,0,0,1-.13-.41.33.33,0,0,1,.11-.27.73.73,0,0,1,.29-.15,2.14,2.14,0,0,1,.35-.06l.32,0h.11l.2,0,.33,0,.32,0h.2l.11,0,.19,0,.18,0,.1,0h.65a6.08,6.08,0,0,1,.95.07,7.82,7.82,0,0,0,1,.06h.11l.15,0h.17l.41-.17h2l.09,0,.17,0,.19,0,.14,0,.27-.11a1.69,1.69,0,0,1,.65.24.64.64,0,0,1,.27.57.45.45,0,0,1-.13.3,1.16,1.16,0,0,1-.32.2,2.29,2.29,0,0,1-.37.12,2.38,2.38,0,0,1-.34,0h0l-.14,0-.14,0-.16,0-.27,0-.31,0-.26,0h-.05a1.76,1.76,0,0,0-.64.1,1,1,0,0,0-.5.39v2.29c0,1.3,0,2.57.08,3.83s.1,2.53.14,3.8v1.11c0,.16,0,.37,0,.63l0,.81c0,.27,0,.51,0,.72s0,.32,0,.35,0,.07,0,.14l.06.24.06.28q0,.14.06.24c.08.27.15.53.24.79s.17.52.26.78c0,0,0,.08,0,.18a.69.69,0,0,1,0,.17.31.31,0,0,0,0,.12c0,.06,0,.1.07.1a3.38,3.38,0,0,1,.38.64,3.82,3.82,0,0,0,.4.64l.05,0,0,0s0,0,0,0a1.73,1.73,0,0,0,.19.18l.24.22.21.2.13.1a3.58,3.58,0,0,0,.81.47,6.08,6.08,0,0,0,.93.34c.32.09.63.17.95.24l.9.18h.16l0,0,.36,0h.93l.53,0,.62,0a2.57,2.57,0,0,0,.61-.14l.06,0,.11-.09.12-.09a.19.19,0,0,1,.09,0s0,0,.07-.06l.14-.07.15,0,.1,0a.61.61,0,0,1,.3-.07.29.29,0,0,0,.2-.12c.12-.17.27-.36.46-.58a5.24,5.24,0,0,0,.44-.59,16.52,16.52,0,0,0,1-2.3,7.66,7.66,0,0,0,.37-2.44v-.73s0-.07,0-.14a.87.87,0,0,1,0-.14l-.05-.08.05,0a5.34,5.34,0,0,0,.13-.88c0-.29,0-.58.05-.87,0,0,0-.1,0-.21a1,1,0,0,0,0-.2s0,0,0,0V38a.62.62,0,0,0-.07-.31.73.73,0,0,1-.07-.3.79.79,0,0,1,0-.17.27.27,0,0,1,.09-.15V30.65a.42.42,0,0,1-.09-.28c0-.15,0-.31,0-.49s0-.35,0-.53a1.65,1.65,0,0,0-.06-.43,2.64,2.64,0,0,0-.11-.29l-.17-.32a1.38,1.38,0,0,0-.4-.18l-.78-.26c-.29-.1-.55-.18-.79-.24l-.39-.11h-.72a1.59,1.59,0,0,1-.39-.07,1,1,0,0,1-.31-.17.44.44,0,0,1-.12-.32.71.71,0,0,1,.14-.39c.09-.15.19-.22.29-.22h.05s.05,0,.1,0l.18,0,.18,0h1.89l.1,0,.18,0,.19,0,.1,0h.11l.14,0,.24,0,.24,0,.16,0h.16l.17.07.14,0,.17,0h.71a7.25,7.25,0,0,0,1.18-.09l1.15-.16a.46.46,0,0,0,.34.14l.19,0h.15l.17,0,.24,0,.23,0,.14,0c.12.05.18.1.2.15a.62.62,0,0,1,0,.21.45.45,0,0,1-.18.39,1.3,1.3,0,0,1-.45.19,3.09,3.09,0,0,1-.52.07,1.9,1.9,0,0,0-.42.06,3.52,3.52,0,0,0-1,.35,1.88,1.88,0,0,0-.69.73.37.37,0,0,0-.06.15c0,.08,0,.13,0,.16v4.1a.37.37,0,0,0,0,.1c0,.06,0,.12,0,.18a1.11,1.11,0,0,0,0,.17.46.46,0,0,0,0,.1v1a.44.44,0,0,1,0,.09c0,.05,0,.1,0,.16s0,.12,0,.21v.61s0,.12,0,.26,0,.3,0,.46,0,.32,0,.46,0,.23,0,.26v.11a.44.44,0,0,1,0,.09c0,.06,0,.11,0,.16s0,.13,0,.22,0,.16,0,.33,0,.36,0,.56,0,.39,0,.58,0,.33,0,.42v.87a.81.81,0,0,1,0,.09l-.06.16-.06.15a.25.25,0,0,1,0,.07l0,.08a.5.5,0,0,0,0,.13l0,.11s0,.06,0,.07a2,2,0,0,1,0,.21c0,.11,0,.23,0,.35s0,.23,0,.33a1,1,0,0,1,0,.19s0,.07,0,.15a.63.63,0,0,0,0,.13c0,.06-.05.16-.09.31s-.07.31-.11.49-.08.34-.12.49-.06.24-.07.28a5.59,5.59,0,0,1-.39,1,7.85,7.85,0,0,1-.57.92c-.22.29-.44.57-.68.84l-.7.77s-.07,0-.15.08a.33.33,0,0,1-.14.07.34.34,0,0,1-.16.08l-.16,0a.77.77,0,0,1-.09.13l-.09.09a3.55,3.55,0,0,1-.88.56,7.28,7.28,0,0,1-1,.37,9.58,9.58,0,0,1-1,.24l-1,.19h-2.09l-.73,0h-.69c-.26,0-.53,0-.79,0s-.55-.06-.84-.11a2.21,2.21,0,0,1-1-.36,7.33,7.33,0,0,0-.89-.5l-.31-.12-.23-.07a.62.62,0,0,1-.22-.1,1.76,1.76,0,0,1-.24-.21.21.21,0,0,1-.05-.08.64.64,0,0,1-.08-.14l-.08-.16-.05-.09-.07,0-.09-.07-.12-.07a4.46,4.46,0,0,1-1.15-1.6,8.87,8.87,0,0,1-.57-1.94,17.37,17.37,0,0,1-.23-2.05c0-.69-.08-1.34-.13-1.93,0,0,0-.06,0-.13a2.07,2.07,0,0,0,0-.22c0-.08,0-.15,0-.22a.85.85,0,0,1,0-.13V36.82s0-.11,0-.24,0-.27,0-.41,0-.27,0-.4A1.52,1.52,0,0,1,312,35.52Z"/><path class="cls-2" d="M344.33,49.71a5.93,5.93,0,0,1-1.19.12,9.63,9.63,0,0,0-1.2.05s0,0-.13.09a.48.48,0,0,1-.16.05h-1.17l-.16-.06-.23-.12-.22-.13a.61.61,0,0,1-.16-.11.28.28,0,0,0,0-.11.68.68,0,0,1,0-.12.5.5,0,0,1,.13-.39.64.64,0,0,1,.4-.16h.19l.39,0,.43,0,.32,0h.34l.08.06a.1.1,0,0,0,.08,0,.35.35,0,0,0,.25-.11,1.12,1.12,0,0,0,.22-.26,3,3,0,0,0,.19-.3,2.33,2.33,0,0,1,.15-.23V41.07a1.83,1.83,0,0,1,0-.25q0-.18,0-.39l0-.38V37.92a.91.91,0,0,1,0-.16,2.19,2.19,0,0,1,0-.28,3,3,0,0,0,0-.31c0-.1,0-.17,0-.22,0-.34,0-.66.05-1a7.22,7.22,0,0,0,.06-.92v-.68a2.36,2.36,0,0,1,0-.32c0-.17,0-.35,0-.55s0-.38,0-.56a3.12,3.12,0,0,0,0-.33v-.24a.5.5,0,0,0,0-.12.75.75,0,0,0-.09-.19v-1.8a.23.23,0,0,1-.07-.14.57.57,0,0,1,0-.14,1.12,1.12,0,0,1,0-.32,1.28,1.28,0,0,0,0-.36c0-.08,0-.19,0-.35s0-.31,0-.47a1.62,1.62,0,0,0-.09-.43c0-.13-.09-.2-.15-.22h-1.19l-.13,0-.19,0-.2,0-.15,0-.17,0-.23-.09a.56.56,0,0,1-.2-.12.2.2,0,0,1-.09-.15,1.59,1.59,0,0,1,.11-.65,1.12,1.12,0,0,1,.46-.1h3.65a2.28,2.28,0,0,1,.57-.1h2a1.1,1.1,0,0,1,.27.05l.23.06.19-.06a.59.59,0,0,1,.22-.05l.18,0,.33,0,.37,0h.27l.08,0h.16l.07,0c.5,0,1,.05,1.52.05a9.65,9.65,0,0,1,1.52.14,1,1,0,0,1,.38.14,1.19,1.19,0,0,0,.4.14l.15,0L353,27l.24.06.15,0a.38.38,0,0,1,.17.06l.12.11.11.14a1,1,0,0,0,.18.15,1,1,0,0,0,.2.11.49.49,0,0,0,.22.08,4.91,4.91,0,0,1,.5.46,5.15,5.15,0,0,1,.51.61c.16.23.3.45.43.67a3.35,3.35,0,0,1,.29.62,2,2,0,0,1,.18.69,5.8,5.8,0,0,1,0,.7,7.86,7.86,0,0,1-.07,1.06,10.83,10.83,0,0,1-.21,1.11,6.33,6.33,0,0,1-.37,1.06,4,4,0,0,1-.54.9L354,36.76s-.05.06-.16.12a1.23,1.23,0,0,0-.23.18,2.46,2.46,0,0,1-.44.19l-.59.22a3.05,3.05,0,0,0-.51.27.4.4,0,0,0-.21.33.75.75,0,0,0,.14.42,5.81,5.81,0,0,0,.32.49c.13.16.26.33.39.48s.24.3.32.42c.17.29.34.57.49.86a8.91,8.91,0,0,0,.48.8l.06.08.11.14.13.16.12.12a3.9,3.9,0,0,1,.38.63,5.14,5.14,0,0,0,.38.64l.26.31q.15.16.3.36l.29.37a4.14,4.14,0,0,1,.23.35l.06.14.05.14a2.26,2.26,0,0,0,.25.49l.32.45.33.46a2,2,0,0,1,.26.47L359,48.34a1.21,1.21,0,0,0,.5.28,6,6,0,0,0,.67.15c.23,0,.46.08.69.11a3.81,3.81,0,0,1,.6.14.4.4,0,0,1,.09.27.42.42,0,0,1-.22.41,1,1,0,0,1-.44.11c-.49,0-1,0-1.43,0l-1.41,0-1.41-.05c-.48,0-1,0-1.47,0a3.21,3.21,0,0,1-.67-.8c-.17-.31-.35-.63-.51-1-.3-.6-.61-1.2-1-1.8A17.35,17.35,0,0,0,352,44.4l-.09-.14-.18-.24-.18-.24-.14-.16a2.5,2.5,0,0,1-.29-.5,2.19,2.19,0,0,0-.29-.47l-.17-.16a.55.55,0,0,1-.14-.14s0-.06,0-.15,0-.14,0-.16l-.06-.07a.77.77,0,0,0-.09-.13l-.11-.12-.07-.07q-.24-.37-.54-.93a7.19,7.19,0,0,0-.7-1.06,5.08,5.08,0,0,0-.85-.88,1.61,1.61,0,0,0-1-.36l-.25,0a1.23,1.23,0,0,0-.26.12.9.9,0,0,0-.2.19.35.35,0,0,0-.09.23v4.83a.4.4,0,0,1,.07.17c0,.08,0,.19.07.32a.32.32,0,0,0,0,.16l0,.28c0,.1,0,.19,0,.28a.75.75,0,0,1,0,.17h0a3.32,3.32,0,0,0,.07.65,2.7,2.7,0,0,1,.07.65v.62s0,0-.05.11a.9.9,0,0,0,0,.19l0,.2c0,.07,0,.1,0,.11l0,.1,0,.2a1.55,1.55,0,0,0,0,.21.69.69,0,0,0,.05.17l.14.08.22.17.26.17a1.22,1.22,0,0,0,.24.11l.15,0,.24.05.25.06.14,0H349a.78.78,0,0,1,.46.21.53.53,0,0,1,.18.4.41.41,0,0,1-.08.27.59.59,0,0,1-.23.14.94.94,0,0,1-.3.05h-.29c-.41,0-.81,0-1.2,0A11.11,11.11,0,0,1,346.4,50Zm1.83-12.26a.46.46,0,0,0,.14.23.31.31,0,0,0,.24.16h0l.1,0,.16,0,.16,0,.08,0,.62-.11.57-.12a3.58,3.58,0,0,0,.56-.16c.19-.06.39-.13.6-.22l.31-.05a.55.55,0,0,0,.28-.15,2.2,2.2,0,0,0,.56-.54c.17-.21.34-.42.52-.62l.16-.17.19-.22a1.37,1.37,0,0,0,.17-.19l.09-.1a6,6,0,0,0,.67-1.45,5.09,5.09,0,0,0,.22-1.55,4.62,4.62,0,0,0-.59-2.36,7.5,7.5,0,0,0-1.58-1.89l-.1-.06a.35.35,0,0,1-.09-.07,9.93,9.93,0,0,0-1.38-.23c-.46,0-.92-.1-1.39-.16h-.28l-.17,0-.26,0-.27,0-.16,0a.62.62,0,0,0-.36.47,3.55,3.55,0,0,0-.06.64v.23c0,1.15,0,2.28.12,3.4s.11,2.25.08,3.4l.08.18Z"/><path class="cls-2" d="M375.47,49.68h-.84l-.24,0-.34.07-.14.05-.14,0-.09,0-.07,0-.06,0h-.68a1.12,1.12,0,0,0-.37.08h-2.15a.21.21,0,0,1-.14-.07,1.11,1.11,0,0,1-.12-.16.72.72,0,0,1-.09-.2.37.37,0,0,1,0-.16.68.68,0,0,1,.68-.69h2.16a1.63,1.63,0,0,0,.58-.12.62.62,0,0,0,.39-.42,1.74,1.74,0,0,1,0-.29c0-.13,0-.27,0-.42s0-.28,0-.41,0-.22,0-.27v-.58c0-.07,0-.21,0-.44s0-.47,0-.73,0-.51,0-.74,0-.37,0-.44V39.26a.58.58,0,0,0,0-.1l0-.16,0-.16a.22.22,0,0,0,0-.08V37.09c0-1.38-.09-2.74-.15-4.09s-.07-2.72-.05-4.12l-.16-.36-.09,0-.19,0-.23,0h-.18l-.31,0-.48,0-.47,0H371a.3.3,0,0,1-.15.07l-.14,0-.13,0-.23,0-.22,0H370l-.19,0-.25.07a6.56,6.56,0,0,1-1.15.14,3.67,3.67,0,0,0-1.12.23l-.11.09c-.05.06-.08.08-.09.08a.34.34,0,0,1-.2.08l-.19,0a.9.9,0,0,0-.47.38c-.1.16-.21.34-.33.51a.18.18,0,0,1,0,.08,1,1,0,0,1-.09.13l-.1.13a.17.17,0,0,0,0,.07,3.22,3.22,0,0,0-.28.48,6.65,6.65,0,0,1-.33.58,3.39,3.39,0,0,1-.4.49.68.68,0,0,1-.46.2A.27.27,0,0,1,364,32a.61.61,0,0,1-.12-.21,1.09,1.09,0,0,1-.05-.26v-.22a1.7,1.7,0,0,1,.18-.79,6.49,6.49,0,0,0,.32-.79s0-.12.05-.25l.09-.42q0-.22.09-.42a2.45,2.45,0,0,0,.05-.25,1.15,1.15,0,0,1,0-.15.71.71,0,0,0,.06-.14,1.5,1.5,0,0,1,0-.24c0-.13,0-.26.06-.4s0-.28.06-.41,0-.21,0-.24a3.08,3.08,0,0,0,.07-.39,3.45,3.45,0,0,1,.12-.46,1,1,0,0,1,.23-.36.54.54,0,0,1,.4-.15h0l.08.08.11.16.17.25a2.52,2.52,0,0,0,.15.24.55.55,0,0,1,.07.13l.24.25.26.25a1,1,0,0,0,.34.18,1.35,1.35,0,0,0,.4.08l.43,0h.41l.24,0,.39,0,.37,0,.23,0h9.58a9.33,9.33,0,0,0,1,.1l1.07,0,.45,0h.41a.21.21,0,0,1,.09.05.18.18,0,0,0,.1.06h.11l.19-.06.2-.05h.51l.33,0a1.63,1.63,0,0,0,.31,0,.79.79,0,0,0,.32-.1l.16-.09.13-.09a2.52,2.52,0,0,0,.11-.31,2.09,2.09,0,0,1,.17-.41,1.14,1.14,0,0,1,.24-.35.37.37,0,0,1,.34-.12l.08,0,.13.05.13.06s.05,0,.05,0a12.43,12.43,0,0,0,.21,1.72c.1.57.2,1.13.29,1.68a1.91,1.91,0,0,0,.12.51l.18.45a3.71,3.71,0,0,1,.16.47,1.81,1.81,0,0,1,.07.54v.12l0,.18a1.1,1.1,0,0,0,0,.18.66.66,0,0,0,0,.13q0,.3-.39.3a.21.21,0,0,1-.15-.07l-.14-.14A1.74,1.74,0,0,1,386,32a.58.58,0,0,1-.07-.11.37.37,0,0,1,0-.1.77.77,0,0,1-.07-.16l-.06-.16a.27.27,0,0,1,0-.08.24.24,0,0,0,0-.11c0-.05-.05-.08-.07-.08l-.35-.58c-.12-.2-.25-.39-.38-.59a4.75,4.75,0,0,0-.41-.56A4.16,4.16,0,0,0,384,29a3.28,3.28,0,0,0-.74-.33,5.37,5.37,0,0,0-.8-.15,7.34,7.34,0,0,0-.81-.05h-.78l-.16,0-.25,0-.25,0H378.8l-.52,0a3.92,3.92,0,0,0-.52.06,1.3,1.3,0,0,0-.42.15.48.48,0,0,0-.24.27v.58l-.11.21a.86.86,0,0,0-.08.18l0,.06a.08.08,0,0,0,0,.05h0V30a.14.14,0,0,0,0,.06.16.16,0,0,0,0,.06,2,2,0,0,0,0,.21c0,.1,0,.21,0,.33s0,.23,0,.33,0,.17,0,.21v6.53a1.76,1.76,0,0,1,.09.42c0,.14,0,.27,0,.39v.32a2.8,2.8,0,0,1-.06.61A2.22,2.22,0,0,0,377,40a.66.66,0,0,0,0,.14.58.58,0,0,1,0,.1,1,1,0,0,0,0,.14c0,.07,0,.15,0,.24a1.57,1.57,0,0,0,0,.24.5.5,0,0,0,0,.14v3.16s0,.09,0,.22a1.24,1.24,0,0,1,.06.22.53.53,0,0,1-.06.15,1.07,1.07,0,0,0,0,.16v1a.87.87,0,0,0-.07.25,1.18,1.18,0,0,0,0,.25v.11c0,.09,0,.22,0,.38s0,.32,0,.47,0,.29,0,.41a.93.93,0,0,0,0,.21,2.11,2.11,0,0,1,0,.25,1,1,0,0,0,.05.25.38.38,0,0,0,.13.18.36.36,0,0,0,.27.08h2.15a.66.66,0,0,1,.49.2.63.63,0,0,1,.2.46.5.5,0,0,1-.21.46,1,1,0,0,1-.52.13h-.46l-.23,0-.4-.06-.39-.07-.23,0h-1l-.11,0-.21,0-.22,0-.13,0Z"/><path class="cls-2" d="M392,49.63a.56.56,0,0,1,.2-.44,3.52,3.52,0,0,1,.42-.29l.48,0,.49,0a4.07,4.07,0,0,0,.79-.08,1.53,1.53,0,0,0,.68-.35l.11-.1.08-.1v-6.7a1.34,1.34,0,0,1-.13-.58v-.75a1.14,1.14,0,0,0-.06-.25V37.71a1.19,1.19,0,0,1,0-.14,1.13,1.13,0,0,1,.07-.15v-.21a4.43,4.43,0,0,1-.09-.72,3.88,3.88,0,0,0-.11-.75V32.85s0-.15,0-.33,0-.38,0-.6,0-.41,0-.58,0-.29,0-.35v-.06a4.61,4.61,0,0,1,.09-.88,5.67,5.67,0,0,0,.08-.9,1.52,1.52,0,0,0,0-.19.73.73,0,0,1,0-.2,1.11,1.11,0,0,1-.05-.24,1.36,1.36,0,0,0-.06-.29.68.68,0,0,0-.13-.24.35.35,0,0,0-.23-.12c-.46,0-.9-.06-1.34-.06a7.56,7.56,0,0,1-1.32-.13.64.64,0,0,1-.15-.26,1.17,1.17,0,0,1,0-.29V27a1.15,1.15,0,0,0,.17-.17,2.22,2.22,0,0,1,.22-.22h.07l.23,0,.38,0,.36,0h.41a2.34,2.34,0,0,0,.71-.1,2.37,2.37,0,0,1,.7-.1H395a.28.28,0,0,0,.2.09h.61q1,0,1.89-.09l1.86-.19h.77l.16,0,.16,0,.1,0h.14l.27,0,.31,0a1.37,1.37,0,0,0,.25,0h0a.37.37,0,0,1,.26.09.68.68,0,0,1,.17.21.77.77,0,0,1,.08.27,1.13,1.13,0,0,1,0,.25v.26a.24.24,0,0,1-.08.1.71.71,0,0,1-.14.1.6.6,0,0,1-.16.08l-.12,0H399a.55.55,0,0,0-.43.2.61.61,0,0,0-.18.41v.08a2,2,0,0,1,0,.32c0,.17,0,.36,0,.56l0,.56c0,.18,0,.28,0,.33s0,.29,0,.56,0,.56,0,.87,0,.61,0,.89,0,.48,0,.58a4.19,4.19,0,0,1,.21,1.11c0,.39,0,.77,0,1.16V36c0,.56,0,1.11-.07,1.64s-.06,1.09-.06,1.64a6.85,6.85,0,0,0,.08,1c.05.33.09.66.11,1,0,.81.07,1.61.09,2.41s0,1.6,0,2.42V47c0,.29,0,.59,0,.89,0,0,0,.12,0,.25a1.07,1.07,0,0,0,.07.23.41.41,0,0,0,.26.24,1.45,1.45,0,0,0,.35,0h.27l.13.06.15.05h.3l.15,0,.15,0,.09,0,.43,0,.6,0,.58,0h.36l.13,0,.24,0,.24,0h.54a7,7,0,0,0,.79,0c.27,0,.54,0,.81,0s.57,0,.86,0a8.19,8.19,0,0,0,.87,0,1.82,1.82,0,0,0,.45,0,2.55,2.55,0,0,1,.44,0h.24a.88.88,0,0,1,.37-.31,1.18,1.18,0,0,0,.42-.29l.65-.59a8.08,8.08,0,0,0,.57-.6,5.49,5.49,0,0,0,.49-.67,6.2,6.2,0,0,0,.43-.77,4.19,4.19,0,0,0,.18-.39c.08-.19.16-.39.24-.61s.16-.42.23-.62l.15-.4a.68.68,0,0,1,.13-.21l.15-.18.05-.06a.11.11,0,0,0,0,0h.06A.52.52,0,0,1,413,43a1.09,1.09,0,0,1,.15.56v.18c-.09.54-.16,1.07-.24,1.62s-.15,1.1-.23,1.67a2.37,2.37,0,0,0,0,.34c0,.18,0,.37-.06.58s0,.4-.07.58a3,3,0,0,1,0,.34.74.74,0,0,1-.27.62,1.21,1.21,0,0,1-.7.16h-.11l-.38,0-.58,0-.59-.06-.39,0a.31.31,0,0,1-.14.06l-.14,0h-1.08l-.18.06-.19,0-.2,0-.19-.06h-.11a.59.59,0,0,0-.33.11.57.57,0,0,1-.33.11l-.18,0-.15,0-.18,0-.27,0a3.71,3.71,0,0,0-.67.06,4.91,4.91,0,0,1-.67,0,.41.41,0,0,1-.21,0,.37.37,0,0,0-.21-.06.28.28,0,0,0-.18.06.41.41,0,0,1-.18,0h0a.43.43,0,0,1-.14,0c-.08,0-.13,0-.14-.07h-3.65l-.24,0-.25,0-.17,0h-.19a4.61,4.61,0,0,0-1,.1,8.34,8.34,0,0,1-.94.12h-1.69l-.46.05-.79.09-.8.09a3.29,3.29,0,0,1-.47,0h-.26a.51.51,0,0,1-.37-.1A.46.46,0,0,1,392,49.63Z"/><path class="cls-2" d="M418.58,49.42v-.13a1,1,0,0,1,.49-.45,2.68,2.68,0,0,1,.65-.14c.23,0,.46,0,.7,0a1.84,1.84,0,0,0,.64-.09.88.88,0,0,0,.46-.35,1.41,1.41,0,0,0,.18-.8V41.88s0-.1,0-.21a3.6,3.6,0,0,1,0-.36c0-.14,0-.26,0-.37s0-.18,0-.21v-.28c0-.15,0-.28,0-.4s0-.24,0-.35a2.4,2.4,0,0,1,0-.37c0-.13,0-.28.05-.46a.28.28,0,0,1,.05-.12.22.22,0,0,0,0-.1v-.09a1.23,1.23,0,0,0,0-.24,1.48,1.48,0,0,1-.05-.25v-3.4s0-.12,0-.26,0-.3,0-.46,0-.32,0-.46,0-.23,0-.26v-1s0-.12,0-.23l0-.35q0-.2,0-.36c0-.11,0-.2,0-.25l.05-.17a1,1,0,0,0,0-.19v-.19c0-.15,0-.33-.07-.52s-.05-.39-.07-.59-.06-.39-.08-.57-.06-.36-.09-.5a.56.56,0,0,0-.27-.4,1.44,1.44,0,0,0-.48-.17,3.19,3.19,0,0,0-.54,0,2,2,0,0,1-.46-.06l-.19,0-.4-.1-.48-.13-.38-.12a.55.55,0,0,1-.33-.18.79.79,0,0,1-.06-.38v-.2s.09-.09.23-.14a.67.67,0,0,1,.27-.05h.7c.6,0,1.21,0,1.84.06l1.83.13.2,0a.61.61,0,0,1,.21.07h.08a.4.4,0,0,1,.19-.07l.2,0,.11.06.08.05h.2l.1-.05.19-.06.19-.06.1,0,.13,0,.18,0,.18.06.12.06h1.47q.87,0,1.71-.06c.57,0,1.14-.05,1.72-.05h.53l.44,0,.44,0,.3,0a.35.35,0,0,1,.14-.07l.15,0h.05a1.46,1.46,0,0,1,.38.05,1.48,1.48,0,0,0,.48.06,5,5,0,0,0,.76-.06,6.78,6.78,0,0,1,.77-.05H435a5,5,0,0,1,.65,0,1.23,1.23,0,0,1,.54.16s0,0,.05.08a.24.24,0,0,1,0,.11v.53a8.2,8.2,0,0,1-.1,1.32A8.13,8.13,0,0,0,436,30a5.24,5.24,0,0,0,.05.7,4,4,0,0,1,.06.71v.22a.93.93,0,0,1-.05.29c0,.09-.11.13-.25.13a.53.53,0,0,1-.43-.22,2.48,2.48,0,0,1-.32-.51,6.07,6.07,0,0,1-.24-.59q-.11-.3-.18-.48a.3.3,0,0,1-.09-.1l-.12-.18-.13-.18-.07-.1q-.18-.34-.39-.69a3.8,3.8,0,0,0-.46-.65,2.44,2.44,0,0,0-.58-.49,2,2,0,0,0-.79-.25l-.67,0h-2l-.65,0h-.22l-.36,0-.37,0-.22,0-.13,0-.2,0-.21,0h-.7l-.26,0a1.25,1.25,0,0,0-.53.11.89.89,0,0,0-.39.52v1.58s0,0,0,.07a.83.83,0,0,1,0,.15c0,.06,0,.11,0,.16a.37.37,0,0,0,0,.08v.22a.84.84,0,0,0,0,.18.4.4,0,0,0,.07.18v5.47a1.31,1.31,0,0,0,0,.17c0,.09,0,.18,0,.28l0,.32a.89.89,0,0,0,.05.23.65.65,0,0,0,.08.31.44.44,0,0,0,.31.08h.72l.66,0,.78,0,.8,0,.68,0h.45l.42-.08a3.1,3.1,0,0,0,.42-.08,2.26,2.26,0,0,0,.39-.15,1,1,0,0,0,.32-.27.54.54,0,0,0,0-.17c0-.08,0-.17,0-.26l0-.28c0-.08,0-.14,0-.18V34a.65.65,0,0,1,.29-.57,1,1,0,0,1,.6-.21.47.47,0,0,1,.44.26,2.71,2.71,0,0,1,.24.52,4.18,4.18,0,0,0,0,.62v1.94a4.42,4.42,0,0,0,0,.64c0,.06,0,.18,0,.36l0,.56q0,.3,0,.57t0,.36a4.08,4.08,0,0,0,.11.77,3,3,0,0,1,.1.79v.11c0,.09,0,.22,0,.37s0,.31,0,.46,0,.29,0,.41,0,.19,0,.21a.92.92,0,0,1-.2.41.51.51,0,0,1-.4.15,1.08,1.08,0,0,1-.62-.14,1,1,0,0,1-.35-.53V40.45a.64.64,0,0,0-.05-.21.73.73,0,0,1-.05-.2s0-.09,0-.17,0-.17,0-.27,0-.18,0-.27a1.53,1.53,0,0,1,0-.18l-.08-.09-.14-.11-.15-.12-.1-.07h-.11c-.6.07-1.19.13-1.79.16s-1.2.06-1.81.06h-.63l-.63,0a4.5,4.5,0,0,0-.49.13.44.44,0,0,0-.21.15.59.59,0,0,0-.06.26c0,.12,0,.27,0,.46l-.06.14-.05.14v.11a.58.58,0,0,0,0,.1c0,.06,0,.12,0,.19a1.49,1.49,0,0,1,0,.18c0,.06,0,.09,0,.11v.2a1.53,1.53,0,0,1-.06.22c0,.14-.05.21-.05.23v.11s0,.11,0,.22,0,.24,0,.37,0,.26,0,.37,0,.18,0,.21v2.92s0,.09,0,.2,0,.23,0,.35,0,.24,0,.35,0,.18,0,.2v1.37a.86.86,0,0,0,.39.55l.34.05.52.07L427,49a2.61,2.61,0,0,0,.34,0h.28c.44,0,.87,0,1.29,0s.86-.05,1.32-.05h.71l.15.05.16,0h.12l.21,0,.22,0,.14,0h1.82a.71.71,0,0,0,.17.09h.24a1.69,1.69,0,0,0,.34,0l.24-.05a.68.68,0,0,0,.43-.32,2.81,2.81,0,0,1,.27-.45l.07-.07a.68.68,0,0,0,.12-.12l.12-.13.08-.07a2.37,2.37,0,0,0,.35-.52,2.64,2.64,0,0,1,.34-.55s0-.08.13-.15a.93.93,0,0,0,.15-.15A1.82,1.82,0,0,0,437,46c.09-.16.18-.35.28-.57s.2-.43.31-.66a5.08,5.08,0,0,1,.34-.62,2.28,2.28,0,0,1,.34-.47.46.46,0,0,1,.34-.19.19.19,0,0,1,.21.16,1.55,1.55,0,0,1,0,.31v.37c0,.09,0,.16,0,.23a.68.68,0,0,1-.09.23l-.5,3.51v.17a1.85,1.85,0,0,0,.05.28c0,.14.05.21.05.22a.83.83,0,0,1-.1.41.61.61,0,0,1-.29.28h-2.74l-.33,0-.59.07-.58.07-.33,0h-.29a.73.73,0,0,0-.21,0l-.18,0h-5.19a18.69,18.69,0,0,1-2.09-.15,16.6,16.6,0,0,0-2.11-.13,6.58,6.58,0,0,0-.9.06l-.89.14-.89.13a7,7,0,0,1-.92.06H419a1.27,1.27,0,0,1-.28-.29A.55.55,0,0,1,418.58,49.42Z"/></g></svg>