<svg xmlns="http://www.w3.org/2000/svg" viewBox="0 0 100 100"><defs><style>.cls-1{fill:#382b18;}.cls-2{fill:#fff;}</style></defs><g id="content"><circle class="cls-1" cx="50" cy="50" r="30"/><path class="cls-1" d="M60,21.8a4.14,4.14,0,0,1-1.11-.26c-.7-.14-1.67-.33-2.75-.58-.53-.11-1.12-.17-1.75-.28a14,14,0,0,0-2-.25,28.29,28.29,0,0,0-3.79,0c-.67.05-1.32,0-1.95.07s-1.24.13-1.83.21a10.63,10.63,0,0,0-2,.47c-.62.19-1.2.35-1.73.48-1,.36-1.91.62-2.52.78s-.93.31-1,.26a2.65,2.65,0,0,1,.84-.55c.57-.27,1.42-.63,2.47-1.05l1.74-.49a13.29,13.29,0,0,1,2-.46c.6-.1,1.23-.18,1.87-.26s1.32-.05,2-.1a27.24,27.24,0,0,1,3.86.07c.72,0,1.41.17,2,.24s1.26.16,1.8.3c1.08.31,2,.6,2.71.84A3.49,3.49,0,0,1,60,21.8Z"/><path class="cls-1" d="M73.51,31.43c-.05,0-.22-.07-.51-.37a19.19,19.19,0,0,1-1.41-1.36c-.63-.72-1.54-1.45-2.45-2.3s-1.85-1.55-2.65-2.16c-1.54-1-2.13-1.41-2.06-1.52s.69.12,2.32,1a34.82,34.82,0,0,1,2.79,2.17A24.13,24.13,0,0,1,72,29.27c.59.69,1,1.2,1.28,1.55S73.56,31.39,73.51,31.43Z"/><path class="cls-1" d="M80.07,50a5.11,5.11,0,0,1-.49-2.36c0-.61,0-1.15,0-1.55s.07-.66.15-.68.18.23.28.62a6.12,6.12,0,0,1,.25,1.56A5.68,5.68,0,0,1,80.07,50Z"/><path class="cls-1" d="M20.5,48.67a18.4,18.4,0,0,1,.11-2.23c.05-.48.11-1,.16-1.45.08-1.06.51-2.18.59-3.13.12-1.19-.24-.79-.62.38a23.92,23.92,0,0,0-.93,4.95,37.59,37.59,0,0,0,.05,7.35v.12a26.74,26.74,0,0,0,4,11.18,36.06,36.06,0,0,0,7.4,8.37,22.29,22.29,0,0,0,2.95,2.13c.49.29.9.57,1.29.77l1,.53c.64.3,1.13.59,1.65.81l1.71.66a11.6,11.6,0,0,0,1.11.4l1.46.38c4.41.94,4.48.77,9,.74L53,80.56c.44,0,.82-.12,1.17-.16l1.81-.27c.56-.09,1.09-.27,1.78-.43a18,18,0,0,0,2.56-.78c2.14-.71,3.11-1.29,4.17-1.7.51-.23,1-.54,1.61-.88a16.37,16.37,0,0,0,2.25-1.47L69.5,74c.35-.27.62-.56.88-.8l1.31-1.28c.39-.42.74-.87,1.2-1.4.24-.26.49-.55.78-.88s.56-.75.9-1.2c2.56-3.69,2.77-3.61,4.49-7.8a27.77,27.77,0,0,0,1.77-8.87,2,2,0,0,0-.48-1.43c-.27-.38-.52-.41-.82,0A2,2,0,0,0,79,51.62,26.06,26.06,0,0,1,77.32,60a26.2,26.2,0,0,1-4,7.49,26.75,26.75,0,0,1-6,6.07,18.55,18.55,0,0,1-2.11,1.42c-.58.34-1,.65-1.5.88a30.54,30.54,0,0,1-3.93,1.71,15,15,0,0,1-2.43.73c-.66.14-1.17.3-1.7.37l-1.73.22c-.33,0-.69.12-1.11.14l-1.42.07a35,35,0,0,1-7.55-.37,29.54,29.54,0,0,1-5.58-1.57,28.82,28.82,0,0,1-7.91-5.24l-1.09-1c-.34-.37-.67-.76-1-1.13s-.69-.75-1-1.14l-.91-1.17-.79-1-.69-1a13.21,13.21,0,0,1-1.3-2.15,29.78,29.78,0,0,1-2.94-10.62A29.1,29.1,0,0,1,20.5,48.67Z"/><path class="cls-1" d="M34.62,24.28c.06.09-.42.54-1.32,1.2-.46.39-1,.68-1.45,1.07s-1.05,1-1.57,1.48a24.37,24.37,0,0,0-1.8,1.72c-.49.54-1,1.06-1.44,1.63l-1.29,1.75c-.47.61-.85,1.28-1.3,1.91-.21.32-.45.62-.65,1l-.57,1a17.29,17.29,0,0,1-.89,1.54s-.06.07-.08.06-.13,0-.13-.06a6.35,6.35,0,0,1,.67-1.73A12.84,12.84,0,0,1,23.59,35l1-1.71c.31-.55.75-1,1.14-1.61a13.71,13.71,0,0,1,1.19-1.59c.46-.51.94-1,1.38-1.44s1-.9,1.47-1.32a11.38,11.38,0,0,1,1.56-1.21c.61-.43,1.14-.88,1.6-1.18C33.94,24.4,34.58,24.2,34.62,24.28Z"/><path class="cls-1" d="M78.91,41.75c-.1,0-.34-.57-.7-1.29-.2-.47-.42-1.12-.65-1.75s-.64-1.24-.81-1.72a6.2,6.2,0,0,1-.48-1.63c.12-.06.6.93,1,1.64a10,10,0,0,1,.78,1.51c.24.64.4,1.16.55,1.66A3.76,3.76,0,0,1,78.91,41.75Z"/><path class="cls-2" d="M37.22,67.53a4.93,4.93,0,0,1-3.47-1.62c-5.88-5.89,3.1-17,7.42-22.41l.95-1.18L43.17,41l.65,1.56c3.21,7.66.33,17.51-2.4,22.26A5.06,5.06,0,0,1,37.22,67.53Z"/><path class="cls-1" d="M42.9,42.94c2.92,7,.51,16.4-2.35,21.38a4,4,0,0,1-3.33,2.21,3.93,3.93,0,0,1-2.76-1.33c-5.7-5.7,4.94-17.82,8.44-22.26m.53-3.9-2.1,2.66c-.27.35-.59.74-.94,1.17-4.5,5.59-13.87,17.22-7.34,23.74a5.86,5.86,0,0,0,4.17,1.92,6,6,0,0,0,5.07-3.22c2.82-4.92,5.81-15.15,2.46-23.14L43.43,39Z"/><path class="cls-2" d="M39,68.67a6.7,6.7,0,0,1-4.89-1.94,3.52,3.52,0,0,1-1-3c.38-2.82,3.68-5.3,4.81-6A21.85,21.85,0,0,1,48.7,54.86a22.43,22.43,0,0,1,8.75,1.8l1.56.65-1.33,1-1.18,1C52.44,62.58,44.88,68.67,39,68.67Z"/><path class="cls-1" d="M48.7,55.86a21.5,21.5,0,0,1,8.36,1.72C53.53,60.36,45.14,67.67,39,67.67A5.71,5.71,0,0,1,34.8,66c-2.51-2.52,1.66-6.31,3.56-7.4A20.88,20.88,0,0,1,48.7,55.86m0-2a22.85,22.85,0,0,0-11.34,3c-1.33.76-4.87,3.44-5.3,6.68a4.41,4.41,0,0,0,1.33,3.86A7.58,7.58,0,0,0,39,69.67c6.25,0,13.7-6,18.15-9.58.43-.35.82-.67,1.17-.94L61,57.05l-3.14-1.32a23.53,23.53,0,0,0-9.13-1.87Z"/><path class="cls-2" d="M58.73,35.21l1.74,1.73a1.13,1.13,0,0,0,1.6,0l.06-.06a1.13,1.13,0,0,0,0-1.6L60.4,33.54a1.15,1.15,0,0,0-1.61,0l-.06.06A1.15,1.15,0,0,0,58.73,35.21Z"/><path class="cls-2" d="M66.34,39.48l-1.73-1.73a1.15,1.15,0,0,0-1.61,0l-.06.06a1.13,1.13,0,0,0,0,1.6l1.74,1.74a1.13,1.13,0,0,0,1.6,0l.06-.06A1.15,1.15,0,0,0,66.34,39.48Z"/><path class="cls-2" d="M65.05,33.1a1.15,1.15,0,0,0-1.61,0l0,.06a1.12,1.12,0,0,0,0,1.6l1.73,1.74a1.13,1.13,0,0,0,1.6,0l.06-.06a1.15,1.15,0,0,0,0-1.61Z"/><path class="cls-2" d="M59.61,38.54a1.11,1.11,0,0,0-1.6,0l-.06.05a1.15,1.15,0,0,0,0,1.61l1.73,1.73a1.15,1.15,0,0,0,1.61,0l.05,0a1.13,1.13,0,0,0,0-1.61Z"/><path class="cls-2" d="M63.76,45.52a1.16,1.16,0,0,0,.83-.35,1.17,1.17,0,0,0,0-1.66L63,41.92a2,2,0,0,1-.54,1.13,2,2,0,0,1-1.13.53l1.59,1.59A1.16,1.16,0,0,0,63.76,45.52Z"/><path class="cls-2" d="M56.3,38.55a1.91,1.91,0,0,1,.54-1.13A2,2,0,0,1,58,36.89L56.37,35.3a1.16,1.16,0,0,0-1.66,0,1.16,1.16,0,0,0-.35.83,1.18,1.18,0,0,0,.35.83Z"/><path class="cls-2" d="M56.63,41.44a1.18,1.18,0,0,0-1.7,0l-.06.06a1.19,1.19,0,0,0,0,1.69L56.69,45a1.18,1.18,0,0,0,.85.36,1.2,1.2,0,0,0,.85-.36l.06-.06a1.21,1.21,0,0,0,.35-.85,1.23,1.23,0,0,0-.35-.85Z"/><path class="cls-2" d="M61.85,46.66,60.17,45a2,2,0,0,1-1.76,1.76l1.68,1.69a1.27,1.27,0,0,0,.88.36,1.24,1.24,0,0,0,.88-2.12Z"/><path class="cls-2" d="M53.15,41.48a1.94,1.94,0,0,1,1.76-1.76L53.22,38a1.23,1.23,0,0,0-.88-.36,1.23,1.23,0,0,0-1.24,1.24,1.25,1.25,0,0,0,.36.88Z"/><path class="cls-2" d="M53.6,48a1.26,1.26,0,0,0,1.8,0l.06-.06a1.27,1.27,0,0,0,0-1.79l-1.73-1.73a1.24,1.24,0,0,0-.89-.37,1.26,1.26,0,0,0-.9.37l-.06.07a1.24,1.24,0,0,0-.37.89,1.26,1.26,0,0,0,.37.9Z"/><path class="cls-2" d="M58.91,49.6l-1.69-1.69a2.21,2.21,0,0,1-.61,1.25,2.15,2.15,0,0,1-1.25.6l1.69,1.7a1.24,1.24,0,0,0,.86.35,1.37,1.37,0,0,0,1.35-1.32A1.21,1.21,0,0,0,58.91,49.6Z"/><path class="cls-2" d="M48.43,42.83l1.69,1.69A2.09,2.09,0,0,1,52,42.67L50.28,41a1.22,1.22,0,0,0-.86-.35,1.34,1.34,0,0,0-1,.4A1.28,1.28,0,0,0,48.43,42.83Z"/><path class="cls-2" d="M50.78,47.35a1.33,1.33,0,0,0-1.88,0l-.07.07a1.34,1.34,0,0,0,0,1.89l1.81,1.81a1.34,1.34,0,0,0,1.89,0l.07-.07a1.32,1.32,0,0,0,.39-.94,1.29,1.29,0,0,0-.4-.94Z"/><path class="cls-2" d="M56.21,52.78,54.42,51a2.25,2.25,0,0,1-.63,1.33,2.34,2.34,0,0,1-1.32.63l1.78,1.78a1.29,1.29,0,0,0,.91.37,1.44,1.44,0,0,0,1.42-1.38A1.3,1.3,0,0,0,56.21,52.78Z"/><path class="cls-2" d="M45.22,45.7,47,47.48a2.32,2.32,0,0,1,.63-1.32A2.27,2.27,0,0,1,49,45.53l-1.79-1.79a1.27,1.27,0,0,0-.91-.37,1.43,1.43,0,0,0-1,.42A1.36,1.36,0,0,0,45.22,45.7Z"/><path class="cls-2" d="M49.7,52.15l-1.9-1.9a1.43,1.43,0,0,0-1-.41,1.39,1.39,0,0,0-1,.41l-.07.07a1.39,1.39,0,0,0,0,2l1.9,1.9a1.35,1.35,0,0,0,1,.41,1.38,1.38,0,0,0,1-.41l.07-.07A1.41,1.41,0,0,0,49.7,52.15Z"/></g></svg>