<svg xmlns="http://www.w3.org/2000/svg" viewBox="0 0 100 100"><defs><style>.cls-1{fill:#382b18;}.cls-2{fill:none;}.cls-3{fill:#fff;}</style></defs><g id="content"><circle class="cls-1" cx="50" cy="50" r="30"/><path class="cls-1" d="M60,21.8a4.14,4.14,0,0,1-1.11-.26c-.7-.14-1.67-.33-2.75-.58-.53-.11-1.12-.17-1.75-.28a14,14,0,0,0-2-.25,28.29,28.29,0,0,0-3.79,0c-.67.05-1.32,0-1.95.07s-1.24.13-1.83.21a10.63,10.63,0,0,0-2,.47c-.62.19-1.2.35-1.73.48-1,.36-1.91.62-2.52.78s-.93.31-1,.26a2.65,2.65,0,0,1,.84-.55c.57-.27,1.42-.63,2.47-1.05l1.74-.49a13.29,13.29,0,0,1,2-.46c.6-.1,1.23-.18,1.87-.26s1.32-.05,2-.1a27.24,27.24,0,0,1,3.86.07c.72,0,1.41.17,2,.24s1.26.16,1.8.3c1.08.31,2,.6,2.71.84A3.81,3.81,0,0,1,60,21.8Z"/><path class="cls-1" d="M73.51,31.43c-.05,0-.22-.07-.51-.37a19.19,19.19,0,0,1-1.41-1.36c-.63-.72-1.54-1.45-2.45-2.3s-1.85-1.55-2.65-2.16c-1.54-1-2.13-1.41-2.06-1.52s.69.12,2.32,1a34.82,34.82,0,0,1,2.79,2.17A24.13,24.13,0,0,1,72,29.27c.59.69,1,1.2,1.28,1.55S73.56,31.39,73.51,31.43Z"/><path class="cls-1" d="M80.07,50a5.11,5.11,0,0,1-.49-2.36c0-.61,0-1.15,0-1.55s.07-.66.15-.68.18.23.28.62a6.12,6.12,0,0,1,.25,1.56A5.68,5.68,0,0,1,80.07,50Z"/><path class="cls-1" d="M20.5,48.67a18.4,18.4,0,0,1,.11-2.23c.05-.48.11-1,.16-1.45.08-1.06.51-2.18.59-3.13.12-1.19-.24-.79-.62.38a23.92,23.92,0,0,0-.93,4.95,37.59,37.59,0,0,0,.05,7.35v.12a26.74,26.74,0,0,0,4,11.18,36.06,36.06,0,0,0,7.4,8.37,21.6,21.6,0,0,0,2.95,2.13c.49.29.9.57,1.29.77l1,.53c.64.3,1.13.59,1.65.81l1.71.66a11.6,11.6,0,0,0,1.11.4l1.46.38c4.41.94,4.48.77,9,.74L53,80.56c.44,0,.82-.12,1.17-.16l1.81-.27c.56-.09,1.09-.27,1.78-.43a18,18,0,0,0,2.56-.78c2.14-.71,3.11-1.29,4.17-1.7.51-.23,1-.54,1.61-.88a16.37,16.37,0,0,0,2.25-1.47L69.5,74c.35-.27.62-.56.88-.8l1.31-1.28c.39-.42.74-.87,1.2-1.4.24-.26.49-.55.78-.88s.56-.75.9-1.2c2.56-3.69,2.77-3.61,4.49-7.8a27.77,27.77,0,0,0,1.77-8.87,2,2,0,0,0-.48-1.43c-.27-.38-.52-.41-.82,0A2,2,0,0,0,79,51.62,26.06,26.06,0,0,1,77.32,60a26.2,26.2,0,0,1-4,7.49,26.75,26.75,0,0,1-6,6.07,18.55,18.55,0,0,1-2.11,1.42c-.58.34-1,.65-1.5.88a30.54,30.54,0,0,1-3.93,1.71,15,15,0,0,1-2.43.73c-.66.14-1.17.3-1.7.37l-1.73.22c-.33,0-.69.11-1.11.14l-1.42.07a35,35,0,0,1-7.55-.37,29.54,29.54,0,0,1-5.58-1.57,28.82,28.82,0,0,1-7.91-5.24l-1.09-1c-.34-.37-.67-.75-1-1.13s-.69-.75-1-1.14l-.91-1.17-.79-1-.69-1a13.21,13.21,0,0,1-1.3-2.15,29.78,29.78,0,0,1-2.94-10.62A29.1,29.1,0,0,1,20.5,48.67Z"/><path class="cls-1" d="M34.62,24.28c.06.09-.42.54-1.32,1.2-.46.39-1,.68-1.45,1.07s-1.05,1-1.57,1.48a24.37,24.37,0,0,0-1.8,1.72c-.49.54-1,1.06-1.44,1.63l-1.29,1.75c-.47.61-.85,1.28-1.3,1.91-.21.32-.45.62-.65,1l-.57,1a17.29,17.29,0,0,1-.89,1.54s-.06.07-.08.06-.13,0-.13-.06a6.35,6.35,0,0,1,.67-1.73A12.84,12.84,0,0,1,23.59,35l1-1.71c.31-.55.75-1,1.14-1.62a14.52,14.52,0,0,1,1.19-1.58c.46-.51.94-1,1.38-1.44s1-.9,1.47-1.32a11.38,11.38,0,0,1,1.56-1.21c.61-.43,1.14-.88,1.6-1.18C33.94,24.4,34.58,24.2,34.62,24.28Z"/><path class="cls-1" d="M78.91,41.75c-.1,0-.34-.57-.7-1.29-.2-.47-.42-1.12-.65-1.75s-.64-1.24-.81-1.72a6.2,6.2,0,0,1-.48-1.63c.12-.06.6.93,1,1.64a10,10,0,0,1,.78,1.51c.24.64.4,1.16.55,1.66A3.76,3.76,0,0,1,78.91,41.75Z"/><path class="cls-2" d="M31.27,39.17a1.76,1.76,0,0,0-.44,2.18,3.86,3.86,0,0,0,2.09-.88C34.42,39.15,32.29,38.37,31.27,39.17Z"/><path class="cls-3" d="M69.07,49.35a5,5,0,0,1-3.29-1.76c-.06-.1-.19-.29-.35-.52,4.09-1.85,3.41-6.93,3.35-7.51s-.34-.66-.61-.13-.67,2.94-2.45,2.81c-2.61-.2-4.08.13-5.13,1.38a13.88,13.88,0,0,0-1.13,1.1,7.63,7.63,0,0,1,1.57-3c-.45-.45-.91-.89-1.37-1.29C57.13,38.3,53.6,37,47.55,37c-7.18,0-12,3-14.28,7.23a6.61,6.61,0,0,1-2-1.94,6,6,0,0,0,1.23-.3c2.82-1.06,2.47-3.34,1-4a2.8,2.8,0,0,0-4,2.85,5.24,5.24,0,0,0,.08.53,4,4,0,0,1-2.25-.9c-.38-.34-1.19-.27-.33.75a3.87,3.87,0,0,0,2.86,1.18,6.88,6.88,0,0,0,2.69,3.46,13.09,13.09,0,0,0-.49,1.76,7.59,7.59,0,0,0,.48,4.49A10.5,10.5,0,0,0,33.21,56c.93,2.39,2.08,7.07,2.16,7.33s.14.42.53.42h2.47c.31,0,.47-.42,0-1.17-.72-1.09-.34-2.81.7-4.37a13.16,13.16,0,0,0,1.75.69c3.55,1.07,8.78,1,13.37.47.94,2.4,1.44,4.38,2.09,4.38H58c.47,0,.21-.37,0-1.17a14.28,14.28,0,0,1-.36-3.72c1.45-.25,2.75-.53,3.77-.81,4.64-1.3,6.58-2.88,7.23-3.83a9,9,0,0,0,1.23-3.41C70,49.94,70.48,49.53,69.07,49.35ZM31.27,39.17c1-.8,3.15,0,1.65,1.3a3.86,3.86,0,0,1-2.09.88A1.76,1.76,0,0,1,31.27,39.17ZM64.69,51.06a.8.8,0,1,1,.79-.79A.79.79,0,0,1,64.69,51.06Z"/></g></svg>